<svg width="19" height="18" viewBox="0 0 19 18" fill="none" xmlns="http://www.w3.org/2000/svg">
<path d="M2 18C1.45 18 0.979333 17.8043 0.588 17.413C0.196667 17.0217 0.000666667 16.5507 0 16V2C0 1.45 0.196 0.979333 0.588 0.588C0.98 0.196667 1.45067 0.000666667 2 0H16C16.55 0 17.021 0.196 17.413 0.588C17.805 0.98 18.0007 1.45067 18 2H10C8.81667 2 7.85433 2.371 7.113 3.113C6.37167 3.855 6.00067 4.81733 6 6V12C6 13.1833 6.371 14.146 7.113 14.888C7.855 15.63 8.81733 16.0007 10 16H18C18 16.55 17.8043 17.021 17.413 17.413C17.0217 17.805 16.5507 18.0007 16 18H2ZM10 14C9.45 14 8.97933 13.8043 8.588 13.413C8.19667 13.0217 8.00067 12.5507 8 12V6C8 5.45 8.196 4.97933 8.588 4.588C8.98 4.19667 9.45067 4.00067 10 4H17C17.55 4 18.021 4.196 18.413 4.588C18.805 4.98 19.0007 5.45067 19 6V12C19 12.55 18.8043 13.021 18.413 13.413C18.0217 13.805 17.5507 14.0007 17 14H10ZM13 10.5C13.4333 10.5 13.7917 10.3583 14.075 10.075C14.3583 9.79167 14.5 9.43333 14.5 9C14.5 8.56667 14.3583 8.20833 14.075 7.925C13.7917 7.64167 13.4333 7.5 13 7.5C12.5667 7.5 12.2083 7.64167 11.925 7.925C11.6417 8.20833 11.5 8.56667 11.5 9C11.5 9.43333 11.6417 9.79167 11.925 10.075C12.2083 10.3583 12.5667 10.5 13 10.5Z" fill="#FF6600"/>
</svg>
