<svg width="14" height="13" viewBox="0 0 14 13" fill="none" xmlns="http://www.w3.org/2000/svg">
<path d="M6.64667 13C7.38 13 7.98 12.4 7.98 11.6667H5.31333C5.31333 12.4 5.91333 13 6.64667 13ZM10.6467 9V5.66667C10.6467 3.62 9.56 1.90667 7.64667 1.45333V1C7.64667 0.446667 7.2 0 6.64667 0C6.09333 0 5.64667 0.446667 5.64667 1V1.45333C3.74 1.90667 2.64667 3.61333 2.64667 5.66667V9L1.31333 10.3333V11H11.98V10.3333L10.6467 9ZM9.31333 9.66667H3.98V5.66667C3.98 4.01333 4.98667 2.66667 6.64667 2.66667C8.30667 2.66667 9.31333 4.01333 9.31333 5.66667V9.66667ZM3.7 1.05333L2.74667 0.1C1.14667 1.32 0.0933333 3.2 0 5.33333H1.33333C1.3808 4.48793 1.61823 3.6641 2.02797 2.9231C2.43771 2.18211 3.00922 1.54301 3.7 1.05333ZM11.96 5.33333H13.2933C13.1933 3.2 12.14 1.32 10.5467 0.1L9.6 1.05333C10.2878 1.54542 10.8568 2.18522 11.2652 2.92582C11.6735 3.66642 11.9109 4.48903 11.96 5.33333Z" fill="#B9AE9D"/>
</svg>
