<svg width="16" height="16" viewBox="0 0 16 16" fill="none" xmlns="http://www.w3.org/2000/svg">
<path d="M12.175 8.58854H1C0.71667 8.58854 0.479337 8.49254 0.288004 8.30054C0.0966702 8.10854 0.000670115 7.8712 3.44827e-06 7.58854C-0.000663218 7.30587 0.0953369 7.06854 0.288004 6.87654C0.48067 6.68454 0.718003 6.58854 1 6.58854H12.175L7.275 1.68854C7.075 1.48854 6.979 1.2552 6.987 0.988538C6.995 0.721871 7.09934 0.488538 7.3 0.288538C7.5 0.105205 7.73334 0.00920488 8 0.000538218C8.26667 -0.00812845 8.5 0.0878712 8.7 0.288538L15.3 6.88854C15.4 6.98854 15.471 7.09687 15.513 7.21354C15.555 7.3302 15.5757 7.4552 15.575 7.58854C15.5743 7.72187 15.5537 7.84687 15.513 7.96354C15.4723 8.0802 15.4013 8.18854 15.3 8.28854L8.7 14.8885C8.51667 15.0719 8.28767 15.1635 8.013 15.1635C7.73834 15.1635 7.50067 15.0719 7.3 14.8885C7.1 14.6885 7 14.4512 7 14.1765C7 13.9019 7.1 13.6642 7.3 13.4635L12.175 8.58854Z" fill="#FF6600"/>
</svg>
