<svg width="15" height="15" viewBox="0 0 15 15" fill="none" xmlns="http://www.w3.org/2000/svg">
<path d="M2.25 11.0625V7.3125C2.25 7.1 2.322 6.922 2.466 6.7785C2.61 6.635 2.788 6.563 3 6.5625C3.212 6.562 3.39025 6.634 3.53475 6.7785C3.67925 6.923 3.751 7.101 3.75 7.3125V11.0625C3.75 11.275 3.678 11.4532 3.534 11.5972C3.39 11.7412 3.212 11.813 3 11.8125C2.788 11.812 2.61 11.74 2.466 11.5965C2.322 11.453 2.25 11.275 2.25 11.0625ZM6.75 11.0625V7.3125C6.75 7.1 6.822 6.922 6.966 6.7785C7.11 6.635 7.288 6.563 7.5 6.5625C7.712 6.562 7.89025 6.634 8.03475 6.7785C8.17925 6.923 8.251 7.101 8.25 7.3125V11.0625C8.25 11.275 8.178 11.4532 8.034 11.5972C7.89 11.7412 7.712 11.813 7.5 11.8125C7.288 11.812 7.11 11.74 6.966 11.5965C6.822 11.453 6.75 11.275 6.75 11.0625ZM0.750003 14.8125C0.537503 14.8125 0.359503 14.7405 0.216003 14.5965C0.0725029 14.4525 0.000502841 14.2745 2.84091e-06 14.0625C-0.000497159 13.8505 0.0715029 13.6725 0.216003 13.5285C0.360503 13.3845 0.538503 13.3125 0.750003 13.3125H14.25C14.4625 13.3125 14.6408 13.3845 14.7848 13.5285C14.9288 13.6725 15.0005 13.8505 15 14.0625C14.9995 14.2745 14.9275 14.4527 14.784 14.5972C14.6405 14.7417 14.4625 14.8135 14.25 14.8125H0.750003ZM11.25 11.0625V7.3125C11.25 7.1 11.322 6.922 11.466 6.7785C11.61 6.635 11.788 6.563 12 6.5625C12.212 6.562 12.3903 6.634 12.5348 6.7785C12.6793 6.923 12.751 7.101 12.75 7.3125V11.0625C12.75 11.275 12.678 11.4532 12.534 11.5972C12.39 11.7412 12.212 11.813 12 11.8125C11.788 11.812 11.61 11.74 11.466 11.5965C11.322 11.453 11.25 11.275 11.25 11.0625ZM14.25 5.0625H0.675003C0.487503 5.0625 0.328003 4.997 0.196503 4.866C0.0650029 4.735 -0.000497159 4.5755 2.84091e-06 4.3875V3.975C2.84091e-06 3.8375 0.0345028 3.71875 0.103503 3.61875C0.172503 3.51875 0.263003 3.4375 0.375003 3.375L6.825 0.15C7.0375 0.05 7.2625 0 7.5 0C7.7375 0 7.9625 0.05 8.175 0.15L14.5875 3.35625C14.725 3.41875 14.8283 3.5125 14.8973 3.6375C14.9663 3.7625 15.0005 3.89375 15 4.03125V4.3125C15 4.525 14.9283 4.70325 14.7848 4.84725C14.6413 4.99125 14.463 5.063 14.25 5.0625Z" fill="#C084FC"/>
</svg>
