<svg width="13" height="13" viewBox="0 0 13 13" fill="none" xmlns="http://www.w3.org/2000/svg">
<path d="M3.66667 9V5.66667M6.33333 9V3.66667M9 9V7.66667M10.3333 1H2.33333C1.97971 1 1.64057 1.14048 1.39052 1.39052C1.14048 1.64057 1 1.97971 1 2.33333V10.3333C1 10.687 1.14048 11.0261 1.39052 11.2761C1.64057 11.5262 1.97971 11.6667 2.33333 11.6667H10.3333C10.687 11.6667 11.0261 11.5262 11.2761 11.2761C11.5262 11.0261 11.6667 10.687 11.6667 10.3333V2.33333C11.6667 1.97971 11.5262 1.64057 11.2761 1.39052C11.0261 1.14048 10.687 1 10.3333 1Z" stroke="#FF6600" stroke-width="2" stroke-linecap="round" stroke-linejoin="round"/>
</svg>
