<svg width="9" height="12" viewBox="0 0 9 12" fill="none" xmlns="http://www.w3.org/2000/svg">
<path d="M4.16369 11.1032C3.85836 11.1032 3.59697 10.9945 3.37953 10.777C3.16209 10.5596 3.05338 10.2982 3.05338 9.99287H5.27401C5.27401 10.2982 5.16529 10.5596 4.94786 10.777C4.73042 10.9945 4.46903 11.1032 4.16369 11.1032ZM1.94306 9.43771V8.32739H6.38433V9.43771H1.94306ZM2.08185 7.77223C1.44341 7.39287 0.936831 6.88398 0.562099 6.24554C0.187366 5.60711 0 4.91316 0 4.16369C0 3.00711 0.404804 2.02402 1.21441 1.21441C2.02402 0.404803 3.00711 0 4.16369 0C5.32028 0 6.30337 0.404803 7.11298 1.21441C7.92259 2.02402 8.32739 3.00711 8.32739 4.16369C8.32739 4.91316 8.14002 5.60711 7.76529 6.24554C7.39056 6.88398 6.88398 7.39287 6.24554 7.77223H2.08185ZM2.41494 6.66191H5.91245C6.32882 6.36583 6.65035 6.00035 6.87704 5.56547C7.10373 5.1306 7.21707 4.66334 7.21707 4.16369C7.21707 3.31245 6.92099 2.59074 6.32882 1.99857C5.73665 1.4064 5.01494 1.11032 4.16369 1.11032C3.31245 1.11032 2.59074 1.4064 1.99857 1.99857C1.4064 2.59074 1.11032 3.31245 1.11032 4.16369C1.11032 4.66334 1.22366 5.1306 1.45035 5.56547C1.67704 6.00035 1.99857 6.36583 2.41494 6.66191Z" fill="#FF6600"/>
</svg>
