<svg width="18" height="18" viewBox="0 0 18 18" fill="none" xmlns="http://www.w3.org/2000/svg">
<path d="M5 15H6.5V13H8.5V11.5H6.5V9.5H5V11.5H3V13H5V15ZM10 14.25H15V12.75H10V14.25ZM10 11.75H15V10.25H10V11.75ZM3.25 6.2H8.25V4.7H3.25V6.2ZM2 18C1.45 18 0.979333 17.8043 0.588 17.413C0.196667 17.0217 0.000666667 16.5507 0 16V2C0 1.45 0.196 0.979333 0.588 0.588C0.98 0.196667 1.45067 0.000666667 2 0H16C16.55 0 17.021 0.196 17.413 0.588C17.805 0.98 18.0007 1.45067 18 2V16C18 16.55 17.8043 17.021 17.413 17.413C17.0217 17.805 16.5507 18.0007 16 18H2ZM11.1 7.95L12.5 6.55L13.9 7.95L14.95 6.9L13.55 5.45L14.95 4.05L13.9 3L12.5 4.4L11.1 3L10.05 4.05L11.45 5.45L10.05 6.9L11.1 7.95Z" fill="#FF6600"/>
</svg>
