<svg width="18" height="18" viewBox="0 0 18 18" fill="none" xmlns="http://www.w3.org/2000/svg">
<path d="M4.86111 14.5833H6.31944V12.6389H8.26389V11.1806H6.31944V9.23611H4.86111V11.1806H2.91667V12.6389H4.86111V14.5833ZM9.72222 13.8542H14.5833V12.3958H9.72222V13.8542ZM9.72222 11.4236H14.5833V9.96528H9.72222V11.4236ZM10.7917 7.72917L12.1528 6.36806L13.5139 7.72917L14.5347 6.70833L13.1736 5.29861L14.5347 3.9375L13.5139 2.91667L12.1528 4.27778L10.7917 2.91667L9.77083 3.9375L11.1319 5.29861L9.77083 6.70833L10.7917 7.72917ZM3.15972 6.02778H8.02083V4.56944H3.15972V6.02778ZM1.94444 17.5C1.40972 17.5 0.951968 17.3096 0.571181 16.9288C0.190394 16.548 0 16.0903 0 15.5556V1.94444C0 1.40972 0.190394 0.951967 0.571181 0.57118C0.951968 0.190393 1.40972 0 1.94444 0H15.5556C16.0903 0 16.548 0.190393 16.9288 0.57118C17.3096 0.951967 17.5 1.40972 17.5 1.94444V15.5556C17.5 16.0903 17.3096 16.548 16.9288 16.9288C16.548 17.3096 16.0903 17.5 15.5556 17.5H1.94444ZM1.94444 15.5556H15.5556V1.94444H1.94444V15.5556Z" fill="white"/>
</svg>
