<svg width="308" height="63" viewBox="0 0 308 63" fill="none" xmlns="http://www.w3.org/2000/svg">
<rect width="307.328" height="63" stroke="#E5E7EB"/>
<rect width="54" height="63" rx="8" fill="#8A561E" fill-opacity="0.2"/>
<rect width="54" height="63" rx="8" stroke="#E5E7EB"/>
<path d="M20 28H34V26H20V28ZM20 42C19.45 42 18.9793 41.8043 18.588 41.413C18.1967 41.0217 18.0007 40.5507 18 40V26C18 25.45 18.196 24.9793 18.588 24.588C18.98 24.1967 19.4507 24.0007 20 24H21V23C21 22.7167 21.096 22.4793 21.288 22.288C21.48 22.0967 21.7173 22.0007 22 22C22.2827 21.9993 22.5203 22.0953 22.713 22.288C22.9057 22.4807 23.0013 22.718 23 23V24H31V23C31 22.7167 31.096 22.4793 31.288 22.288C31.48 22.0967 31.7173 22.0007 32 22C32.2827 21.9993 32.5203 22.0953 32.713 22.288C32.9057 22.4807 33.0013 22.718 33 23V24H34C34.55 24 35.021 24.196 35.413 24.588C35.805 24.98 36.0007 25.4507 36 26V30.675C36 30.9583 35.904 31.196 35.712 31.388C35.52 31.58 35.2827 31.6757 35 31.675C34.7173 31.6743 34.48 31.5783 34.288 31.387C34.096 31.1957 34 30.9583 34 30.675V30H20V40H25.8C26.0833 40 26.321 40.096 26.513 40.288C26.705 40.48 26.8007 40.7173 26.8 41C26.7993 41.2827 26.7033 41.5203 26.512 41.713C26.3207 41.9057 26.0833 42.0013 25.8 42H20ZM33 43C31.6167 43 30.4377 42.5123 29.463 41.537C28.4883 40.5617 28.0007 39.3827 28 38C27.9993 36.6173 28.487 35.4383 29.463 34.463C30.439 33.4877 31.618 33 33 33C34.382 33 35.5613 33.4877 36.538 34.463C37.5147 35.4383 38.002 36.6173 38 38C37.998 39.3827 37.5103 40.562 36.537 41.538C35.5637 42.514 34.3847 43.0013 33 43ZM33.5 37.8V35.5C33.5 35.3667 33.45 35.25 33.35 35.15C33.25 35.05 33.1333 35 33 35C32.8667 35 32.75 35.05 32.65 35.15C32.55 35.25 32.5 35.3667 32.5 35.5V37.775C32.5 37.9083 32.525 38.0377 32.575 38.163C32.625 38.2883 32.7 38.4007 32.8 38.5L34.325 40.025C34.425 40.125 34.5417 40.175 34.675 40.175C34.8083 40.175 34.925 40.125 35.025 40.025C35.125 39.925 35.175 39.8083 35.175 39.675C35.175 39.5417 35.125 39.425 35.025 39.325L33.5 37.8Z" fill="#FABA60"/>
<rect x="284.328" y="1" width="22" height="22" rx="11" stroke="#63574B" stroke-width="2"/>
</svg>
