<svg width="15" height="16" viewBox="0 0 15 16" fill="none" xmlns="http://www.w3.org/2000/svg">
<path d="M1.5 4.5H12V3H1.5V4.5ZM1.5 15C1.0875 15 0.7345 14.8533 0.441 14.5597C0.1475 14.2662 0.0005 13.913 0 13.5V3C0 2.5875 0.147 2.2345 0.441 1.941C0.735 1.6475 1.088 1.5005 1.5 1.5H2.25V0H3.75V1.5H9.75V0H11.25V1.5H12C12.4125 1.5 12.7657 1.647 13.0597 1.941C13.3538 2.235 13.5005 2.588 13.5 3V7.25625C13.2625 7.14375 13.0188 7.05 12.7687 6.975C12.5187 6.9 12.2625 6.84375 12 6.80625V6H1.5V13.5H6.225C6.3125 13.775 6.41575 14.0375 6.53475 14.2875C6.65375 14.5375 6.79425 14.775 6.95625 15H1.5ZM11.25 15.75C10.2125 15.75 9.32825 15.3843 8.59725 14.6528C7.86625 13.9213 7.5005 13.037 7.5 12C7.4995 10.963 7.86525 10.0788 8.59725 9.34725C9.32925 8.61575 10.2135 8.25 11.25 8.25C12.2865 8.25 13.171 8.61575 13.9035 9.34725C14.636 10.0788 15.0015 10.963 15 12C14.9985 13.037 14.6328 13.9215 13.9028 14.6535C13.1728 15.3855 12.2885 15.751 11.25 15.75ZM12.5062 13.7812L13.0312 13.2562L11.625 11.85V9.75H10.875V12.15L12.5062 13.7812Z" fill="#FF6600"/>
</svg>
