<svg width="20" height="20" viewBox="0 0 20 20" fill="none" xmlns="http://www.w3.org/2000/svg">
<path d="M2 20C1.45 20 0.979333 19.8043 0.588 19.413C0.196667 19.0217 0.000666667 18.5507 0 18V4C0 3.45 0.196 2.97933 0.588 2.588C0.98 2.19667 1.45067 2.00067 2 2H3V0H5V2H13V0H15V2H16C16.55 2 17.021 2.196 17.413 2.588C17.805 2.98 18.0007 3.45067 18 4V9H16V8H2V18H9V20H2ZM2 6H16V4H2V6ZM11 20V16.925L16.525 11.425C16.675 11.275 16.8417 11.1667 17.025 11.1C17.2083 11.0333 17.3917 11 17.575 11C17.775 11 17.9667 11.0377 18.15 11.113C18.3333 11.1883 18.5 11.3007 18.65 11.45L19.575 12.375C19.7083 12.525 19.8127 12.6917 19.888 12.875C19.9633 13.0583 20.0007 13.2417 20 13.425C19.9993 13.6083 19.966 13.796 19.9 13.988C19.834 14.18 19.7257 14.3507 19.575 14.5L14.075 20H11ZM12.5 18.5H13.45L16.475 15.45L16.025 14.975L15.55 14.525L12.5 17.55V18.5ZM16.025 14.975L15.55 14.525L16.475 15.45L16.025 14.975Z" fill="#B8AA94"/>
</svg>
