<svg width="11" height="11" viewBox="0 0 11 11" fill="none" xmlns="http://www.w3.org/2000/svg">
<path d="M1.16667 0.583333C1.16667 0.428624 1.10521 0.280251 0.995812 0.170854C0.886416 0.0614581 0.738043 0 0.583333 0C0.428624 0 0.280251 0.0614581 0.170854 0.170854C0.0614581 0.280251 0 0.428624 0 0.583333V8.45833C0 8.99982 0.215104 9.51912 0.59799 9.90201C0.980877 10.2849 1.50018 10.5 2.04167 10.5H9.91667C10.0714 10.5 10.2197 10.4385 10.3291 10.3291C10.4385 10.2197 10.5 10.0714 10.5 9.91667C10.5 9.76196 10.4385 9.61358 10.3291 9.50419C10.2197 9.39479 10.0714 9.33333 9.91667 9.33333H2.04167C1.8096 9.33333 1.58704 9.24115 1.42295 9.07705C1.25885 8.91296 1.16667 8.6904 1.16667 8.45833V0.583333ZM7 1.75C6.84529 1.75 6.69692 1.81146 6.58752 1.92085C6.47812 2.03025 6.41667 2.17862 6.41667 2.33333C6.41667 2.48804 6.47812 2.63642 6.58752 2.74581C6.69692 2.85521 6.84529 2.91667 7 2.91667H8.21683L5.97917 5.15433L4.93325 4.10842C4.82386 3.99906 4.67551 3.93762 4.52083 3.93762C4.36615 3.93762 4.21781 3.99906 4.10842 4.10842L2.21258 6.00425C2.15687 6.05806 2.11243 6.12243 2.08186 6.1936C2.05129 6.26477 2.03519 6.34131 2.03452 6.41877C2.03385 6.49622 2.04861 6.57303 2.07794 6.64472C2.10727 6.71641 2.15058 6.78154 2.20535 6.83631C2.26012 6.89108 2.32525 6.9344 2.39694 6.96373C2.46863 6.99306 2.54545 7.00782 2.6229 7.00715C2.70036 7.00647 2.7769 6.99038 2.84807 6.95981C2.91924 6.92924 2.98361 6.8848 3.03742 6.82908L4.52083 5.34567L5.56675 6.39158C5.67614 6.50094 5.82449 6.56238 5.97917 6.56238C6.13385 6.56238 6.28219 6.50094 6.39158 6.39158L9.04225 3.7415L9.04167 4.95833C9.04167 5.11304 9.10312 5.26142 9.21252 5.37081C9.32192 5.48021 9.47029 5.54167 9.625 5.54167C9.77971 5.54167 9.92808 5.48021 10.0375 5.37081C10.1469 5.26142 10.2083 5.11304 10.2083 4.95833L10.2095 2.33333C10.2095 2.17862 10.148 2.03025 10.0386 1.92085C9.92925 1.81146 9.78088 1.75 9.62617 1.75H7Z" fill="#F87171"/>
</svg>
