<svg width="14" height="14" viewBox="0 0 14 14" fill="none" xmlns="http://www.w3.org/2000/svg">
<path d="M10 7.33334L7.23333 4.63334C6.88889 4.3 6.59733 3.93067 6.35867 3.52534C6.12 3.12 6.00044 2.67822 6 2.2C6 1.58889 6.214 1.06956 6.642 0.642002C7.07 0.214446 7.58933 0.000446411 8.2 1.96657e-06C8.55556 1.96657e-06 8.88889 0.0751131 9.2 0.225335C9.51111 0.375558 9.77778 0.578224 10 0.833335C10.2222 0.57778 10.4889 0.374891 10.8 0.224669C11.1111 0.0744463 11.4444 -0.000442478 11.8 1.96657e-06C12.4111 1.96657e-06 12.9307 0.214002 13.3587 0.642002C13.7867 1.07 14.0004 1.58934 14 2.2C14 2.67778 13.8833 3.11956 13.65 3.52534C13.4167 3.93111 13.1278 4.30045 12.7833 4.63334L10 7.33334ZM10 5.46667L11.8167 3.68334C12.0278 3.47222 12.2222 3.24711 12.4 3.008C12.5778 2.76889 12.6667 2.49956 12.6667 2.2C12.6667 1.95556 12.5833 1.75 12.4167 1.58334C12.25 1.41667 12.0444 1.33334 11.8 1.33334C11.6444 1.33334 11.4971 1.36378 11.358 1.42467C11.2189 1.48556 11.0996 1.57734 11 1.7L10 2.9L9 1.7C8.9 1.57778 8.78067 1.486 8.642 1.42467C8.50333 1.36334 8.356 1.33289 8.2 1.33334C7.95556 1.33334 7.75 1.41667 7.58333 1.58334C7.41667 1.75 7.33333 1.95556 7.33333 2.2C7.33333 2.5 7.42222 2.76956 7.6 3.00867C7.77778 3.24778 7.97222 3.47267 8.18333 3.68334L10 5.46667ZM4 11L8.63333 12.2667L12.6 11.0333C12.5444 10.9333 12.4638 10.8471 12.358 10.7747C12.2522 10.7022 12.1329 10.6662 12 10.6667H8.63333C8.33333 10.6667 8.09444 10.6556 7.91667 10.6333C7.73889 10.6111 7.55556 10.5667 7.36667 10.5L5.81667 9.98334L6.18333 8.68334L7.53333 9.13334C7.72222 9.18889 7.94444 9.23334 8.2 9.26667C8.45556 9.3 8.83333 9.32222 9.33333 9.33334C9.33333 9.21111 9.29733 9.09445 9.22533 8.98334C9.15333 8.87222 9.06711 8.8 8.96667 8.76667L5.06667 7.33334H4V11ZM0 13.3333V6H5.06667C5.14444 6 5.22222 6.00845 5.3 6.02534C5.37778 6.04222 5.45 6.06156 5.51667 6.08334L9.43333 7.53334C9.8 7.66667 10.0973 7.9 10.3253 8.23334C10.5533 8.56667 10.6671 8.93334 10.6667 9.33334H12C12.5556 9.33334 13.0278 9.51667 13.4167 9.88334C13.8056 10.25 14 10.7333 14 11.3333V12L8.66667 13.6667L4 12.3667V13.3333H0ZM1.33333 12H2.66667V7.33334H1.33333V12Z" fill="white"/>
</svg>
