<svg width="14" height="14" viewBox="0 0 14 14" fill="none" xmlns="http://www.w3.org/2000/svg">
<path d="M6.66667 0C10.3487 0 13.3333 2.98467 13.3333 6.66667C13.3333 10.3487 10.3487 13.3333 6.66667 13.3333C5.60267 13.3348 4.55389 13.0806 3.60867 12.592L1.05801 13.3033C0.9157 13.343 0.765394 13.3442 0.622488 13.3067C0.479583 13.2692 0.349216 13.1944 0.244745 13.0899C0.140275 12.9855 0.0654566 12.8551 0.027957 12.7122C-0.0095426 12.5693 -0.00837542 12.419 0.0313389 12.2767L0.743339 9.728C0.253574 8.78196 -0.0013792 7.73197 5.6113e-06 6.66667C5.6113e-06 2.98467 2.98467 0 6.66667 0ZM6.66667 1C5.16378 1 3.72244 1.59702 2.65973 2.65973C1.59703 3.72243 1.00001 5.16377 1.00001 6.66667C1.00001 7.64667 1.24867 8.58867 1.71534 9.42467L1.81534 9.60467L1.07401 12.2607L3.73201 11.5193L3.91201 11.6193C4.66826 12.0398 5.51076 12.2815 6.3749 12.3259C7.23905 12.3703 8.10188 12.2162 8.89723 11.8754C9.69259 11.5346 10.3993 11.0163 10.9633 10.36C11.5273 9.70376 11.9334 8.92708 12.1507 8.08951C12.368 7.25195 12.3905 6.37576 12.2167 5.52813C12.0428 4.68049 11.6772 3.88392 11.1478 3.19951C10.6183 2.5151 9.93922 1.96101 9.16246 1.57975C8.3857 1.19848 7.53195 1.00017 6.66667 1ZM4.50001 7.33333H7.49867C7.62536 7.33337 7.7473 7.3815 7.83987 7.46798C7.93243 7.55447 7.98872 7.67287 7.99736 7.79925C8.00599 7.92564 7.96633 8.0506 7.88638 8.14887C7.80644 8.24714 7.69217 8.3114 7.56667 8.32867L7.49867 8.33333H4.50001C4.37332 8.33329 4.25138 8.28517 4.15881 8.19868C4.06624 8.1122 4.00996 7.9938 4.00132 7.86741C3.99269 7.74103 4.03235 7.61607 4.11229 7.5178C4.19224 7.41953 4.30651 7.35527 4.43201 7.338L4.50001 7.33333ZM4.50001 5H8.83667C8.9633 5.00021 9.08513 5.04845 9.17757 5.13499C9.27001 5.22153 9.32617 5.33992 9.33472 5.46625C9.34326 5.59259 9.30356 5.71746 9.22362 5.81566C9.14367 5.91386 9.02945 5.97808 8.90401 5.99533L8.83667 6H4.50001C4.37332 5.99996 4.25138 5.95184 4.15881 5.86535C4.06624 5.77887 4.00996 5.66047 4.00132 5.53408C3.99269 5.40769 4.03235 5.28274 4.11229 5.18447C4.19224 5.0862 4.30651 5.02193 4.43201 5.00467L4.50001 5Z" fill="white"/>
</svg>
