<svg width="14" height="13" viewBox="0 0 14 13" fill="none" xmlns="http://www.w3.org/2000/svg">
<path d="M2.66667 10.6667L1.13333 12.2C0.922223 12.4111 0.680446 12.4584 0.408001 12.342C0.135557 12.2256 -0.000443359 12.0171 1.08578e-06 11.7167V1.33333C1.08578e-06 0.966667 0.130668 0.652889 0.392001 0.392C0.653334 0.131111 0.967112 0.000444444 1.33333 0H12C12.3667 0 12.6807 0.130667 12.942 0.392C13.2033 0.653333 13.3338 0.967111 13.3333 1.33333V9.33333C13.3333 9.7 13.2029 10.014 12.942 10.2753C12.6811 10.5367 12.3671 10.6671 12 10.6667H2.66667ZM2.1 9.33333H12V1.33333H1.33333V10.0833L2.1 9.33333ZM3.33333 8H7.33333C7.52222 8 7.68067 7.936 7.80867 7.808C7.93667 7.68 8.00045 7.52178 8 7.33333C7.99956 7.14489 7.93556 6.98667 7.808 6.85867C7.68045 6.73067 7.52222 6.66667 7.33333 6.66667H3.33333C3.14445 6.66667 2.98622 6.73067 2.85867 6.85867C2.73111 6.98667 2.66711 7.14489 2.66667 7.33333C2.66622 7.52178 2.73022 7.68022 2.85867 7.80867C2.98711 7.93711 3.14533 8.00089 3.33333 8ZM3.33333 6H10C10.1889 6 10.3473 5.936 10.4753 5.808C10.6033 5.68 10.6671 5.52178 10.6667 5.33333C10.6662 5.14489 10.6022 4.98667 10.4747 4.85867C10.3471 4.73067 10.1889 4.66667 10 4.66667H3.33333C3.14445 4.66667 2.98622 4.73067 2.85867 4.85867C2.73111 4.98667 2.66711 5.14489 2.66667 5.33333C2.66622 5.52178 2.73022 5.68022 2.85867 5.80867C2.98711 5.93711 3.14533 6.00089 3.33333 6ZM3.33333 4H10C10.1889 4 10.3473 3.936 10.4753 3.808C10.6033 3.68 10.6671 3.52178 10.6667 3.33333C10.6662 3.14489 10.6022 2.98667 10.4747 2.85867C10.3471 2.73067 10.1889 2.66667 10 2.66667H3.33333C3.14445 2.66667 2.98622 2.73067 2.85867 2.85867C2.73111 2.98667 2.66711 3.14489 2.66667 3.33333C2.66622 3.52178 2.73022 3.68022 2.85867 3.80867C2.98711 3.93711 3.14533 4.00089 3.33333 4Z" fill="#B9AB9D"/>
</svg>
