<svg width="19" height="19" viewBox="0 0 19 19" fill="none" xmlns="http://www.w3.org/2000/svg">
<path fill-rule="evenodd" clip-rule="evenodd" d="M1.09483 12.9479C1.10705 12.8658 1.09342 12.7819 1.05583 12.7079C0.817539 12.1979 0.603304 11.677 0.413831 11.1469C0.233831 10.6299 0.0338308 9.94687 0.00683078 9.28487C-0.193169 4.22887 4.02583 0.208868 9.09683 0.00786763C14.1678 -0.193132 18.6918 3.47887 18.8928 8.53487C19.0938 13.5909 14.8738 17.6109 9.80283 17.8119C8.84221 17.8509 7.88099 17.7512 6.94883 17.5159L4.17983 18.6539C2.18783 19.4719 0.0928309 17.7289 0.534831 15.6209L1.09483 12.9479ZM3.05283 13.3589C3.15335 12.8556 3.08991 12.3334 2.87183 11.8689C2.48183 11.0249 2.03383 9.91887 2.00583 9.20587C1.85383 5.39287 5.06383 2.16987 9.17583 2.00587C13.2868 1.84287 16.7428 4.80187 16.8938 8.61487C17.0458 12.4279 13.8358 15.6509 9.72383 15.8149C8.85985 15.8495 7.99598 15.7438 7.16583 15.5019C6.95467 15.4374 6.72785 15.447 6.52283 15.5289L3.41983 16.8039C3.30502 16.851 3.17953 16.866 3.05684 16.8472C2.93415 16.8284 2.8189 16.7766 2.72348 16.6972C2.62806 16.6178 2.55607 16.5139 2.51526 16.3967C2.47444 16.2795 2.46635 16.1533 2.49183 16.0319L3.05283 13.3589Z" fill="#896E61"/>
</svg>
