<svg width="12" height="12" viewBox="0 0 12 12" fill="none" xmlns="http://www.w3.org/2000/svg">
<path d="M5.01667 8.51667L9.12917 4.40417L8.3125 3.5875L5.01667 6.88333L3.35417 5.22083L2.5375 6.0375L5.01667 8.51667ZM5.83333 11.6667C5.02639 11.6667 4.26806 11.5134 3.55833 11.207C2.84861 10.9006 2.23125 10.485 1.70625 9.96042C1.18125 9.43581 0.765723 8.81844 0.459667 8.10833C0.153612 7.39822 0.000389627 6.63989 7.38396e-07 5.83333C-0.00038815 5.02678 0.152834 4.26844 0.459667 3.55833C0.766501 2.84822 1.18203 2.23086 1.70625 1.70625C2.23047 1.18164 2.84783 0.766111 3.55833 0.459667C4.26883 0.153222 5.02717 0 5.83333 0C6.6395 0 7.39783 0.153222 8.10833 0.459667C8.81883 0.766111 9.4362 1.18164 9.96042 1.70625C10.4846 2.23086 10.9004 2.84822 11.2076 3.55833C11.5148 4.26844 11.6678 5.02678 11.6667 5.83333C11.6655 6.63989 11.5123 7.39822 11.207 8.10833C10.9017 8.81844 10.4862 9.43581 9.96042 9.96042C9.43464 10.485 8.81728 10.9007 8.10833 11.2076C7.39939 11.5144 6.64106 11.6674 5.83333 11.6667ZM5.83333 10.5C7.13611 10.5 8.23958 10.0479 9.14375 9.14375C10.0479 8.23958 10.5 7.13611 10.5 5.83333C10.5 4.53056 10.0479 3.42708 9.14375 2.52292C8.23958 1.61875 7.13611 1.16667 5.83333 1.16667C4.53056 1.16667 3.42708 1.61875 2.52292 2.52292C1.61875 3.42708 1.16667 4.53056 1.16667 5.83333C1.16667 7.13611 1.61875 8.23958 2.52292 9.14375C3.42708 10.0479 4.53056 10.5 5.83333 10.5Z" fill="#EC4899"/>
</svg>
