<svg width="16" height="14" viewBox="0 0 16 14" fill="none" xmlns="http://www.w3.org/2000/svg">
<path d="M4.66667 13.3333V10.6667H0L2.56667 6.66667H1.33333L6 0L8 2.86667L10 0L14.6667 6.66667H13.4333L16 10.6667H11.3333V13.3333H8.66667V10.6667H7.33333V13.3333H4.66667ZM11.15 9.33333H13.5667L10.9833 5.33333H12.1L10 2.33333L8.81667 4.01667L10.6667 6.66667H9.43333L11.15 9.33333ZM2.43333 9.33333H9.56667L6.98333 5.33333H8.1L6 2.33333L3.9 5.33333H5.01667L2.43333 9.33333ZM2.43333 9.33333H5.01667H3.9H8.1H6.98333H9.56667H2.43333ZM11.15 9.33333H9.43333H10.6667H8.81667H12.1H10.9833H13.5667H11.15Z" fill="white"/>
</svg>
