<svg width="24" height="23" viewBox="0 0 24 23" fill="none" xmlns="http://www.w3.org/2000/svg">
<path d="M5.83333 22.3611C5.02315 22.3611 4.33449 22.0775 3.76736 21.5104C3.20023 20.9433 2.91667 20.2546 2.91667 19.4444C2.91667 18.6343 3.20023 17.9456 3.76736 17.3785C4.33449 16.8113 5.02315 16.5278 5.83333 16.5278C6.06019 16.5278 6.27083 16.5521 6.46528 16.6007C6.65972 16.6493 6.84607 16.7141 7.02431 16.7951L8.40972 15.0694C7.95602 14.5671 7.64005 14 7.46181 13.3681C7.28357 12.7361 7.24306 12.1042 7.34028 11.4722L5.37153 10.816C5.09607 11.2211 4.74769 11.5451 4.32639 11.7882C3.90509 12.0313 3.43519 12.1528 2.91667 12.1528C2.10648 12.1528 1.41782 11.8692 0.850694 11.3021C0.283565 10.735 0 10.0463 0 9.23611C0 8.42593 0.283565 7.73727 0.850694 7.17014C1.41782 6.60301 2.10648 6.31945 2.91667 6.31945C3.72685 6.31945 4.41551 6.60301 4.98264 7.17014C5.54977 7.73727 5.83333 8.42593 5.83333 9.23611C5.83333 9.26852 5.83333 9.30093 5.83333 9.33334C5.83333 9.36574 5.83333 9.39815 5.83333 9.43056L7.80208 10.1111C8.12616 9.52778 8.55961 9.03357 9.10243 8.62848C9.64526 8.22338 10.2569 7.96412 10.9375 7.8507V5.73611C10.3056 5.55787 9.78299 5.21354 9.36979 4.70313C8.9566 4.19271 8.75 3.59723 8.75 2.91667C8.75 2.10649 9.03356 1.41783 9.60069 0.850697C10.1678 0.283567 10.8565 3.8147e-06 11.6667 3.8147e-06C12.4769 3.8147e-06 13.1655 0.283567 13.7326 0.850697C14.2998 1.41783 14.5833 2.10649 14.5833 2.91667C14.5833 3.59723 14.3727 4.19271 13.9514 4.70313C13.5301 5.21354 13.0116 5.55787 12.3958 5.73611V7.8507C13.0764 7.96412 13.6881 8.22338 14.2309 8.62848C14.7737 9.03357 15.2072 9.52778 15.5312 10.1111L17.5 9.43056C17.5 9.39815 17.5 9.36574 17.5 9.33334C17.5 9.30093 17.5 9.26852 17.5 9.23611C17.5 8.42593 17.7836 7.73727 18.3507 7.17014C18.9178 6.60301 19.6065 6.31945 20.4167 6.31945C21.2269 6.31945 21.9155 6.60301 22.4826 7.17014C23.0498 7.73727 23.3333 8.42593 23.3333 9.23611C23.3333 10.0463 23.0498 10.735 22.4826 11.3021C21.9155 11.8692 21.2269 12.1528 20.4167 12.1528C19.8981 12.1528 19.4242 12.0313 18.9948 11.7882C18.5654 11.5451 18.2211 11.2211 17.9618 10.816L15.9931 11.4722C16.0903 12.1042 16.0498 12.7321 15.8715 13.3559C15.6933 13.9797 15.3773 14.5509 14.9236 15.0694L16.309 16.7708C16.4873 16.6898 16.6736 16.6291 16.8681 16.5885C17.0625 16.548 17.2731 16.5278 17.5 16.5278C18.3102 16.5278 18.9988 16.8113 19.566 17.3785C20.1331 17.9456 20.4167 18.6343 20.4167 19.4444C20.4167 20.2546 20.1331 20.9433 19.566 21.5104C18.9988 22.0775 18.3102 22.3611 17.5 22.3611C16.6898 22.3611 16.0012 22.0775 15.434 21.5104C14.8669 20.9433 14.5833 20.2546 14.5833 19.4444C14.5833 19.1204 14.636 18.8085 14.7413 18.5087C14.8466 18.2089 14.9884 17.9375 15.1667 17.6944L13.7812 15.9688C13.1169 16.3414 12.408 16.5278 11.6545 16.5278C10.901 16.5278 10.1921 16.3414 9.52778 15.9688L8.16667 17.6944C8.34491 17.9375 8.48669 18.2089 8.59201 18.5087C8.69734 18.8085 8.75 19.1204 8.75 19.4444C8.75 20.2546 8.46644 20.9433 7.89931 21.5104C7.33218 22.0775 6.64352 22.3611 5.83333 22.3611ZM2.91667 10.2083C3.19213 10.2083 3.42303 10.1152 3.60938 9.92882C3.79572 9.74248 3.88889 9.51158 3.88889 9.23611C3.88889 8.96065 3.79572 8.72975 3.60938 8.54341C3.42303 8.35706 3.19213 8.26389 2.91667 8.26389C2.6412 8.26389 2.4103 8.35706 2.22396 8.54341C2.03762 8.72975 1.94444 8.96065 1.94444 9.23611C1.94444 9.51158 2.03762 9.74248 2.22396 9.92882C2.4103 10.1152 2.6412 10.2083 2.91667 10.2083ZM5.83333 20.4167C6.1088 20.4167 6.3397 20.3235 6.52604 20.1372C6.71238 19.9508 6.80556 19.7199 6.80556 19.4444C6.80556 19.169 6.71238 18.9381 6.52604 18.7517C6.3397 18.5654 6.1088 18.4722 5.83333 18.4722C5.55787 18.4722 5.32697 18.5654 5.14062 18.7517C4.95428 18.9381 4.86111 19.169 4.86111 19.4444C4.86111 19.7199 4.95428 19.9508 5.14062 20.1372C5.32697 20.3235 5.55787 20.4167 5.83333 20.4167ZM11.6667 3.88889C11.9421 3.88889 12.173 3.79572 12.3594 3.60938C12.5457 3.42303 12.6389 3.19213 12.6389 2.91667C12.6389 2.64121 12.5457 2.4103 12.3594 2.22396C12.173 2.03762 11.9421 1.94445 11.6667 1.94445C11.3912 1.94445 11.1603 2.03762 10.974 2.22396C10.7876 2.4103 10.6944 2.64121 10.6944 2.91667C10.6944 3.19213 10.7876 3.42303 10.974 3.60938C11.1603 3.79572 11.3912 3.88889 11.6667 3.88889ZM11.6667 14.5833C12.3472 14.5833 12.9225 14.3484 13.3924 13.8785C13.8623 13.4086 14.0972 12.8333 14.0972 12.1528C14.0972 11.4722 13.8623 10.897 13.3924 10.4271C12.9225 9.95718 12.3472 9.72223 11.6667 9.72223C10.9861 9.72223 10.4109 9.95718 9.94097 10.4271C9.47106 10.897 9.23611 11.4722 9.23611 12.1528C9.23611 12.8333 9.47106 13.4086 9.94097 13.8785C10.4109 14.3484 10.9861 14.5833 11.6667 14.5833ZM17.5 20.4167C17.7755 20.4167 18.0064 20.3235 18.1927 20.1372C18.3791 19.9508 18.4722 19.7199 18.4722 19.4444C18.4722 19.169 18.3791 18.9381 18.1927 18.7517C18.0064 18.5654 17.7755 18.4722 17.5 18.4722C17.2245 18.4722 16.9936 18.5654 16.8073 18.7517C16.6209 18.9381 16.5278 19.169 16.5278 19.4444C16.5278 19.7199 16.6209 19.9508 16.8073 20.1372C16.9936 20.3235 17.2245 20.4167 17.5 20.4167ZM20.4167 10.2083C20.6921 10.2083 20.923 10.1152 21.1094 9.92882C21.2957 9.74248 21.3889 9.51158 21.3889 9.23611C21.3889 8.96065 21.2957 8.72975 21.1094 8.54341C20.923 8.35706 20.6921 8.26389 20.4167 8.26389C20.1412 8.26389 19.9103 8.35706 19.724 8.54341C19.5376 8.72975 19.4444 8.96065 19.4444 9.23611C19.4444 9.51158 19.5376 9.74248 19.724 9.92882C19.9103 10.1152 20.1412 10.2083 20.4167 10.2083Z" fill="#FF6600"/>
</svg>
