<svg width="12" height="14" viewBox="0 0 12 14" fill="none" xmlns="http://www.w3.org/2000/svg">
<path d="M9.33333 1.33333H7.21333C6.93333 0.56 6.2 0 5.33333 0C4.46667 0 3.73333 0.56 3.45333 1.33333H1.33333C0.6 1.33333 0 1.93333 0 2.66667V12.6667C0 13.4 0.6 14 1.33333 14H5.40667C5.01175 13.6176 4.69082 13.1656 4.46 12.6667H1.33333V2.66667H2.66667V3.33333C2.66667 4.06667 3.26667 4.66667 4 4.66667H6.66667C7.4 4.66667 8 4.06667 8 3.33333V2.66667H9.33333V6.05333C9.80667 6.12 10.2533 6.26 10.6667 6.45333V2.66667C10.6667 1.93333 10.0667 1.33333 9.33333 1.33333ZM5.33333 2.66667C4.96667 2.66667 4.66667 2.36667 4.66667 2C4.66667 1.63333 4.96667 1.33333 5.33333 1.33333C5.7 1.33333 6 1.63333 6 2C6 2.36667 5.7 2.66667 5.33333 2.66667ZM8.66667 7.33333C6.82667 7.33333 5.33333 8.82667 5.33333 10.6667C5.33333 12.5067 6.82667 14 8.66667 14C10.5067 14 12 12.5067 12 10.6667C12 8.82667 10.5067 7.33333 8.66667 7.33333ZM9.52667 12L8.42667 10.9C8.36386 10.8385 8.32792 10.7546 8.32667 10.6667V9.00667C8.32667 8.82 8.47333 8.67333 8.66 8.67333C8.84667 8.67333 8.99333 8.82 8.99333 9.00667V10.5333L9.99333 11.5333C10.0245 11.5639 10.0493 11.6003 10.0663 11.6404C10.0833 11.6806 10.0921 11.7237 10.0924 11.7674C10.0926 11.811 10.0841 11.8542 10.0676 11.8945C10.051 11.9349 10.0265 11.9715 9.9957 12.0024C9.96486 12.0332 9.92821 12.0576 9.88787 12.0742C9.84753 12.0908 9.80431 12.0992 9.76069 12.099C9.71707 12.0988 9.67393 12.0899 9.63377 12.0729C9.5936 12.0559 9.5572 12.0312 9.52667 12Z" fill="#B9AB9D"/>
</svg>
