<svg width="22" height="20" viewBox="0 0 22 20" fill="none" xmlns="http://www.w3.org/2000/svg">
<path d="M18.2778 19.25L15.7014 16.7222H5.34722C3.85648 16.7222 2.59259 16.2037 1.55556 15.1667C0.518519 14.1296 0 12.8657 0 11.375C0 10.1273 0.384838 9.01736 1.15451 8.04514C1.92419 7.07292 2.91667 6.44907 4.13194 6.17361C4.18056 6.04398 4.22917 5.9184 4.27778 5.79688C4.32639 5.67535 4.375 5.54167 4.42361 5.39583L0.388889 1.36111L1.75 0L19.6389 17.8889L18.2778 19.25ZM5.34722 14.7778H13.7569L5.93056 6.95139C5.89815 7.12963 5.87384 7.29977 5.85764 7.46181C5.84144 7.62384 5.83333 7.79398 5.83333 7.97222H5.34722C4.40741 7.97222 3.60532 8.3044 2.94097 8.96875C2.27662 9.6331 1.94444 10.4352 1.94444 11.375C1.94444 12.3148 2.27662 13.1169 2.94097 13.7812C3.60532 14.4456 4.40741 14.7778 5.34722 14.7778ZM20.0278 15.5069L18.6181 14.1458C18.8935 13.919 19.1001 13.6557 19.2378 13.3559C19.3756 13.0561 19.4444 12.7199 19.4444 12.3472C19.4444 11.6667 19.2095 11.0914 18.7396 10.6215C18.2697 10.1516 17.6944 9.91667 17.0139 9.91667H15.5556V7.97222C15.5556 6.62731 15.0816 5.4809 14.1337 4.53299C13.1858 3.58507 12.0394 3.11111 10.6944 3.11111C10.2569 3.11111 9.83565 3.16377 9.43056 3.2691C9.02546 3.37442 8.63657 3.54051 8.26389 3.76736L6.85417 2.35764C7.4213 1.96875 8.02488 1.67303 8.66493 1.47049C9.30498 1.26794 9.98148 1.16667 10.6944 1.16667C12.5903 1.16667 14.1985 1.82697 15.5191 3.14757C16.8397 4.46817 17.5 6.07639 17.5 7.97222C18.6181 8.10185 19.5457 8.58391 20.283 9.4184C21.0203 10.2529 21.3889 11.2292 21.3889 12.3472C21.3889 12.9792 21.2674 13.5666 21.0243 14.1094C20.7812 14.6522 20.4491 15.1181 20.0278 15.5069Z" fill="#FF6600"/>
</svg>
