<svg width="11" height="15" viewBox="0 0 11 15" fill="none" xmlns="http://www.w3.org/2000/svg">
<path d="M2.5 15V13.3333H0V11.6667H1.66667V3.33333H0V1.66667H2.5V0H4.16667V1.66667H5.83333V0H7.5V1.77083C8.22222 1.96528 8.81944 2.35764 9.29167 2.94792C9.76389 3.53819 10 4.22222 10 5C10 5.40278 9.93056 5.78819 9.79167 6.15625C9.65278 6.52431 9.45833 6.85417 9.20833 7.14583C9.69444 7.4375 10.0868 7.83333 10.3854 8.33333C10.684 8.83333 10.8333 9.38889 10.8333 10C10.8333 10.9167 10.5069 11.7014 9.85417 12.3542C9.20139 13.0069 8.41667 13.3333 7.5 13.3333V15H5.83333V13.3333H4.16667V15H2.5ZM3.33333 6.66667H6.66667C7.125 6.66667 7.51736 6.50347 7.84375 6.17708C8.17014 5.85069 8.33333 5.45833 8.33333 5C8.33333 4.54167 8.17014 4.14931 7.84375 3.82292C7.51736 3.49653 7.125 3.33333 6.66667 3.33333H3.33333V6.66667ZM3.33333 11.6667H7.5C7.95833 11.6667 8.35069 11.5035 8.67708 11.1771C9.00347 10.8507 9.16667 10.4583 9.16667 10C9.16667 9.54167 9.00347 9.14931 8.67708 8.82292C8.35069 8.49653 7.95833 8.33333 7.5 8.33333H3.33333V11.6667Z" fill="white"/>
</svg>
