<svg width="18" height="18" viewBox="0 0 18 18" fill="none" xmlns="http://www.w3.org/2000/svg">
<path d="M2.66667 10.6667H8V9.33333H2.66667V10.6667ZM2.66667 8H8V6.66667H2.66667V8ZM1.33333 13.3333C0.966667 13.3333 0.652889 13.2029 0.392 12.942C0.131111 12.6811 0.000444444 12.3671 0 12V1.33333C0 0.966667 0.130667 0.652889 0.392 0.392C0.653333 0.131111 0.967111 0.000444444 1.33333 0H6.66667L10.6667 4V12C10.6667 12.3667 10.5362 12.6807 10.2753 12.942C10.0144 13.2033 9.70045 13.3338 9.33333 13.3333H1.33333ZM6 4.66667V1.33333H1.33333V12H9.33333V4.66667H6Z" fill="#B9AB9D"/>
</svg>
