<svg width="16" height="20" viewBox="0 0 16 20" fill="none" xmlns="http://www.w3.org/2000/svg">
<path d="M3.83333 15.3333H11.5V13.4167H3.83333V15.3333ZM3.83333 11.5H11.5V9.58333H3.83333V11.5ZM1.91667 19.1667C1.38958 19.1667 0.938528 18.9792 0.5635 18.6041C0.188472 18.2291 0.000638889 17.7777 0 17.25V1.91667C0 1.38958 0.187833 0.938528 0.5635 0.5635C0.939167 0.188472 1.39022 0.000638889 1.91667 0H9.58333L15.3333 5.75V17.25C15.3333 17.7771 15.1458 18.2285 14.7708 18.6041C14.3958 18.9798 13.9444 19.1673 13.4167 19.1667H1.91667ZM8.625 6.70833V1.91667H1.91667V17.25H13.4167V6.70833H8.625Z" fill="#FEE7BF"/>
</svg>
