<svg width="16" height="16" viewBox="0 0 16 16" fill="none" xmlns="http://www.w3.org/2000/svg">
<path fill-rule="evenodd" clip-rule="evenodd" d="M2.66667 1.06667C2.24232 1.06667 1.83535 1.23524 1.5353 1.5353C1.23524 1.83535 1.06667 2.24232 1.06667 2.66667V5.33333H0V2.66667C0 1.95942 0.280952 1.28115 0.781049 0.781049C1.28115 0.280952 1.95942 0 2.66667 0L5.33333 0V1.06667H2.66667ZM13.3333 1.06667H10.6667V0H13.3333C14.0406 0 14.7189 0.280952 15.219 0.781049C15.719 1.28115 16 1.95942 16 2.66667V5.33333H14.9333V2.66667C14.9333 2.24232 14.7648 1.83535 14.4647 1.5353C14.1646 1.23524 13.7577 1.06667 13.3333 1.06667ZM5.33333 6.4H4.26667V5.33333H5.33333V6.4ZM11.7333 6.4H10.6667V5.33333H11.7333V6.4ZM5.22667 9.28C5.54958 9.71055 5.96829 10.06 6.44966 10.3007C6.93103 10.5414 7.46182 10.6667 8 10.6667C8.53818 10.6667 9.06898 10.5414 9.55034 10.3007C10.0317 10.06 10.4504 9.71055 10.7733 9.28L11.6267 9.92C9.81333 12.3381 6.18667 12.3381 4.37333 9.92L5.22667 9.28ZM0 13.3333V10.6667H1.06667V13.3333C1.06667 13.7577 1.23524 14.1646 1.5353 14.4647C1.83535 14.7648 2.24232 14.9333 2.66667 14.9333H5.33333V16H2.66667C1.95942 16 1.28115 15.719 0.781049 15.219C0.280952 14.7189 0 14.0406 0 13.3333ZM16 10.6667V13.3333C16 14.0406 15.719 14.7189 15.219 15.219C14.7189 15.719 14.0406 16 13.3333 16H10.6667V14.9333H13.3333C13.7577 14.9333 14.1646 14.7648 14.4647 14.4647C14.7648 14.1646 14.9333 13.7577 14.9333 13.3333V10.6667H16Z" fill="white"/>
</svg>
