<svg width="14" height="14" viewBox="0 0 14 14" fill="none" xmlns="http://www.w3.org/2000/svg">
<path d="M10.6667 2.66667C10.3 2.66667 9.98622 2.53623 9.72533 2.27534C9.46444 2.01445 9.33378 1.70045 9.33333 1.33334C9.33289 0.966227 9.46356 0.652449 9.72533 0.392005C9.98711 0.13156 10.3009 0.000893393 10.6667 4.5045e-06C11.0324 -0.000884384 11.3464 0.129782 11.6087 0.392005C11.8709 0.654227 12.0013 0.968004 12 1.33334C11.9987 1.69867 11.8682 2.01267 11.6087 2.27534C11.3491 2.538 11.0351 2.66845 10.6667 2.66667ZM10 12.6667V8C10 7.55556 9.886 7.15556 9.658 6.8C9.43 6.44445 9.13844 6.16667 8.78333 5.96667L9.36667 4.25C9.45556 3.97223 9.61956 3.75 9.85867 3.58334C10.0978 3.41667 10.3671 3.33334 10.6667 3.33334C10.9662 3.33334 11.2358 3.41667 11.4753 3.58334C11.7149 3.75 11.8787 3.97223 11.9667 4.25L13.3667 8.45C13.4444 8.67223 13.414 8.87512 13.2753 9.05867C13.1367 9.24223 12.956 9.33378 12.7333 9.33334H12V12.6667C12 12.8556 11.936 13.014 11.808 13.142C11.68 13.27 11.5218 13.3338 11.3333 13.3333H10.6667C10.4778 13.3333 10.3196 13.2693 10.192 13.1413C10.0644 13.0133 10.0004 12.8551 10 12.6667ZM7 6.33334C6.72222 6.33334 6.48622 6.23623 6.292 6.042C6.09778 5.84778 6.00044 5.61156 6 5.33334C5.99956 5.05511 6.09689 4.81911 6.292 4.62534C6.48711 4.43156 6.72311 4.33423 7 4.33334C7.27689 4.33245 7.51311 4.42978 7.70867 4.62534C7.90422 4.82089 8.00133 5.05689 8 5.33334C7.99867 5.60978 7.90156 5.846 7.70867 6.042C7.51578 6.238 7.27956 6.33511 7 6.33334ZM2.33333 2.66667C1.96667 2.66667 1.65289 2.53623 1.392 2.27534C1.13111 2.01445 1.00044 1.70045 1 1.33334C0.999556 0.966227 1.13022 0.652449 1.392 0.392005C1.65378 0.13156 1.96756 0.000893393 2.33333 4.5045e-06C2.69911 -0.000884384 3.01311 0.129782 3.27533 0.392005C3.53756 0.654227 3.668 0.968004 3.66667 1.33334C3.66533 1.69867 3.53489 2.01267 3.27533 2.27534C3.01578 2.538 2.70178 2.66845 2.33333 2.66667ZM1 12.6667V8.66667H0.666667C0.477778 8.66667 0.319556 8.60267 0.192 8.47467C0.0644445 8.34667 0.000444444 8.18845 0 8V4.66667C0 4.3 0.130667 3.98623 0.392 3.72534C0.653333 3.46445 0.967111 3.33378 1.33333 3.33334H3.33333C3.7 3.33334 4.014 3.464 4.27533 3.72534C4.53667 3.98667 4.66711 4.30045 4.66667 4.66667V8C4.66667 8.18889 4.60267 8.34734 4.47467 8.47534C4.34667 8.60334 4.18844 8.66712 4 8.66667H3.66667V12.6667C3.66667 12.8556 3.60267 13.014 3.47467 13.142C3.34667 13.27 3.18844 13.3338 3 13.3333H1.66667C1.47778 13.3333 1.31956 13.2693 1.192 13.1413C1.06444 13.0133 1.00044 12.8551 1 12.6667ZM6 12.6667V10.6667C5.81111 10.6667 5.65289 10.6027 5.52533 10.4747C5.39778 10.3467 5.33378 10.1884 5.33333 10V8C5.33333 7.72223 5.43067 7.48623 5.62533 7.292C5.82 7.09778 6.056 7.00045 6.33333 7H7.66667C7.94444 7 8.18067 7.09734 8.37533 7.292C8.57 7.48667 8.66711 7.72267 8.66667 8V10C8.66667 10.1889 8.60267 10.3473 8.47467 10.4753C8.34667 10.6033 8.18844 10.6671 8 10.6667V12.6667C8 12.8556 7.936 13.014 7.808 13.142C7.68 13.27 7.52178 13.3338 7.33333 13.3333H6.66667C6.47778 13.3333 6.31956 13.2693 6.192 13.1413C6.06444 13.0133 6.00044 12.8551 6 12.6667Z" fill="#FB7185"/>
</svg>
