<svg width="18" height="20" viewBox="0 0 18 20" fill="none" xmlns="http://www.w3.org/2000/svg">
<path d="M8.7415 2.38092C10.4584 2.38092 12.0781 2.7494 13.6006 3.48637C15.1231 4.22333 16.3946 5.28828 17.415 6.68122C17.5283 6.82699 17.5648 6.95656 17.5243 7.06994C17.4838 7.18332 17.415 7.2805 17.3178 7.36149C17.2206 7.44247 17.1072 7.47892 16.9777 7.47082C16.8481 7.46272 16.7347 7.39388 16.6375 7.26431C15.7467 6.00094 14.6007 5.03318 13.1997 4.361C11.7987 3.68883 10.3126 3.35274 8.7415 3.35274C7.17039 3.35274 5.69647 3.68883 4.31973 4.361C2.94299 5.03318 1.8011 6.00094 0.894072 7.26431C0.79689 7.41008 0.683512 7.49106 0.553936 7.50726C0.42436 7.52346 0.310982 7.49106 0.2138 7.41008C0.100421 7.32909 0.0315841 7.22786 0.00728863 7.10639C-0.0170068 6.98491 0.0194364 6.85938 0.116618 6.72981C1.12083 5.35307 2.38014 4.28407 3.89456 3.52281C5.40897 2.76155 7.02462 2.38092 8.7415 2.38092ZM8.7415 4.6647C10.9281 4.6647 12.8069 5.39356 14.378 6.85128C15.9491 8.30901 16.7347 10.115 16.7347 12.2692C16.7347 13.079 16.4472 13.7552 15.8722 14.2978C15.2972 14.8404 14.5967 15.1117 13.7707 15.1117C12.9446 15.1117 12.236 14.8404 11.6448 14.2978C11.0536 13.7552 10.758 13.079 10.758 12.2692C10.758 11.7347 10.5596 11.2852 10.1628 10.9208C9.76596 10.5563 9.2922 10.3741 8.7415 10.3741C8.1908 10.3741 7.71704 10.5563 7.32022 10.9208C6.92339 11.2852 6.72498 11.7347 6.72498 12.2692C6.72498 13.8403 7.19064 15.1522 8.12196 16.205C9.05329 17.2578 10.2559 17.9948 11.7298 18.4159C11.8756 18.4645 11.9728 18.5455 12.0214 18.6589C12.07 18.7722 12.0781 18.8937 12.0457 19.0233C12.0133 19.1367 11.9485 19.2339 11.8513 19.3148C11.7541 19.3958 11.6327 19.4201 11.4869 19.3877C9.8024 18.9666 8.42566 18.1284 7.35666 16.8732C6.28766 15.6179 5.75316 14.0832 5.75316 12.2692C5.75316 11.4593 6.0447 10.779 6.6278 10.2283C7.21089 9.67765 7.91545 9.4023 8.7415 9.4023C9.56754 9.4023 10.2721 9.67765 10.8552 10.2283C11.4383 10.779 11.7298 11.4593 11.7298 12.2692C11.7298 12.8037 11.9323 13.2531 12.3372 13.6176C12.7421 13.982 13.22 14.1642 13.7707 14.1642C14.3214 14.1642 14.7911 13.982 15.1798 13.6176C15.5685 13.2531 15.7629 12.8037 15.7629 12.2692C15.7629 10.3903 15.0745 8.81112 13.6978 7.53156C12.321 6.252 10.677 5.61222 8.76579 5.61222C6.85455 5.61222 5.21056 6.252 3.83382 7.53156C2.45708 8.81112 1.76871 10.3822 1.76871 12.2449C1.76871 12.6336 1.80515 13.1195 1.87804 13.7026C1.95092 14.2857 2.12504 14.966 2.40039 15.7434C2.44898 15.8892 2.44493 16.0188 2.38824 16.1321C2.33155 16.2455 2.23842 16.3265 2.10884 16.3751C1.97927 16.4237 1.85374 16.4196 1.73226 16.3629C1.61079 16.3063 1.52575 16.2131 1.47716 16.0835C1.23421 15.4519 1.06009 14.8242 0.954811 14.2007C0.84953 13.5771 0.79689 12.9332 0.79689 12.2692C0.79689 10.115 1.57839 8.30901 3.1414 6.85128C4.70441 5.39356 6.57111 4.6647 8.7415 4.6647ZM8.7415 -2.86102e-05C9.7781 -2.86102e-05 10.7904 0.125498 11.7784 0.376551C12.7664 0.627604 13.7221 0.987986 14.6453 1.4577C14.7911 1.53868 14.8761 1.63586 14.9004 1.74924C14.9247 1.86262 14.9125 1.976 14.8639 2.08938C14.8154 2.20276 14.7344 2.29184 14.621 2.35663C14.5076 2.42142 14.3699 2.41332 14.208 2.33233C13.3495 1.89502 12.4627 1.55893 11.5476 1.32407C10.6325 1.08922 9.69712 0.97179 8.7415 0.97179C7.80207 0.97179 6.87885 1.08112 5.97182 1.29978C5.06479 1.51844 4.19825 1.86262 3.37221 2.33233C3.24263 2.41332 3.11306 2.43357 2.98348 2.39307C2.8539 2.35258 2.75672 2.26755 2.69193 2.13797C2.62715 2.00839 2.61095 1.89097 2.64334 1.78569C2.67574 1.68041 2.75672 1.58727 2.8863 1.50629C3.79333 1.02038 4.74085 0.64785 5.72886 0.388699C6.71688 0.129547 7.72109 -2.86102e-05 8.7415 -2.86102e-05ZM8.7415 7.02135C10.2478 7.02135 11.5436 7.52751 12.6288 8.53982C13.714 9.55213 14.2566 10.7952 14.2566 12.2692C14.2566 12.4149 14.212 12.5324 14.1229 12.6214C14.0339 12.7105 13.9164 12.7551 13.7707 12.7551C13.6411 12.7551 13.5277 12.7105 13.4305 12.6214C13.3333 12.5324 13.2847 12.4149 13.2847 12.2692C13.2847 11.0544 12.8353 10.038 11.9363 9.22009C11.0374 8.40214 9.97247 7.99317 8.7415 7.99317C7.51053 7.99317 6.45368 8.40214 5.57094 9.22009C4.68821 10.038 4.24684 11.0544 4.24684 12.2692C4.24684 13.5811 4.4736 14.6947 4.92711 15.6098C5.38063 16.5249 6.0447 17.4441 6.91934 18.3673C7.01652 18.4645 7.06511 18.5779 7.06511 18.7075C7.06511 18.837 7.01652 18.9504 6.91934 19.0476C6.82216 19.1448 6.70878 19.1934 6.5792 19.1934C6.44963 19.1934 6.33625 19.1448 6.23907 19.0476C5.28345 18.0434 4.55054 17.0189 4.04033 15.9742C3.53013 14.9295 3.27503 13.6945 3.27503 12.2692C3.27503 10.7952 3.80952 9.55213 4.87852 8.53982C5.94752 7.52751 7.23518 7.02135 8.7415 7.02135ZM8.7172 11.7833C8.86298 11.7833 8.9804 11.8318 9.06949 11.929C9.15857 12.0262 9.20311 12.1396 9.20311 12.2692C9.20311 13.4839 9.64043 14.4801 10.5151 15.2575C11.3897 16.035 12.4101 16.4237 13.5763 16.4237C13.6735 16.4237 13.8111 16.4156 13.9893 16.3994C14.1675 16.3832 14.3537 16.3589 14.5481 16.3265C14.6939 16.2941 14.8194 16.3144 14.9247 16.3872C15.03 16.4601 15.0988 16.5695 15.1312 16.7152C15.1636 16.8448 15.1393 16.9582 15.0583 17.0554C14.9773 17.1525 14.872 17.2173 14.7425 17.2497C14.4509 17.3307 14.1958 17.3753 13.9772 17.3834C13.7585 17.3915 13.6249 17.3955 13.5763 17.3955C12.1348 17.3955 10.8835 16.9096 9.82265 15.9378C8.76174 14.966 8.23129 13.7431 8.23129 12.2692C8.23129 12.1396 8.27584 12.0262 8.36492 11.929C8.454 11.8318 8.57143 11.7833 8.7172 11.7833Z" fill="white"/>
</svg>
