<svg width="14" height="11" viewBox="0 0 14 11" fill="none" xmlns="http://www.w3.org/2000/svg">
<path d="M1.33333 10.6667C0.966667 10.6667 0.652889 10.5362 0.392 10.2753C0.131111 10.0144 0.000444444 9.70044 0 9.33333V1.33333C0 0.966667 0.130667 0.652889 0.392 0.392C0.653333 0.131111 0.967111 0.000444444 1.33333 0H4.78333C4.96111 0 5.13067 0.0333334 5.292 0.1C5.45333 0.166667 5.59489 0.261111 5.71667 0.383333L6.66667 1.33333H12C12.3667 1.33333 12.6807 1.464 12.942 1.72533C13.2033 1.98667 13.3338 2.30044 13.3333 2.66667V9.33333C13.3333 9.7 13.2029 10.014 12.942 10.2753C12.6811 10.5367 12.3671 10.6671 12 10.6667H1.33333ZM1.33333 9.33333H12V2.66667H6.11667L4.78333 1.33333H1.33333V9.33333ZM6 8.66667H11.3333V8.3C11.3333 7.8 11.0889 7.40289 10.6 7.10867C10.1111 6.81444 9.46667 6.66711 8.66667 6.66667C7.86667 6.66622 7.22222 6.81356 6.73333 7.10867C6.24444 7.40378 6 7.80089 6 8.3V8.66667ZM8.66667 6C9.03333 6 9.34733 5.86956 9.60867 5.60867C9.87 5.34778 10.0004 5.03378 10 4.66667C9.99956 4.29956 9.86911 3.98578 9.60867 3.72533C9.34822 3.46489 9.03422 3.33422 8.66667 3.33333C8.29911 3.33244 7.98533 3.46311 7.72533 3.72533C7.46533 3.98756 7.33467 4.30133 7.33333 4.66667C7.332 5.032 7.46267 5.346 7.72533 5.60867C7.988 5.87133 8.30178 6.00178 8.66667 6Z" fill="#D46211"/>
</svg>
