<svg width="15" height="11" viewBox="0 0 15 11" fill="none" xmlns="http://www.w3.org/2000/svg">
<path d="M1.33333 10.6667C0.966667 10.6667 0.652889 10.5362 0.392 10.2753C0.131111 10.0144 0.000444444 9.70044 0 9.33333V1.33333C0 0.966667 0.130667 0.652889 0.392 0.392C0.653333 0.131111 0.967111 0.000444444 1.33333 0H5.33333L6.66667 1.33333H12C12.3667 1.33333 12.6807 1.464 12.942 1.72533C13.2033 1.98667 13.3338 2.30044 13.3333 2.66667H1.33333V9.33333L2.93333 4H14.3333L12.6167 9.71667C12.5278 10.0056 12.364 10.2362 12.1253 10.4087C11.8867 10.5811 11.6227 10.6671 11.3333 10.6667H1.33333Z" fill="#D46211"/>
</svg>
