<svg width="16" height="15" viewBox="0 0 16 15" fill="none" xmlns="http://www.w3.org/2000/svg">
<path d="M9.13961 0.695286C8.9962 0.498 8.81173 0.334146 8.5989 0.21501C8.38608 0.0958747 8.14996 0.024289 7.90681 0.00518478C7.66365 -0.0139195 7.41925 0.0199118 7.19043 0.104348C6.96161 0.188784 6.75382 0.321818 6.58136 0.494286L3.9826 3.09304C3.80604 3.26953 3.67084 3.483 3.58674 3.71806C3.50265 3.95312 3.47175 4.20391 3.49629 4.45235C3.52083 4.7008 3.60018 4.9407 3.72863 5.15477C3.85708 5.36884 4.03143 5.55174 4.23911 5.69029L5.74661 6.69454L0.591855 11.7518C0.40897 11.924 0.262409 12.1311 0.160811 12.3609C0.0592119 12.5907 0.0046303 12.8384 0.000282021 13.0896C-0.00406626 13.3408 0.0419068 13.5903 0.135492 13.8235C0.229077 14.0566 0.368382 14.2687 0.545196 14.4471C0.722011 14.6256 0.932759 14.7669 1.16502 14.8626C1.39728 14.9584 1.64636 15.0067 1.89758 15.0046C2.14879 15.0026 2.39707 14.9504 2.62777 14.8509C2.85846 14.7514 3.06692 14.6068 3.24086 14.4255L8.39486 9.27154L9.30686 10.704C9.44245 10.9174 9.62424 11.0975 9.8388 11.2312C10.0534 11.3648 10.2952 11.4486 10.5465 11.4762C10.7978 11.5039 11.052 11.4747 11.2905 11.3909C11.529 11.3071 11.7456 11.1708 11.9244 10.992L14.5014 8.41504C14.6738 8.24258 14.8069 8.03478 14.8913 7.80596C14.9757 7.57714 15.0096 7.33274 14.9905 7.08959C14.9714 6.84643 14.8998 6.61031 14.7806 6.39749C14.6615 6.18467 14.4976 6.0002 14.3004 5.85679L11.3844 3.73579C11.337 3.70063 11.295 3.65868 11.2599 3.61129L9.13961 0.695286ZM7.37711 1.28929C7.43462 1.23195 7.50387 1.18776 7.58008 1.15973C7.6563 1.1317 7.73769 1.12051 7.81864 1.12693C7.8996 1.13334 7.9782 1.15721 8.04906 1.19688C8.11991 1.23656 8.18134 1.29111 8.2291 1.35679L8.57411 1.83079L5.33561 5.06779L4.8631 4.75279C4.79392 4.7066 4.73584 4.64564 4.69305 4.57431C4.65026 4.50298 4.62383 4.42304 4.61565 4.34026C4.60747 4.25748 4.61776 4.17391 4.64576 4.09559C4.67377 4.01726 4.7188 3.94612 4.77761 3.88729L7.37711 1.28929ZM6.28961 5.70529L9.24386 2.75179L10.3501 4.27279C10.4551 4.41629 10.5791 4.54054 10.7221 4.64554L12.1921 5.71279L9.30311 8.60104L8.51261 7.35829C8.38653 7.16017 8.22049 6.99056 8.02511 6.86029L6.28961 5.70529ZM9.92111 9.57454L13.1124 6.38329L13.6389 6.76579C13.7048 6.81354 13.7595 6.87504 13.7994 6.94603C13.8392 7.01702 13.8632 7.09581 13.8696 7.17696C13.876 7.25811 13.8647 7.33968 13.8366 7.41605C13.8084 7.49242 13.7639 7.56176 13.7064 7.61929L11.1286 10.1963C11.0691 10.2559 10.9969 10.3013 10.9175 10.3293C10.8381 10.3572 10.7534 10.367 10.6696 10.3579C10.5859 10.3487 10.5053 10.3209 10.4338 10.2765C10.3623 10.232 10.3016 10.1721 10.2564 10.101L9.92111 9.57454ZM7.7761 8.29954L2.44511 13.6305C2.37533 13.7045 2.2914 13.7636 2.19829 13.8044C2.10518 13.8452 2.00482 13.8669 1.90317 13.8681C1.80151 13.8693 1.70066 13.85 1.60661 13.8114C1.51257 13.7728 1.42725 13.7157 1.35575 13.6434C1.28424 13.5712 1.22801 13.4853 1.19041 13.3908C1.15281 13.2964 1.1346 13.1953 1.13688 13.0937C1.13915 12.9921 1.16185 12.8919 1.20364 12.7993C1.24543 12.7066 1.30544 12.6233 1.38011 12.5543L6.70211 7.33204L7.39961 7.79704C7.46487 7.84058 7.52031 7.89729 7.56236 7.96354L7.7761 8.29954ZM9.59711 12.7103C9.44792 12.7103 9.30485 12.7695 9.19936 12.875C9.09387 12.9805 9.03461 13.1236 9.03461 13.2728C9.03461 13.422 9.09387 13.565 9.19936 13.6705C9.30485 13.776 9.44792 13.8353 9.59711 13.8353H8.09711C7.94792 13.8353 7.80485 13.8945 7.69936 14C7.59387 14.1055 7.53461 14.2486 7.53461 14.3978C7.53461 14.547 7.59387 14.69 7.69936 14.7955C7.80485 14.901 7.94792 14.9603 8.09711 14.9603H14.4721C14.6213 14.9603 14.7644 14.901 14.8699 14.7955C14.9753 14.69 15.0346 14.547 15.0346 14.3978C15.0346 14.2486 14.9753 14.1055 14.8699 14C14.7644 13.8945 14.6213 13.8353 14.4721 13.8353H12.9721C13.1213 13.8353 13.2644 13.776 13.3699 13.6705C13.4753 13.565 13.5346 13.422 13.5346 13.2728C13.5346 13.1236 13.4753 12.9805 13.3699 12.875C13.2644 12.7695 13.1213 12.7103 12.9721 12.7103H9.59711Z" fill="#FF6600"/>
</svg>
