<svg width="16" height="16" viewBox="0 0 16 16" fill="none" xmlns="http://www.w3.org/2000/svg">
<path d="M5.86972 0.576784C6.07328 0.373185 6.31901 0.216707 6.5896 0.11838C6.86019 0.0200524 7.14905 -0.0177316 7.43583 0.0076906C7.72261 0.0331128 8.00032 0.121123 8.2494 0.265517C8.49847 0.409911 8.71284 0.607177 8.87741 0.843409L9.14966 1.23435L4.22778 6.15622L3.9291 5.97735C3.67256 5.82341 3.45448 5.61303 3.29143 5.36219C3.12838 5.11135 3.02464 4.82665 2.98809 4.52971C2.95154 4.23277 2.98315 3.93141 3.08051 3.64852C3.17787 3.36563 3.33842 3.10865 3.54997 2.8971L5.86972 0.576784ZM5.22228 6.75303L7.0656 7.85891C7.14435 7.90672 7.21072 7.97253 7.25853 8.05185L8.25866 9.7191L12.7193 5.25903L11.1713 4.08678C11.1242 4.05126 11.083 4.00855 11.0492 3.96022L9.80328 2.17203L5.22228 6.75303ZM9.16878 11.2356L8.85547 10.7136L13.6243 5.94472L14.3443 6.49035C14.5725 6.66328 14.7601 6.88388 14.8942 7.13677C15.0283 7.38966 15.1057 7.66875 15.1209 7.95459C15.1361 8.24044 15.0888 8.52616 14.9823 8.79185C14.8757 9.05754 14.7126 9.29681 14.5041 9.49297L12.2063 11.6563C11.9921 11.8579 11.7354 12.009 11.4552 12.0984C11.1749 12.1877 10.8782 12.2132 10.5869 12.1728C10.2955 12.1325 10.0169 12.0273 9.77146 11.8651C9.52606 11.7029 9.32012 11.4878 9.16878 11.2356ZM5.26053 8.08785L0.390971 12.8691C0.142281 13.1155 0.0016495 13.4506 1.4418e-05 13.8006C-0.00162066 14.1507 0.135874 14.4871 0.382252 14.7358C0.62863 14.9844 0.963709 15.1251 1.31377 15.1267C1.66384 15.1283 2.00022 14.9908 2.24891 14.7445L7.06953 9.92385L6.36641 8.75103L5.26053 8.08785ZM9.00228 13.4277C8.8531 13.4277 8.71002 13.4869 8.60454 13.5924C8.49905 13.6979 8.43978 13.841 8.43978 13.9902C8.43978 14.1393 8.49905 14.2824 8.60454 14.3879C8.71002 14.4934 8.8531 14.5527 9.00228 14.5527H7.87728C7.7281 14.5527 7.58502 14.6119 7.47954 14.7174C7.37405 14.8229 7.31478 14.966 7.31478 15.1152C7.31478 15.2643 7.37405 15.4074 7.47954 15.5129C7.58502 15.6184 7.7281 15.6777 7.87728 15.6777H14.2521C14.4013 15.6777 14.5444 15.6184 14.6498 15.5129C14.7553 15.4074 14.8146 15.2643 14.8146 15.1152C14.8146 14.966 14.7553 14.8229 14.6498 14.7174C14.5444 14.6119 14.4013 14.5527 14.2521 14.5527H12.9398C13.089 14.5527 13.232 14.4934 13.3375 14.3879C13.443 14.2824 13.5023 14.1393 13.5023 13.9902C13.5023 13.841 13.443 13.6979 13.3375 13.5924C13.232 13.4869 13.089 13.4277 12.9398 13.4277H9.00228Z" fill="#34D399"/>
</svg>
