<svg width="14" height="14" viewBox="0 0 14 14" fill="none" xmlns="http://www.w3.org/2000/svg">
<path d="M5.21753 0.512697C5.39847 0.33172 5.6169 0.192628 5.85742 0.105226C6.09795 0.0178244 6.35471 -0.0157614 6.60963 0.00683609C6.86454 0.0294336 7.1114 0.107664 7.3328 0.236015C7.55419 0.364366 7.74475 0.539712 7.89103 0.749697L8.13303 1.0972L3.75803 5.4722L3.49253 5.3132C3.2645 5.17636 3.07065 4.98936 2.92572 4.76639C2.78078 4.54342 2.68857 4.29035 2.65608 4.02641C2.62359 3.76247 2.65169 3.49459 2.73823 3.24313C2.82477 2.99167 2.96749 2.76324 3.15553 2.5752L5.21753 0.512697ZM4.64203 6.0027L6.28053 6.9857C6.35053 7.0282 6.40953 7.0867 6.45203 7.1572L7.34103 8.6392L11.306 4.6747L9.93003 3.6327C9.88819 3.60112 9.85157 3.56315 9.82153 3.5202L8.71403 1.9307L4.64203 6.0027ZM8.15003 9.9872L7.87153 9.5232L12.1105 5.2842L12.7505 5.7692C12.9533 5.92292 13.1201 6.11901 13.2393 6.3438C13.3585 6.56858 13.4273 6.81666 13.4408 7.07075C13.4543 7.32483 13.4123 7.57881 13.3176 7.81498C13.2229 8.05115 13.0778 8.26383 12.8925 8.4382L10.85 10.3612C10.6596 10.5404 10.4315 10.6747 10.1824 10.7541C9.93327 10.8335 9.66953 10.8562 9.41053 10.8203C9.15154 10.7844 8.90387 10.691 8.68574 10.5468C8.46761 10.4026 8.28455 10.2114 8.15003 9.9872ZM4.67603 7.1892L0.34753 11.4392C0.126472 11.6582 0.00146622 11.956 1.2816e-05 12.2672C-0.00144059 12.5784 0.120777 12.8774 0.33978 13.0984C0.558782 13.3195 0.85663 13.4445 1.1678 13.446C1.47897 13.4474 1.77797 13.3252 1.99903 13.1062L6.28403 8.8212L5.65903 7.7787L4.67603 7.1892ZM8.00203 11.9357C7.86942 11.9357 7.74224 11.9884 7.64848 12.0821C7.55471 12.1759 7.50203 12.3031 7.50203 12.4357C7.50203 12.5683 7.55471 12.6955 7.64848 12.7893C7.74224 12.883 7.86942 12.9357 8.00203 12.9357H7.00203C6.86942 12.9357 6.74224 12.9884 6.64848 13.0821C6.55471 13.1759 6.50203 13.3031 6.50203 13.4357C6.50203 13.5683 6.55471 13.6955 6.64848 13.7893C6.74224 13.883 6.86942 13.9357 7.00203 13.9357H12.6685C12.8011 13.9357 12.9283 13.883 13.0221 13.7893C13.1159 13.6955 13.1685 13.5683 13.1685 13.4357C13.1685 13.3031 13.1159 13.1759 13.0221 13.0821C12.9283 12.9884 12.8011 12.9357 12.6685 12.9357H11.502C11.6346 12.9357 11.7618 12.883 11.8556 12.7893C11.9494 12.6955 12.002 12.5683 12.002 12.4357C12.002 12.3031 11.9494 12.1759 11.8556 12.0821C11.7618 11.9884 11.6346 11.9357 11.502 11.9357H8.00203Z" fill="#FB923C"/>
</svg>
