<svg width="21" height="22" viewBox="0 0 21 22" fill="none" xmlns="http://www.w3.org/2000/svg">
<path d="M14.2932 6.29512C14.205 6.29476 14.1177 6.27689 14.0365 6.24256C13.9552 6.20823 13.8816 6.15811 13.8198 6.09512L8.8665 1.14179C8.74185 1.01448 8.67288 0.842877 8.67475 0.664718C8.67663 0.486558 8.7492 0.31644 8.8765 0.191789C9.00381 0.0671369 9.17542 -0.0018381 9.35357 3.72649e-05C9.53173 0.00191263 9.70185 0.0744848 9.8265 0.201789L14.7865 5.15512C14.9107 5.28003 14.9804 5.449 14.9804 5.62512C14.9804 5.80125 14.9107 5.97021 14.7865 6.09512C14.7224 6.16056 14.6455 6.21209 14.5607 6.2465C14.4758 6.28091 14.3847 6.29746 14.2932 6.29512ZM5.61984 14.9618C5.44494 14.9611 5.27734 14.8916 5.15317 14.7685L0.193169 9.81512C0.13101 9.75165 0.0819614 9.67656 0.0488238 9.59413C0.0156861 9.5117 -0.000891627 9.42355 3.69589e-05 9.33472C0.00191232 9.15531 0.0749811 8.98399 0.203169 8.85846C0.331357 8.73292 0.504164 8.66345 0.683573 8.66532C0.772408 8.66625 0.86019 8.68467 0.941907 8.71952C1.02362 8.75438 1.09768 8.80498 1.15984 8.86846L6.11317 13.8218C6.20719 13.915 6.27131 14.0342 6.29736 14.164C6.3234 14.2938 6.31019 14.4285 6.25942 14.5508C6.20864 14.6731 6.12259 14.7775 6.01224 14.8507C5.9019 14.9239 5.77225 14.9626 5.63984 14.9618H5.61984ZM12.2532 19.7685L12.5865 20.9485C12.6099 21.0358 12.613 21.1274 12.5956 21.2161C12.5781 21.3049 12.5406 21.3885 12.486 21.4605C12.4313 21.5326 12.3609 21.5912 12.2801 21.6318C12.1993 21.6725 12.1103 21.6941 12.0198 21.6951H0.939836C0.849397 21.6941 0.760383 21.6725 0.679594 21.6318C0.598805 21.5912 0.528382 21.5326 0.473704 21.4605C0.419027 21.3885 0.381544 21.3049 0.36412 21.2161C0.346695 21.1274 0.34979 21.0358 0.373169 20.9485L0.713169 19.7685C0.775663 19.558 0.905243 19.3737 1.08217 19.2438C1.25909 19.1138 1.47365 19.0452 1.69317 19.0485H11.2665C11.4866 19.0459 11.7017 19.1147 11.8795 19.2444C12.0574 19.3742 12.1884 19.558 12.2532 19.7685ZM19.9532 17.8218L10.7798 8.74179L12.7798 6.74179L8.17317 2.10179L2.21317 8.06179L6.83317 12.6885L8.97317 10.5551L18.1332 19.6218C18.2519 19.7411 18.3932 19.8356 18.5489 19.8997C18.7046 19.9638 18.8715 19.9963 19.0398 19.9951C19.2927 19.9976 19.5406 19.9248 19.7519 19.7859C19.9632 19.647 20.1284 19.4483 20.2264 19.2152C20.3243 18.982 20.3507 18.725 20.302 18.4769C20.2534 18.2287 20.1319 18.0007 19.9532 17.8218Z" fill="#FF6600"/>
</svg>
