<svg width="14" height="14" viewBox="0 0 14 14" fill="none" xmlns="http://www.w3.org/2000/svg">
<path d="M8.12409 0.618032C7.99662 0.442667 7.83265 0.297019 7.64347 0.19112C7.45429 0.085222 7.24441 0.0215903 7.02827 0.00460869C6.81214 -0.0123729 6.59489 0.0176994 6.39149 0.0927536C6.1881 0.167808 6.00339 0.28606 5.85009 0.439365L3.54009 2.74937C3.38315 2.90625 3.26297 3.096 3.18822 3.30495C3.11346 3.51389 3.086 3.73681 3.10781 3.95765C3.12962 4.17849 3.20016 4.39173 3.31434 4.58202C3.42852 4.7723 3.58349 4.93488 3.76809 5.05803L5.10809 5.9507L0.526094 10.446C0.363529 10.5991 0.233253 10.7832 0.142943 10.9875C0.0526328 11.1917 0.00411582 11.4119 0.000250685 11.6352C-0.00361445 11.8585 0.0372504 12.0803 0.120437 12.2875C0.203624 12.4948 0.327451 12.6833 0.484619 12.8419C0.641788 13.0005 0.829119 13.1261 1.03557 13.2112C1.24203 13.2963 1.46343 13.3392 1.68674 13.3375C1.91004 13.3357 2.13073 13.2892 2.33579 13.2008C2.54086 13.1124 2.72615 12.9838 2.88076 12.8227L7.46209 8.24137L8.27276 9.5147C8.39329 9.70434 8.55488 9.86447 8.7456 9.98328C8.93633 10.1021 9.1513 10.1765 9.37465 10.2011C9.59801 10.2257 9.82402 10.1998 10.036 10.1253C10.248 10.0508 10.4406 9.92959 10.5994 9.7707L12.8901 7.48003C13.0434 7.32673 13.1617 7.14203 13.2367 6.93863C13.3118 6.73524 13.3418 6.51799 13.3249 6.30185C13.3079 6.08572 13.2442 5.87584 13.1383 5.68666C13.0324 5.49748 12.8868 5.33351 12.7114 5.20603L10.1194 3.3207C10.0773 3.28945 10.04 3.25216 10.0088 3.21003L8.12409 0.618032ZM6.55743 1.14603C6.60855 1.09507 6.6701 1.05578 6.73785 1.03087C6.8056 1.00596 6.87794 0.99601 6.9499 1.00171C7.02186 1.00741 7.09174 1.02863 7.15472 1.0639C7.2177 1.09917 7.2723 1.14766 7.31476 1.20603L7.62143 1.62737L4.74276 4.5047L4.32276 4.2247C4.26126 4.18364 4.20964 4.12946 4.1716 4.06605C4.13357 4.00264 4.11007 3.93159 4.1028 3.85801C4.09553 3.78442 4.10467 3.71015 4.12957 3.64052C4.15446 3.5709 4.19449 3.50766 4.24676 3.45537L6.55743 1.14603ZM5.59076 5.07137L8.21676 2.44603L9.20009 3.79803C9.29343 3.92559 9.40365 4.03603 9.53076 4.12937L10.8374 5.07803L8.26943 7.64537L7.56676 6.5407C7.45469 6.3646 7.3071 6.21383 7.13343 6.09803L5.59076 5.07137ZM8.81876 8.5107L11.6554 5.67403L12.1234 6.01403C12.182 6.05648 12.2307 6.11115 12.2661 6.17425C12.3015 6.23735 12.3228 6.30739 12.3285 6.37952C12.3342 6.45165 12.3242 6.52416 12.2992 6.59204C12.2741 6.65993 12.2346 6.72156 12.1834 6.7727L9.89209 9.06337C9.83918 9.11632 9.77505 9.15672 9.70444 9.18158C9.63383 9.20644 9.55854 9.21513 9.48412 9.207C9.4097 9.19887 9.33806 9.17414 9.27448 9.13463C9.21089 9.09511 9.157 9.04183 9.11676 8.9787L8.81876 8.5107ZM6.91209 7.37737L2.17343 12.116C2.11141 12.1818 2.0368 12.2343 1.95404 12.2706C1.87127 12.3069 1.78206 12.3261 1.6917 12.3272C1.60135 12.3283 1.5117 12.3111 1.4281 12.2768C1.3445 12.2425 1.26867 12.1917 1.20511 12.1275C1.14155 12.0633 1.09157 11.9869 1.05814 11.903C1.02472 11.819 1.00854 11.7292 1.01056 11.6388C1.01258 11.5485 1.03276 11.4595 1.0699 11.3771C1.10705 11.2947 1.16039 11.2207 1.22676 11.1594L5.95743 6.51737L6.57743 6.9307C6.63544 6.9694 6.68472 7.01982 6.72209 7.0787L6.91209 7.37737ZM8.53076 11.298C8.39815 11.298 8.27098 11.3507 8.17721 11.4445C8.08344 11.5382 8.03076 11.6654 8.03076 11.798C8.03076 11.9306 8.08344 12.0578 8.17721 12.1516C8.27098 12.2454 8.39815 12.298 8.53076 12.298H7.19743C7.06482 12.298 6.93764 12.3507 6.84387 12.4445C6.75011 12.5382 6.69743 12.6654 6.69743 12.798C6.69743 12.9306 6.75011 13.0578 6.84387 13.1516C6.93764 13.2454 7.06482 13.298 7.19743 13.298H12.8641C12.9967 13.298 13.1239 13.2454 13.2176 13.1516C13.3114 13.0578 13.3641 12.9306 13.3641 12.798C13.3641 12.6654 13.3114 12.5382 13.2176 12.4445C13.1239 12.3507 12.9967 12.298 12.8641 12.298H11.5308C11.6634 12.298 11.7905 12.2454 11.8843 12.1516C11.9781 12.0578 12.0308 11.9306 12.0308 11.798C12.0308 11.6654 11.9781 11.5382 11.8843 11.4445C11.7905 11.3507 11.6634 11.298 11.5308 11.298H8.53076Z" fill="#B9AB9D"/>
</svg>
