<svg width="21" height="21" viewBox="0 0 21 21" fill="none" xmlns="http://www.w3.org/2000/svg">
<path d="M7.82629 0.769046C8.0977 0.49758 8.42535 0.288943 8.78613 0.15784C9.14692 0.0267366 9.53207 -0.0236421 9.91444 0.0102541C10.2968 0.0441504 10.6671 0.161497 10.9992 0.354023C11.3313 0.546549 11.6171 0.809569 11.8365 1.12455L12.1995 1.6458L5.63704 8.2083L5.23879 7.9698C4.89675 7.76454 4.60598 7.48404 4.38857 7.14959C4.17117 6.81513 4.03285 6.43553 3.98412 6.03962C3.93539 5.6437 3.97753 5.24189 4.10734 4.8647C4.23716 4.48751 4.45123 4.14486 4.73329 3.8628L7.82629 0.769046ZM6.96304 9.00405L9.4208 10.4785C9.52579 10.5423 9.6143 10.63 9.67804 10.7358L11.0115 12.9588L16.959 7.01205L14.895 5.44905C14.8323 5.40167 14.7774 5.34473 14.7323 5.2803L13.071 2.89605L6.96304 9.00405ZM12.225 14.9808L11.8073 14.2848L18.1658 7.9263L19.1258 8.6538C19.4299 8.88438 19.6801 9.17851 19.859 9.51569C20.0378 9.85288 20.1409 10.225 20.1612 10.6061C20.1815 10.9873 20.1184 11.3682 19.9764 11.7225C19.8343 12.0767 19.6168 12.3957 19.3388 12.6573L16.275 15.5418C15.9894 15.8106 15.6472 16.012 15.2736 16.1312C14.8999 16.2503 14.5043 16.2842 14.1158 16.2304C13.7273 16.1766 13.3558 16.0364 13.0286 15.8202C12.7014 15.6039 12.4268 15.3171 12.225 14.9808ZM7.01404 10.7838L0.521295 17.1588C0.189708 17.4873 0.00219933 17.9341 1.9224e-05 18.4008C-0.00216089 18.8676 0.181166 19.3161 0.50967 19.6477C0.838173 19.9793 1.28494 20.1668 1.7517 20.1689C2.21845 20.1711 2.66696 19.9878 2.99854 19.6593L9.42604 13.2318L8.48854 11.668L7.01404 10.7838ZM12.003 17.9035C11.8041 17.9035 11.6134 17.9826 11.4727 18.1232C11.3321 18.2639 11.253 18.4546 11.253 18.6535C11.253 18.8525 11.3321 19.0432 11.4727 19.1839C11.6134 19.3245 11.8041 19.4035 12.003 19.4035H10.503C10.3041 19.4035 10.1134 19.4826 9.97271 19.6232C9.83206 19.7639 9.75305 19.9546 9.75305 20.1535C9.75305 20.3525 9.83206 20.5432 9.97271 20.6839C10.1134 20.8245 10.3041 20.9035 10.503 20.9035H19.0028C19.2017 20.9035 19.3925 20.8245 19.5331 20.6839C19.6738 20.5432 19.7528 20.3525 19.7528 20.1535C19.7528 19.9546 19.6738 19.7639 19.5331 19.6232C19.3925 19.4826 19.2017 19.4035 19.0028 19.4035H17.253C17.452 19.4035 17.6427 19.3245 17.7834 19.1839C17.924 19.0432 18.003 18.8525 18.003 18.6535C18.003 18.4546 17.924 18.2639 17.7834 18.1232C17.6427 17.9826 17.452 17.9035 17.253 17.9035H12.003Z" fill="#F8E481"/>
</svg>
