<svg width="13" height="13" viewBox="0 0 13 13" fill="none" xmlns="http://www.w3.org/2000/svg">
<path d="M3.55269 2.62516C3.42726 2.75049 3.33116 2.90207 3.27131 3.06899C3.21146 3.2359 3.18935 3.41401 3.20656 3.59049C3.22377 3.76698 3.27988 3.93745 3.37086 4.08966C3.46183 4.24187 3.5854 4.37202 3.73269 4.47076L5.14549 5.41716L0.463091 10.0996C0.316273 10.2464 0.199811 10.4207 0.120353 10.6125C0.0408962 10.8043 1.54698e-09 11.0099 0 11.2176C-1.54698e-09 11.4252 0.0408962 11.6308 0.120353 11.8226C0.199811 12.0144 0.316273 12.1887 0.463091 12.3356C0.609909 12.4824 0.784207 12.5988 0.976034 12.6783C1.16786 12.7578 1.37346 12.7986 1.58109 12.7986C1.78872 12.7986 1.99432 12.7578 2.18615 12.6783C2.37797 12.5988 2.55227 12.4824 2.69909 12.3356L7.38149 7.65316L8.32789 9.06676C8.42663 9.21405 8.55678 9.33762 8.70899 9.42859C8.8612 9.51956 9.03167 9.57568 9.20816 9.59289C9.38464 9.6101 9.56274 9.58799 9.72966 9.52814C9.89658 9.46829 10.0482 9.37219 10.1735 9.24676L12.4455 6.97476C12.5687 6.85185 12.6636 6.70364 12.7238 6.54038C12.784 6.37712 12.8079 6.20273 12.794 6.0293C12.7801 5.85586 12.7286 5.68752 12.6431 5.53596C12.5577 5.3844 12.4403 5.25323 12.2991 5.15156L9.64709 3.24196C9.61224 3.21662 9.58172 3.18583 9.55669 3.15076L7.64709 0.498758C7.54547 0.357641 7.41439 0.240296 7.26293 0.154849C7.11147 0.069403 6.94325 0.0178963 6.76992 0.00389562C6.59658 -0.0101051 6.42228 0.0137348 6.25907 0.0737647C6.09586 0.133795 5.94764 0.22858 5.82469 0.351558L3.55269 2.62516ZM6.92789 6.97556L2.13349 11.77C1.98504 11.9065 1.78956 11.9803 1.58792 11.9761C1.38628 11.9718 1.19409 11.8898 1.05152 11.7471C0.908962 11.6045 0.827067 11.4122 0.822961 11.2106C0.818855 11.0089 0.892855 10.8135 1.02949 10.6652L5.82229 5.87076L6.41829 6.27076C6.46162 6.2998 6.49885 6.33703 6.52789 6.38036L6.92789 6.97556ZM4.17829 3.80676C4.12906 3.77386 4.08775 3.73044 4.05733 3.67963C4.02692 3.62882 4.00817 3.5719 4.00243 3.51297C3.99669 3.45403 4.0041 3.39456 4.02414 3.33884C4.04418 3.28312 4.07633 3.23254 4.11829 3.19076L6.39029 0.918758C6.43121 0.877615 6.48058 0.845865 6.535 0.825713C6.58941 0.805561 6.64755 0.797488 6.7054 0.802055C6.76324 0.806621 6.8194 0.823718 6.86998 0.852159C6.92055 0.8806 6.96434 0.919704 6.99829 0.966758L7.45269 1.59876L4.81669 4.23316L4.17829 3.80676ZM5.49349 4.68676L7.92549 2.25476L8.90789 3.61796C8.98334 3.72266 9.07519 3.81451 9.17989 3.88996L10.5439 4.87236L8.11189 7.30436L7.19269 5.93476C7.10581 5.80484 6.99439 5.69315 6.86469 5.60596L5.49349 4.68676ZM11.2015 5.34596L11.8311 5.80036C11.8781 5.83425 11.9171 5.87795 11.9455 5.92842C11.974 5.9789 11.9911 6.03494 11.9957 6.09269C12.0004 6.15043 11.9924 6.20849 11.9724 6.26286C11.9524 6.31722 11.9209 6.36659 11.8799 6.40756L9.60789 8.68036C9.56611 8.72231 9.51553 8.75447 9.45981 8.77451C9.40409 8.79454 9.34462 8.80196 9.28568 8.79622C9.22675 8.79048 9.16982 8.77173 9.11902 8.74131C9.06821 8.7109 9.02479 8.66959 8.99189 8.62036L8.56549 7.98196L11.2015 5.34596ZM8.00069 11.5988C8.00069 11.4927 8.04283 11.3909 8.11785 11.3159C8.19286 11.2409 8.2946 11.1988 8.40069 11.1988H10.8007C10.9068 11.1988 11.0085 11.2409 11.0835 11.3159C11.1585 11.3909 11.2007 11.4927 11.2007 11.5988C11.2007 11.7048 11.1585 11.8066 11.0835 11.8816C11.0085 11.9566 10.9068 11.9988 10.8007 11.9988H12.4007C12.5068 11.9988 12.6085 12.0409 12.6835 12.1159C12.7585 12.1909 12.8007 12.2927 12.8007 12.3988C12.8007 12.5048 12.7585 12.6066 12.6835 12.6816C12.6085 12.7566 12.5068 12.7988 12.4007 12.7988H6.80069C6.6946 12.7988 6.59286 12.7566 6.51785 12.6816C6.44283 12.6066 6.40069 12.5048 6.40069 12.3988C6.40069 12.2927 6.44283 12.1909 6.51785 12.1159C6.59286 12.0409 6.6946 11.9988 6.80069 11.9988H8.40069C8.2946 11.9988 8.19286 11.9566 8.11785 11.8816C8.04283 11.8066 8.00069 11.7048 8.00069 11.5988Z" fill="#C084FC"/>
</svg>
