<svg width="16" height="16" viewBox="0 0 16 16" fill="none" xmlns="http://www.w3.org/2000/svg">
<path d="M8.00015 12C9.48904 12 10.7502 11.4807 11.7835 10.442C12.8168 9.40333 13.3335 8.14489 13.3335 6.66667C13.3335 6.32222 13.3057 5.99178 13.2502 5.67533C13.1946 5.35889 13.1057 5.05044 12.9835 4.75C12.6835 4.93889 12.3668 5.08333 12.0335 5.18333C11.7002 5.28333 11.3557 5.33333 11.0002 5.33333C10.4002 5.33333 9.83637 5.19733 9.30882 4.92533C8.78126 4.65333 8.34504 4.26711 8.00015 3.76667C7.65571 4.26667 7.21949 4.65289 6.69149 4.92533C6.16349 5.19778 5.59971 5.33378 5.00015 5.33333C4.6446 5.33333 4.30015 5.28333 3.96682 5.18333C3.63349 5.08333 3.31682 4.93889 3.01682 4.75C2.8946 5.05 2.80571 5.35844 2.75015 5.67533C2.6946 5.99222 2.66682 6.32267 2.66682 6.66667C2.66682 8.14444 3.18637 9.40289 4.22549 10.442C5.2646 11.4811 6.52282 12.0004 8.00015 12ZM6.00015 8.16667C6.23349 8.16667 6.43082 8.086 6.59215 7.92467C6.75349 7.76333 6.83393 7.56622 6.83349 7.33333C6.83304 7.10044 6.75237 6.90311 6.59149 6.74133C6.4306 6.57956 6.23349 6.49911 6.00015 6.5C5.76682 6.50089 5.56949 6.58156 5.40815 6.742C5.24682 6.90244 5.16637 7.09956 5.16682 7.33333C5.16726 7.56711 5.24793 7.76444 5.40882 7.92533C5.56971 8.08622 5.76682 8.16667 6.00015 8.16667ZM10.0002 8.16667C10.2335 8.16667 10.4308 8.086 10.5922 7.92467C10.7535 7.76333 10.8339 7.56622 10.8335 7.33333C10.833 7.10044 10.7524 6.90311 10.5915 6.74133C10.4306 6.57956 10.2335 6.49911 10.0002 6.5C9.76682 6.50089 9.56949 6.58156 9.40815 6.742C9.24682 6.90244 9.16637 7.09956 9.16682 7.33333C9.16726 7.56711 9.24793 7.76444 9.40882 7.92533C9.56971 8.08622 9.76682 8.16667 10.0002 8.16667ZM1.46682 14.6667C1.07793 14.6667 0.750152 14.5222 0.483485 14.2333C0.216819 13.9444 0.100152 13.6056 0.133485 13.2167L0.733485 6.63333C0.822374 5.7 1.07526 4.82778 1.49215 4.01667C1.90904 3.20556 2.44237 2.50289 3.09215 1.90867C3.74193 1.31444 4.48637 0.847778 5.32549 0.508667C6.1646 0.169556 7.05615 0 8.00015 0C8.94415 0 9.83593 0.169556 10.6755 0.508667C11.515 0.847778 12.2595 1.31444 12.9088 1.90867C13.5582 2.50289 14.0915 3.20556 14.5088 4.01667C14.9262 4.82778 15.1788 5.7 15.2668 6.63333L15.8668 13.2167C15.9002 13.6056 15.7835 13.9444 15.5168 14.2333C15.2502 14.5222 14.9224 14.6667 14.5335 14.6667H1.46682Z" fill="#C084FC"/>
</svg>
