<svg width="18" height="21" viewBox="0 0 18 21" fill="none" xmlns="http://www.w3.org/2000/svg">
<path d="M7.8 21C7.33333 21 6.896 20.9 6.488 20.7C6.08 20.5 5.734 20.2167 5.45 19.85L0 12.925L0.475 12.425C0.808334 12.075 1.20833 11.8667 1.675 11.8C2.14167 11.7333 2.575 11.825 2.975 12.075L4.825 13.2V5C4.825 4.71667 4.921 4.47933 5.113 4.288C5.305 4.09667 5.54233 4.00067 5.825 4C6.10767 3.99933 6.34933 4.09533 6.55 4.288C6.75067 4.48067 6.85067 4.718 6.85 5V16.8L4.425 15.3L7.025 18.625C7.125 18.7417 7.24167 18.8333 7.375 18.9C7.50833 18.9667 7.65 19 7.8 19H13.325C13.875 19 14.346 18.8043 14.738 18.413C15.13 18.0217 15.3257 17.5507 15.325 17V13C15.325 12.7167 15.229 12.4793 15.037 12.288C14.845 12.0967 14.6077 12.0007 14.325 12H8.85V10H14.325C15.1583 10 15.8667 10.2917 16.45 10.875C17.0333 11.4583 17.325 12.1667 17.325 13V17C17.325 18.1 16.9333 19.0417 16.15 19.825C15.3667 20.6083 14.425 21 13.325 21H7.8ZM1.5 7.5C1.28333 7.13333 1.11667 6.73767 1 6.313C0.883333 5.88833 0.825 5.45067 0.825 5C0.825 3.61667 1.31267 2.43767 2.288 1.463C3.26333 0.488334 4.44233 0.000667349 5.825 6.82594e-07C7.20767 -0.000665984 8.387 0.487001 9.363 1.463C10.339 2.439 10.8263 3.618 10.825 5C10.825 5.45 10.7667 5.88767 10.65 6.313C10.5333 6.73833 10.3667 7.134 10.15 7.5L8.425 6.5C8.55833 6.26667 8.65833 6.02933 8.725 5.788C8.79167 5.54667 8.825 5.284 8.825 5C8.825 4.16667 8.53333 3.45833 7.95 2.875C7.36667 2.29167 6.65833 2 5.825 2C4.99167 2 4.28333 2.29167 3.7 2.875C3.11667 3.45833 2.825 4.16667 2.825 5C2.825 5.28333 2.85833 5.546 2.925 5.788C2.99167 6.03 3.09167 6.26733 3.225 6.5L1.5 7.5Z" fill="#C084FC"/>
</svg>
