<svg width="18" height="18" viewBox="0 0 18 18" fill="none" xmlns="http://www.w3.org/2000/svg">
<path d="M11.5 8.75001C11.15 8.75001 10.854 8.62901 10.612 8.38701C10.37 8.14501 10.2493 7.84934 10.25 7.50001C10.2507 7.15067 10.3717 6.85467 10.613 6.61201C10.8543 6.36934 11.15 6.24867 11.5 6.25001C11.85 6.25134 12.146 6.37234 12.388 6.61301C12.63 6.85367 12.7507 7.14934 12.75 7.50001C12.7493 7.85067 12.6283 8.14667 12.387 8.38801C12.1457 8.62934 11.85 8.75001 11.5 8.75001ZM6.5 8.75001C6.15 8.75001 5.854 8.62901 5.612 8.38701C5.37 8.14501 5.24933 7.84934 5.25 7.50001C5.25067 7.15067 5.37167 6.85467 5.613 6.61201C5.85433 6.36934 6.15 6.24867 6.5 6.25001C6.85 6.25134 7.146 6.37234 7.388 6.61301C7.63 6.85367 7.75067 7.14934 7.75 7.50001C7.74933 7.85067 7.62833 8.14667 7.387 8.38801C7.14567 8.62934 6.85 8.75001 6.5 8.75001ZM9 14C8 14 7.09567 13.725 6.287 13.175C5.47833 12.625 4.88267 11.9 4.5 11H13.5C13.1167 11.9 12.521 12.625 11.713 13.175C10.905 13.725 10.0007 14 9 14ZM9 18C7.75 18 6.57933 17.7627 5.488 17.288C4.39667 16.8133 3.44667 16.1717 2.638 15.363C1.82933 14.5543 1.18767 13.6043 0.713001 12.513C0.238335 11.4217 0.000668065 10.2507 1.3986e-06 9.00001C-0.000665268 7.74934 0.237001 6.57867 0.713001 5.48801C1.189 4.39734 1.83033 3.44734 2.637 2.63801C3.44367 1.82867 4.39367 1.18701 5.487 0.713006C6.58034 0.239006 7.75133 0.00133891 9 5.5788e-06C10.2487 -0.00132775 11.4197 0.236339 12.513 0.713006C13.6063 1.18967 14.5563 1.83101 15.363 2.63701C16.1697 3.44301 16.8113 4.39301 17.288 5.48701C17.7647 6.58101 18.002 7.75201 18 9.00001C17.998 10.248 17.7607 11.419 17.288 12.513C16.8153 13.607 16.1737 14.557 15.363 15.363C14.5523 16.169 13.6023 16.8107 12.513 17.288C11.4237 17.7653 10.2527 18.0027 9 18ZM9 16C10.9333 16 12.5833 15.3167 13.95 13.95C15.3167 12.5833 16 10.9333 16 9.00001C16 7.06667 15.3167 5.41667 13.95 4.05001C12.5833 2.68334 10.9333 2.00001 9 2.00001H8.7C8.6 2.00001 8.5 2.01667 8.4 2.05001C8.3 2.15001 8.23333 2.25834 8.2 2.37501C8.16667 2.49167 8.15 2.61667 8.15 2.75001C8.15 3.10001 8.27067 3.39601 8.512 3.63801C8.75333 3.88001 9.04933 4.00067 9.4 4.00001C9.55 4.00001 9.68767 3.97501 9.813 3.92501C9.93833 3.87501 10.0673 3.85001 10.2 3.85001C10.4 3.85001 10.5667 3.92501 10.7 4.07501C10.8333 4.22501 10.9 4.40001 10.9 4.60001C10.9 4.98334 10.7207 5.22934 10.362 5.33801C10.0033 5.44667 9.68267 5.50067 9.4 5.50001C8.65 5.50001 8.00434 5.22934 7.463 4.68801C6.92167 4.14667 6.65067 3.50067 6.65 2.75001V2.60001C6.65 2.55001 6.65833 2.48334 6.675 2.40001C5.29167 2.90001 4.16667 3.74167 3.3 4.92501C2.43333 6.10834 2 7.46667 2 9.00001C2 10.9333 2.68333 12.5833 4.05 13.95C5.41667 15.3167 7.06667 16 9 16Z" fill="#EC4899"/>
</svg>
