<svg width="20" height="16" viewBox="0 0 20 16" fill="none" xmlns="http://www.w3.org/2000/svg">
<path d="M2 16C1.45 16 0.979333 15.8043 0.588 15.413C0.196667 15.0217 0.000666667 14.5507 0 14V10C0 9.71667 0.0960001 9.47933 0.288 9.288C0.48 9.09667 0.717333 9.00067 1 9H5.375L7.1 12.45C7.18333 12.6333 7.30833 12.771 7.475 12.863C7.64167 12.955 7.81667 13.0007 8 13C8.18333 12.9993 8.35833 12.9537 8.525 12.863C8.69167 12.7723 8.81667 12.6347 8.9 12.45L12 6.25L13.1 8.45C13.1833 8.63333 13.3083 8.771 13.475 8.863C13.6417 8.955 13.8167 9.00067 14 9H19C19.2833 9 19.521 9.09567 19.713 9.287C19.905 9.47833 20.0007 9.716 20 10V14C20 14.55 19.8043 15.021 19.413 15.413C19.0217 15.805 18.5507 16.0007 18 16H2ZM0 2C0 1.45 0.196 0.979333 0.588 0.588C0.98 0.196666 1.45067 0.000666667 2 0H18C18.55 0 19.021 0.196 19.413 0.588C19.805 0.98 20.0007 1.45067 20 2V6C20 6.28333 19.904 6.521 19.712 6.713C19.52 6.905 19.2827 7.00067 19 7H14.625L12.9 3.55C12.8167 3.36667 12.6917 3.23767 12.525 3.163C12.3583 3.08833 12.1833 3.05067 12 3.05C11.8167 3.04933 11.6417 3.087 11.475 3.163C11.3083 3.239 11.1833 3.368 11.1 3.55L8 9.75L6.9 7.55C6.81667 7.36667 6.69167 7.229 6.525 7.137C6.35833 7.045 6.18333 6.99933 6 7H1C0.716667 7 0.479333 6.904 0.288 6.712C0.0966668 6.52 0.000666667 6.28267 0 6V2Z" fill="#F87171"/>
</svg>
