<svg width="20" height="20" viewBox="0 0 20 20" fill="none" xmlns="http://www.w3.org/2000/svg">
<path d="M9.67361 15.5554C10.0139 15.5554 10.3015 15.438 10.5365 15.203C10.7714 14.9681 10.8889 14.6804 10.8889 14.3402C10.8889 13.9999 10.7714 13.7123 10.5365 13.4773C10.3015 13.2424 10.0139 13.1249 9.67361 13.1249C9.33333 13.1249 9.04572 13.2424 8.81076 13.4773C8.57581 13.7123 8.45833 13.9999 8.45833 14.3402C8.45833 14.6804 8.57581 14.9681 8.81076 15.203C9.04572 15.438 9.33333 15.5554 9.67361 15.5554ZM8.79861 11.8124H10.5972C10.5972 11.2777 10.658 10.8564 10.7795 10.5485C10.901 10.2406 11.2454 9.81934 11.8125 9.28461C12.2338 8.86332 12.566 8.46228 12.809 8.08149C13.0521 7.7007 13.1736 7.24295 13.1736 6.70822C13.1736 5.80082 12.8414 5.10406 12.1771 4.61795C11.5127 4.13184 10.7269 3.88878 9.81944 3.88878C8.89583 3.88878 8.14641 4.13184 7.57118 4.61795C6.99595 5.10406 6.59491 5.68739 6.36806 6.36795L7.97222 6.99989C8.05324 6.70822 8.23553 6.39225 8.5191 6.05197C8.80266 5.7117 9.23611 5.54156 9.81944 5.54156C10.338 5.54156 10.7269 5.68334 10.9861 5.96691C11.2454 6.25047 11.375 6.56239 11.375 6.90267C11.375 7.22674 11.2778 7.53056 11.0833 7.81413C10.8889 8.09769 10.6458 8.361 10.3542 8.60406C9.6412 9.236 9.2037 9.71401 9.04167 10.0381C8.87963 10.3622 8.79861 10.9536 8.79861 11.8124ZM9.72222 19.4443C8.37731 19.4443 7.11343 19.1891 5.93056 18.6787C4.74769 18.1683 3.71875 17.4756 2.84375 16.6006C1.96875 15.7256 1.27604 14.6967 0.765625 13.5138C0.255208 12.3309 0 11.067 0 9.72211C0 8.37721 0.255208 7.11332 0.765625 5.93045C1.27604 4.74758 1.96875 3.71864 2.84375 2.84364C3.71875 1.96864 4.74769 1.27593 5.93056 0.765516C7.11343 0.2551 8.37731 -0.000108719 9.72222 -0.000108719C11.0671 -0.000108719 12.331 0.2551 13.5139 0.765516C14.6968 1.27593 15.7257 1.96864 16.6007 2.84364C17.4757 3.71864 18.1684 4.74758 18.6788 5.93045C19.1892 7.11332 19.4444 8.37721 19.4444 9.72211C19.4444 11.067 19.1892 12.3309 18.6788 13.5138C18.1684 14.6967 17.4757 15.7256 16.6007 16.6006C15.7257 17.4756 14.6968 18.1683 13.5139 18.6787C12.331 19.1891 11.0671 19.4443 9.72222 19.4443ZM9.72222 17.4999C11.8935 17.4999 13.7326 16.7464 15.2396 15.2395C16.7465 13.7325 17.5 11.8934 17.5 9.72211C17.5 7.55082 16.7465 5.7117 15.2396 4.20475C13.7326 2.69781 11.8935 1.94434 9.72222 1.94434C7.55093 1.94434 5.71181 2.69781 4.20486 4.20475C2.69792 5.7117 1.94444 7.55082 1.94444 9.72211C1.94444 11.8934 2.69792 13.7325 4.20486 15.2395C5.71181 16.7464 7.55093 17.4999 9.72222 17.4999Z" fill="#B9B09D"/>
</svg>
