<svg width="18" height="21" viewBox="0 0 18 21" fill="none" xmlns="http://www.w3.org/2000/svg">
<path d="M0 20.25C0 20.4489 0.0790178 20.6397 0.21967 20.7803C0.360322 20.921 0.551088 21 0.75 21H17.25C17.4489 21 17.6397 20.921 17.7803 20.7803C17.921 20.6397 18 20.4489 18 20.25C18 20.0511 17.921 19.8603 17.7803 19.7197C17.6397 19.579 17.4489 19.5 17.25 19.5H15.75V18C15.7503 16.7265 15.3903 15.4788 14.7116 14.4012C14.0329 13.3235 13.0632 12.4599 11.9145 11.91C11.4795 11.7015 11.25 11.3445 11.25 11.025V9.975C11.25 9.6555 11.481 9.2985 11.9145 9.09C13.0632 8.54011 14.0329 7.67647 14.7116 6.59883C15.3903 5.5212 15.7503 4.27355 15.75 3V1.5H17.25C17.4489 1.5 17.6397 1.42098 17.7803 1.28033C17.921 1.13968 18 0.948912 18 0.75C18 0.551088 17.921 0.360322 17.7803 0.21967C17.6397 0.0790176 17.4489 0 17.25 0H0.75C0.551088 0 0.360322 0.0790176 0.21967 0.21967C0.0790178 0.360322 0 0.551088 0 0.75C0 0.948912 0.0790178 1.13968 0.21967 1.28033C0.360322 1.42098 0.551088 1.5 0.75 1.5H2.25V3C2.24969 4.27355 2.60968 5.5212 3.28837 6.59883C3.96707 7.67647 4.93679 8.54011 6.0855 9.09C6.5205 9.2985 6.75 9.6555 6.75 9.975V11.025C6.75 11.3445 6.519 11.7015 6.0855 11.91C4.93679 12.4599 3.96707 13.3235 3.28837 14.4012C2.60968 15.4788 2.24969 16.7265 2.25 18V19.5H0.75C0.551088 19.5 0.360322 19.579 0.21967 19.7197C0.0790178 19.8603 0 20.0511 0 20.25ZM3.75 19.5V18C3.74973 17.0094 4.02974 16.0389 4.55768 15.2007C5.08562 14.3624 5.83994 13.6907 6.7335 13.263C7.533 12.879 8.25 12.078 8.25 11.0265V9.9735C8.25 9.9735 8.52 10.125 9 10.125C9.48 10.125 9.75 9.975 9.75 9.975V11.025C9.75 12.0765 10.467 12.879 11.2665 13.263C12.1601 13.6907 12.9144 14.3624 13.4423 15.2007C13.9703 16.0389 14.2503 17.0094 14.25 18V19.5H3.75Z" fill="#FB923C"/>
</svg>
