<svg width="18" height="21" viewBox="0 0 18 21" fill="none" xmlns="http://www.w3.org/2000/svg">
<path d="M0 0.75C0 0.551088 0.0790178 0.360322 0.21967 0.21967C0.360322 0.0790176 0.551088 0 0.75 0H17.25C17.4489 0 17.6397 0.0790176 17.7803 0.21967C17.921 0.360322 18 0.551088 18 0.75C18 0.948912 17.921 1.13968 17.7803 1.28033C17.6397 1.42098 17.4489 1.5 17.25 1.5H15.75V3C15.7503 4.27355 15.3903 5.5212 14.7116 6.59883C14.0329 7.67647 13.0632 8.54011 11.9145 9.09C11.4795 9.2985 11.25 9.6555 11.25 9.975V11.025C11.25 11.3445 11.481 11.7015 11.9145 11.91C13.0632 12.4599 14.0329 13.3235 14.7116 14.4012C15.3903 15.4788 15.7503 16.7265 15.75 18V19.5H17.25C17.4489 19.5 17.6397 19.579 17.7803 19.7197C17.921 19.8603 18 20.0511 18 20.25C18 20.4489 17.921 20.6397 17.7803 20.7803C17.6397 20.921 17.4489 21 17.25 21H0.75C0.551088 21 0.360322 20.921 0.21967 20.7803C0.0790178 20.6397 0 20.4489 0 20.25C0 20.0511 0.0790178 19.8603 0.21967 19.7197C0.360322 19.579 0.551088 19.5 0.75 19.5H2.25V18C2.24969 16.7265 2.60968 15.4788 3.28837 14.4012C3.96707 13.3235 4.93679 12.4599 6.0855 11.91C6.5205 11.7015 6.75 11.3445 6.75 11.025V9.975C6.75 9.6555 6.519 9.2985 6.0855 9.09C4.93679 8.54011 3.96707 7.67647 3.28837 6.59883C2.60968 5.5212 2.24969 4.27355 2.25 3V1.5H0.75C0.551088 1.5 0.360322 1.42098 0.21967 1.28033C0.0790178 1.13968 0 0.948912 0 0.75ZM3.75 1.5V3C3.74973 3.99063 4.02974 4.96112 4.55768 5.79935C5.08562 6.63758 5.83994 7.30933 6.7335 7.737C7.533 8.121 8.25 8.9235 8.25 9.9735V11.0265C8.25 11.0265 8.52 11.25 9 11.25C9.48 11.25 9.75 11.025 9.75 11.025V9.975C9.75 8.9235 10.467 8.121 11.2665 7.737C12.1601 7.30933 12.9144 6.63758 13.4423 5.79935C13.9703 4.96112 14.2503 3.99063 14.25 3V1.5H3.75Z" fill="#FB923C"/>
</svg>
