<svg width="16" height="16" viewBox="0 0 16 16" fill="none" xmlns="http://www.w3.org/2000/svg">
<path d="M11.18 6.06C11.743 5.6525 12.2014 5.11745 12.5177 4.49866C12.8341 3.87988 12.9993 3.19496 13 2.5V2H14V0H2V2H3V2.5C2.99991 3.19255 3.16366 3.8753 3.47789 4.49245C3.79212 5.10961 4.2479 5.64367 4.808 6.051C5.14277 6.26038 5.42456 6.54436 5.63134 6.88074C5.83813 7.21711 5.96431 7.59676 6 7.99C5.95748 8.39204 5.82715 8.77983 5.61824 9.12594C5.40932 9.47206 5.12692 9.76805 4.791 9.993C4.24356 10.4001 3.79731 10.9279 3.48687 11.5354C3.17644 12.143 3.01018 12.8138 3.001 13.496V13.999H2.001V15.999H14.001V13.999H13.001V13.499C12.9933 12.8203 12.8298 12.1525 12.5231 11.547C12.2164 10.9415 11.7747 10.4147 11.232 10.007C10.893 9.78499 10.6071 9.49106 10.3945 9.1461C10.1819 8.80113 10.0479 8.41359 10.002 8.011C10.0333 7.61839 10.1552 7.23837 10.358 6.90074C10.5608 6.56311 10.8391 6.27706 11.171 6.065L11.18 6.06ZM9 8C9.03405 8.544 9.18786 9.07376 9.45045 9.5514C9.71304 10.029 10.0779 10.4428 10.519 10.763C10.9607 11.0725 11.3244 11.4804 11.5814 11.9545C11.8384 12.4286 11.9817 12.956 12 13.495V14H4V13.5C4.01637 12.9643 4.15663 12.4396 4.40976 11.9672C4.6629 11.4947 5.02203 11.0874 5.459 10.777C5.90433 10.4586 6.27346 10.0453 6.53977 9.56702C6.80608 9.08871 6.96292 8.55726 6.999 8.011C6.97134 7.47896 6.82189 6.96037 6.56217 6.4952C6.30246 6.03004 5.93941 5.63071 5.501 5.328C5.04024 5.01383 4.66278 4.59234 4.40112 4.09986C4.13946 3.60738 4.00146 3.05867 3.999 2.501V2.001H11.999V2.501C11.9977 3.05441 11.8625 3.5993 11.605 4.08913C11.3474 4.57897 10.9752 4.99922 10.52 5.314C10.0785 5.61429 9.71181 6.01187 9.44812 6.47615C9.18443 6.94042 9.03078 7.45901 8.999 7.992L9 8Z" fill="#B9AE9D"/>
</svg>
