<svg width="11" height="14" viewBox="0 0 11 14" fill="none" xmlns="http://www.w3.org/2000/svg">
<path d="M2.66667 12H8V10C8 9.26667 7.73889 8.63889 7.21667 8.11667C6.69445 7.59444 6.06667 7.33333 5.33334 7.33333C4.6 7.33333 3.97222 7.59444 3.45 8.11667C2.92778 8.63889 2.66667 9.26667 2.66667 10V12ZM0.666669 13.3333C0.47778 13.3333 0.319558 13.2693 0.192002 13.1413C0.0644468 13.0133 0.000446743 12.8551 2.29885e-06 12.6667C-0.000442146 12.4782 0.0635579 12.32 0.192002 12.192C0.320447 12.064 0.478669 12 0.666669 12H1.33334V10C1.33334 9.32222 1.49178 8.686 1.80867 8.09133C2.12556 7.49667 2.56711 7.02178 3.13334 6.66667C2.56667 6.31111 2.12511 5.83622 1.80867 5.242C1.49222 4.64778 1.33378 4.01156 1.33334 3.33333V1.33333H0.666669C0.47778 1.33333 0.319558 1.26933 0.192002 1.14133C0.0644468 1.01333 0.000446743 0.855111 2.29885e-06 0.666667C-0.000442146 0.478222 0.0635579 0.32 0.192002 0.192C0.320447 0.0640001 0.478669 0 0.666669 0H10C10.1889 0 10.3473 0.0640001 10.4753 0.192C10.6033 0.32 10.6671 0.478222 10.6667 0.666667C10.6662 0.855111 10.6022 1.01356 10.4747 1.142C10.3471 1.27044 10.1889 1.33422 10 1.33333H9.33334V3.33333C9.33334 4.01111 9.17511 4.64733 8.85867 5.242C8.54222 5.83667 8.10045 6.31156 7.53334 6.66667C8.1 7.02222 8.54178 7.49733 8.85867 8.092C9.17556 8.68667 9.33378 9.32267 9.33334 10V12H10C10.1889 12 10.3473 12.064 10.4753 12.192C10.6033 12.32 10.6671 12.4782 10.6667 12.6667C10.6662 12.8551 10.6022 13.0136 10.4747 13.142C10.3471 13.2704 10.1889 13.3342 10 13.3333H0.666669Z" fill="#EAB308"/>
</svg>
