<svg width="17" height="17" viewBox="0 0 17 17" fill="none" xmlns="http://www.w3.org/2000/svg">
<path fill-rule="evenodd" clip-rule="evenodd" d="M8.25 16.5C9.33341 16.5 10.4062 16.2866 11.4071 15.872C12.4081 15.4574 13.3175 14.8497 14.0836 14.0836C14.8497 13.3175 15.4574 12.4081 15.872 11.4071C16.2866 10.4062 16.5 9.33341 16.5 8.25C16.5 7.16659 16.2866 6.0938 15.872 5.09286C15.4574 4.09193 14.8497 3.18245 14.0836 2.41637C13.3175 1.65029 12.4081 1.0426 11.4071 0.627994C10.4062 0.213392 9.33341 -1.6144e-08 8.25 0C6.06196 3.26043e-08 3.96354 0.869194 2.41637 2.41637C0.869194 3.96354 0 6.06196 0 8.25C0 10.438 0.869194 12.5365 2.41637 14.0836C3.96354 15.6308 6.06196 16.5 8.25 16.5ZM8.03733 11.5867L12.6207 6.08667L11.2127 4.91333L7.271 9.64242L5.23142 7.60192L3.93525 8.89808L6.68525 11.6481L7.39475 12.3576L8.03733 11.5867Z" fill="white"/>
</svg>
