<svg width="26" height="26" viewBox="0 0 26 26" fill="none" xmlns="http://www.w3.org/2000/svg">
<path d="M7.90139 0.000511706C6.868 -0.01118 5.84256 0.182261 4.88445 0.569632C3.92634 0.957002 3.0546 1.53061 2.31971 2.25722C1.58483 2.98384 1.0014 3.84904 0.603215 4.8027C0.205029 5.75637 0 6.77956 0 7.81301C0 8.84647 0.205029 9.86966 0.603215 10.8233C1.0014 11.777 1.58483 12.6422 2.31971 13.3688C3.0546 14.0954 3.92634 14.669 4.88445 15.0564C5.84256 15.4438 6.868 15.6372 7.90139 15.6255C9.97353 15.6255 11.9608 14.8024 13.426 13.3371C14.8912 11.8719 15.7144 9.88465 15.7144 7.81251C15.7144 5.74038 14.8912 3.75311 13.426 2.28789C11.9608 0.822665 9.97353 0.00051175 7.90139 0.000511706ZM5.40139 2.71751C5.74227 2.71698 6.0799 2.78375 6.39492 2.91399C6.70995 3.04423 6.99616 3.23537 7.23715 3.47645C7.47815 3.71754 7.66918 4.00383 7.79929 4.3189C7.92941 4.63397 7.99605 4.97163 7.99539 5.31251C7.99631 5.65342 7.92985 5.99115 7.79981 6.30628C7.66978 6.62142 7.47874 6.90775 7.23768 7.14881C6.99662 7.38987 6.7103 7.5809 6.39516 7.71094C6.08003 7.84097 5.7423 7.90744 5.40139 7.90651C5.06048 7.90744 4.72275 7.84097 4.40762 7.71094C4.09248 7.5809 3.80615 7.38987 3.5651 7.14881C3.32404 6.90775 3.133 6.62142 3.00296 6.30628C2.87293 5.99115 2.80647 5.65342 2.80739 5.31251C2.80686 4.97171 2.8736 4.63416 3.00377 4.31921C3.13395 4.00425 3.325 3.71808 3.56598 3.4771C3.80696 3.23612 4.09313 3.04507 4.40809 2.9149C4.72304 2.78472 5.06059 2.71698 5.40139 2.71751ZM16.4954 11.4365C16.2212 12.078 15.875 12.6863 15.4634 13.2495L23.2764 21.0615C23.4407 21.2281 23.5328 21.4526 23.5328 21.6865C23.5328 21.9204 23.4407 22.145 23.2764 22.3115C23.1098 22.4758 22.8853 22.5679 22.6514 22.5679C22.4175 22.5679 22.1929 22.4758 22.0264 22.3115L14.3074 14.5615C13.3325 15.4849 12.1711 16.1887 10.9014 16.6255V18.0005C10.9014 18.4405 11.2724 18.8125 11.7144 18.8125H13.9014V21.0005C13.9014 21.4405 14.2724 21.8125 14.7144 21.8125H16.9014V24.0005C16.9014 24.4405 17.2734 24.8125 17.7144 24.8125H19.9324L20.4954 25.3755C20.8374 25.7165 24.2634 25.8875 25.1204 25.0315C25.9774 24.1735 25.8044 20.7475 25.4634 20.4065L16.4954 11.4365Z" fill="#22C55E"/>
</svg>
