<svg width="24" height="21" viewBox="0 0 24 21" fill="none" xmlns="http://www.w3.org/2000/svg">
<path d="M20.1101 1.20876e-05H9.13867V12.9498H23.9501V3.34981C23.9499 2.9091 23.8504 2.47274 23.6572 2.06573C23.464 1.65872 23.181 1.28905 22.8243 0.977886C22.4676 0.666726 22.0443 0.420188 21.5785 0.25239C21.1128 0.0845913 20.6138 -0.0011716 20.1101 1.20876e-05V1.20876e-05Z" fill="#FF6600"/>
<path d="M5.72023 0H3.82971C2.81401 0 1.83991 0.353051 1.1217 0.981485C0.403487 1.60992 0 2.46226 0 3.351L0 5.0052H5.72023V0Z" fill="#FF6600"/>
<path d="M0 7.99731H5.72023V13.0025H0V7.99731Z" fill="#FF6600"/>
<path d="M18.2798 20.9575H20.1703C20.6741 20.9575 21.1729 20.8705 21.6382 20.7015C22.1036 20.5326 22.5262 20.2849 22.882 19.9728C23.2377 19.6607 23.5196 19.2902 23.7115 18.8826C23.9033 18.475 24.0014 18.0383 24 17.5975V15.9949H18.2798V20.9575Z" fill="#FF6600"/>
<path d="M9.13965 15.9949H14.8599V21.0001H9.13965V15.9949Z" fill="#FF6600"/>
<path d="M0 15.9949V17.6491C0 18.0891 0.0990585 18.5249 0.29152 18.9314C0.483981 19.338 0.766075 19.7074 1.1217 20.0186C1.47732 20.3298 1.8995 20.5766 2.36415 20.745C2.82879 20.9134 3.32679 21.0001 3.82971 21.0001H5.72023V15.9949H0Z" fill="#FF6600"/>
</svg>
