<svg width="13" height="15" viewBox="0 0 13 15" fill="none" xmlns="http://www.w3.org/2000/svg">
<path d="M3.33333 4.66667H7.33333V3.33333C7.33333 2.77778 7.13889 2.30556 6.75 1.91667C6.36111 1.52778 5.88889 1.33333 5.33333 1.33333C4.77778 1.33333 4.30556 1.52778 3.91667 1.91667C3.52778 2.30556 3.33333 2.77778 3.33333 3.33333V4.66667ZM5.5 14H1.33333C0.966667 14 0.652889 13.8696 0.392 13.6087C0.131111 13.3478 0.000444444 13.0338 0 12.6667V6C0 5.63333 0.130667 5.31956 0.392 5.05867C0.653333 4.79778 0.967111 4.66711 1.33333 4.66667H2V3.33333C2 2.41111 2.32511 1.62511 2.97533 0.975334C3.62556 0.325556 4.41156 0.0004449 5.33333 4.55063e-07C6.25511 -0.000443989 7.04133 0.324667 7.692 0.975334C8.34267 1.626 8.66756 2.412 8.66667 3.33333V4.66667H9.33333C9.7 4.66667 10.014 4.79733 10.2753 5.05867C10.5367 5.32 10.6671 5.63378 10.6667 6V6.86667C10.4667 6.8 10.2584 6.75 10.042 6.71667C9.82556 6.68333 9.58933 6.66667 9.33333 6.66667V6H1.33333V12.6667H4.86667C4.95556 12.9333 5.04444 13.164 5.13333 13.3587C5.22222 13.5533 5.34444 13.7671 5.5 14ZM9.33333 14.6667C8.41111 14.6667 7.62511 14.3416 6.97533 13.6913C6.32556 13.0411 6.00044 12.2551 6 11.3333C5.99956 10.4116 6.32467 9.62556 6.97533 8.97533C7.626 8.32511 8.412 8 9.33333 8C10.2547 8 11.0409 8.32511 11.692 8.97533C12.3431 9.62556 12.668 10.4116 12.6667 11.3333C12.6653 12.2551 12.3402 13.0413 11.6913 13.692C11.0424 14.3427 10.2564 14.6676 9.33333 14.6667ZM10.4333 12.9L10.9 12.4333L9.66667 11.2V9.33333H9V11.4667L10.4333 12.9Z" fill="#FF6600"/>
</svg>
