<svg width="11" height="14" viewBox="0 0 11 14" fill="none" xmlns="http://www.w3.org/2000/svg">
<path d="M1.33333 14C0.966667 14 0.652889 13.8696 0.392 13.6087C0.131111 13.3478 0.000444444 13.0338 0 12.6667V6C0 5.63333 0.130667 5.31956 0.392 5.05867C0.653333 4.79778 0.967111 4.66711 1.33333 4.66667H2V3.33333C2 2.41111 2.32511 1.62511 2.97533 0.975334C3.62556 0.325556 4.41156 0.0004449 5.33333 4.55063e-07C6.25511 -0.000443989 7.04133 0.324667 7.692 0.975334C8.34267 1.626 8.66756 2.412 8.66667 3.33333V4.66667H9.33333C9.7 4.66667 10.014 4.79733 10.2753 5.05867C10.5367 5.32 10.6671 5.63378 10.6667 6V12.6667C10.6667 13.0333 10.5362 13.3473 10.2753 13.6087C10.0144 13.87 9.70045 14.0004 9.33333 14H1.33333ZM5.33333 10.6667C5.7 10.6667 6.014 10.5362 6.27533 10.2753C6.53667 10.0144 6.66711 9.70045 6.66667 9.33333C6.66622 8.96622 6.53578 8.65245 6.27533 8.392C6.01489 8.13156 5.70089 8.00089 5.33333 8C4.96578 7.99911 4.652 8.12978 4.392 8.392C4.132 8.65422 4.00133 8.968 4 9.33333C3.99867 9.69867 4.12933 10.0127 4.392 10.2753C4.65467 10.538 4.96844 10.6684 5.33333 10.6667ZM3.33333 4.66667H7.33333V3.33333C7.33333 2.77778 7.13889 2.30556 6.75 1.91667C6.36111 1.52778 5.88889 1.33333 5.33333 1.33333C4.77778 1.33333 4.30556 1.52778 3.91667 1.91667C3.52778 2.30556 3.33333 2.77778 3.33333 3.33333V4.66667Z" fill="#9DABB9"/>
</svg>
