<svg width="14" height="12" viewBox="0 0 14 12" fill="none" xmlns="http://www.w3.org/2000/svg">
<path d="M1.33333 1.33333L6.66667 4.66667L12 1.33333H1.33333ZM1.33333 10.6667C0.966667 10.6667 0.652889 10.5362 0.392 10.2753C0.131111 10.0144 0.000444444 9.70045 0 9.33333V1.33333C0 0.966667 0.130667 0.652889 0.392 0.392C0.653333 0.131111 0.967111 0.000444444 1.33333 0H12C12.3667 0 12.6807 0.130667 12.942 0.392C13.2033 0.653333 13.3338 0.967111 13.3333 1.33333V4.66667C13.3333 4.85556 13.2693 5.014 13.1413 5.142C13.0133 5.27 12.8551 5.33378 12.6667 5.33333C12.4782 5.33289 12.32 5.26889 12.192 5.14133C12.064 5.01378 12 4.85556 12 4.66667V2.66667L7.01667 5.78333C6.98333 5.80556 6.86667 5.83889 6.66667 5.88333C6.61111 5.88333 6.55289 5.87511 6.492 5.85867C6.43111 5.84222 6.37267 5.81711 6.31667 5.78333L1.33333 2.66667V9.33333H5C5.18889 9.33333 5.34733 9.39733 5.47533 9.52533C5.60333 9.65333 5.66711 9.81156 5.66667 10C5.66622 10.1884 5.60222 10.3469 5.47467 10.4753C5.34711 10.6038 5.18889 10.6676 5 10.6667H1.33333ZM9.3 10.1333L12.6 6.83333C12.7222 6.71111 12.8778 6.65 13.0667 6.65C13.2556 6.65 13.4111 6.71111 13.5333 6.83333C13.6556 6.95556 13.7167 7.11111 13.7167 7.3C13.7167 7.48889 13.6556 7.64444 13.5333 7.76667L9.76667 11.5333C9.63333 11.6667 9.47778 11.7333 9.3 11.7333C9.12222 11.7333 8.96667 11.6667 8.83333 11.5333L6.93333 9.63333C6.81111 9.51111 6.75 9.35556 6.75 9.16667C6.75 8.97778 6.81111 8.82222 6.93333 8.7C7.05556 8.57778 7.21111 8.51667 7.4 8.51667C7.58889 8.51667 7.74444 8.57778 7.86667 8.7L9.3 10.1333Z" fill="#FDBA74"/>
</svg>
