<svg width="21" height="18" viewBox="0 0 21 18" fill="none" xmlns="http://www.w3.org/2000/svg">
<path d="M2 16C1.45 16 0.979333 15.8043 0.588 15.413C0.196667 15.0217 0.000666667 14.5507 0 14V2C0 1.45 0.196 0.979333 0.588 0.588C0.98 0.196666 1.45067 0.000666667 2 0H18C18.55 0 19.021 0.196 19.413 0.588C19.805 0.98 20.0007 1.45067 20 2V5.525C20 5.79167 19.95 6.046 19.85 6.288C19.75 6.53 19.6083 6.74233 19.425 6.925L13.975 12.375L12.525 10.925C12.1417 10.5417 11.6667 10.35 11.1 10.35C10.5333 10.35 10.0583 10.5417 9.675 10.925L8.3 12.3C7.9 12.7 7.73733 13.1917 7.812 13.775C7.88667 14.3583 8.116 14.875 8.5 15.325C8.61667 15.4583 8.64167 15.6043 8.575 15.763C8.50833 15.9217 8.38333 16.0007 8.2 16H2ZM10 7L3.3 2.8C3.01667 2.61667 2.72933 2.60833 2.438 2.775C2.14667 2.94167 2.00067 3.19167 2 3.525C2 3.675 2.03333 3.81267 2.1 3.938C2.16667 4.06333 2.26667 4.16733 2.4 4.25L9.475 8.675C9.64167 8.775 9.81667 8.825 10 8.825C10.1833 8.825 10.3583 8.775 10.525 8.675L17.6 4.25C17.7333 4.16667 17.8333 4.06267 17.9 3.938C17.9667 3.81333 18 3.67567 18 3.525C18 3.19167 17.8543 2.94167 17.563 2.775C17.2717 2.60833 16.984 2.61667 16.7 2.8L10 7ZM13.95 15.2L18.9 10.25C19.0833 10.0667 19.3167 9.975 19.6 9.975C19.8833 9.975 20.1167 10.0667 20.3 10.25C20.4833 10.4333 20.575 10.6667 20.575 10.95C20.575 11.2333 20.4833 11.4667 20.3 11.65L14.65 17.3C14.55 17.4 14.4417 17.475 14.325 17.525C14.2083 17.575 14.0833 17.6 13.95 17.6C13.8167 17.6 13.6917 17.575 13.575 17.525C13.4583 17.475 13.35 17.4 13.25 17.3L10.4 14.45C10.2167 14.2667 10.125 14.0333 10.125 13.75C10.125 13.4667 10.2167 13.2333 10.4 13.05C10.5833 12.8667 10.8167 12.775 11.1 12.775C11.3833 12.775 11.6167 12.8667 11.8 13.05L13.95 15.2Z" fill="#FB923C"/>
</svg>
