<svg width="16" height="19" viewBox="0 0 16 19" fill="none" xmlns="http://www.w3.org/2000/svg">
<path d="M11.6667 14.1667C12.0139 14.1667 12.309 14.0451 12.5521 13.8021C12.7951 13.559 12.9167 13.2639 12.9167 12.9167C12.9167 12.5694 12.7951 12.2743 12.5521 12.0312C12.309 11.7882 12.0139 11.6667 11.6667 11.6667C11.3194 11.6667 11.0243 11.7882 10.7812 12.0312C10.5382 12.2743 10.4167 12.5694 10.4167 12.9167C10.4167 13.2639 10.5382 13.559 10.7812 13.8021C11.0243 14.0451 11.3194 14.1667 11.6667 14.1667ZM11.6667 16.6667C12.0833 16.6667 12.4722 16.5694 12.8333 16.375C13.1944 16.1806 13.4931 15.9097 13.7292 15.5625C13.4097 15.3681 13.0764 15.2257 12.7292 15.1354C12.3819 15.0451 12.0278 15 11.6667 15C11.3056 15 10.9514 15.0451 10.6042 15.1354C10.2569 15.2257 9.92361 15.3681 9.60417 15.5625C9.84028 15.9097 10.1389 16.1806 10.5 16.375C10.8611 16.5694 11.25 16.6667 11.6667 16.6667ZM4.16667 5.83333H9.16667V4.16667C9.16667 3.47222 8.92361 2.88194 8.4375 2.39583C7.95139 1.90972 7.36111 1.66666 6.66667 1.66666C5.97222 1.66666 5.38194 1.90972 4.89583 2.39583C4.40972 2.88194 4.16667 3.47222 4.16667 4.16667V5.83333ZM6.875 17.5H1.66667C1.20833 17.5 0.815972 17.3368 0.489583 17.0104C0.163194 16.684 0 16.2917 0 15.8333V7.5C0 7.04167 0.163194 6.6493 0.489583 6.32292C0.815972 5.99653 1.20833 5.83333 1.66667 5.83333H2.5V4.16667C2.5 3.01389 2.90625 2.03125 3.71875 1.21875C4.53125 0.406248 5.51389 -1.90735e-06 6.66667 -1.90735e-06C7.81944 -1.90735e-06 8.80208 0.406248 9.61458 1.21875C10.4271 2.03125 10.8333 3.01389 10.8333 4.16667V5.83333H11.6667C12.125 5.83333 12.5174 5.99653 12.8438 6.32292C13.1701 6.6493 13.3333 7.04167 13.3333 7.5V8.58333C13.0833 8.5 12.8229 8.4375 12.5521 8.39583C12.2812 8.35417 11.9861 8.33333 11.6667 8.33333V7.5H1.66667V15.8333H6.08333C6.19444 16.1667 6.30556 16.4549 6.41667 16.6979C6.52778 16.941 6.68056 17.2083 6.875 17.5ZM11.6667 18.3333C10.5139 18.3333 9.53125 17.9271 8.71875 17.1146C7.90625 16.3021 7.5 15.3194 7.5 14.1667C7.5 13.0139 7.90625 12.0312 8.71875 11.2187C9.53125 10.4062 10.5139 10 11.6667 10C12.8194 10 13.8021 10.4062 14.6146 11.2187C15.4271 12.0312 15.8333 13.0139 15.8333 14.1667C15.8333 15.3194 15.4271 16.3021 14.6146 17.1146C13.8021 17.9271 12.8194 18.3333 11.6667 18.3333ZM1.66667 7.5C1.66667 7.5 1.66667 7.90972 1.66667 8.72917C1.66667 9.54861 1.66667 10.4618 1.66667 11.4687C1.66667 12.4757 1.66667 13.4236 1.66667 14.3125C1.66667 15.2014 1.66667 15.7083 1.66667 15.8333V7.5Z" fill="white"/>
</svg>
