<svg width="15" height="15" viewBox="0 0 15 15" fill="none" xmlns="http://www.w3.org/2000/svg">
<path d="M7.5 14.25V13.0125C7.5 12.9125 7.51875 12.8157 7.55625 12.7222C7.59375 12.6287 7.65 12.5442 7.725 12.4688L11.6438 8.56875C11.7563 8.45625 11.8813 8.375 12.0188 8.325C12.1563 8.275 12.2938 8.25 12.4313 8.25C12.5813 8.25 12.725 8.27825 12.8625 8.33475C13 8.39125 13.125 8.4755 13.2375 8.5875L13.9313 9.28125C14.0313 9.39375 14.1095 9.51875 14.166 9.65625C14.2225 9.79375 14.2505 9.93125 14.25 10.0688C14.2495 10.2063 14.2245 10.347 14.175 10.491C14.1255 10.635 14.0443 10.763 13.9313 10.875L10.0313 14.775C9.95625 14.85 9.872 14.9062 9.7785 14.9437C9.685 14.9812 9.588 15 9.4875 15H8.25C8.0375 15 7.8595 14.9282 7.716 14.7847C7.5725 14.6412 7.5005 14.463 7.5 14.25ZM8.625 13.875H9.3375L11.6063 11.5875L10.9125 10.8937L8.625 13.1625V13.875ZM1.5 15C1.0875 15 0.7345 14.8533 0.441 14.5597C0.1475 14.2662 0.0005 13.913 0 13.5V1.5C0 1.0875 0.147 0.7345 0.441 0.441C0.735 0.1475 1.088 0.0005 1.5 0H6.88125C7.08125 0 7.272 0.0375001 7.4535 0.1125C7.635 0.1875 7.79425 0.29375 7.93125 0.43125L11.5688 4.06875C11.7063 4.20625 11.8125 4.36575 11.8875 4.54725C11.9625 4.72875 12 4.91925 12 5.11875V6.1875C12 6.4 11.928 6.57825 11.784 6.72225C11.64 6.86625 11.462 6.938 11.25 6.9375C11.038 6.937 10.86 6.865 10.716 6.7215C10.572 6.578 10.5 6.4 10.5 6.1875V5.25H7.5C7.2875 5.25 7.1095 5.178 6.966 5.034C6.8225 4.89 6.7505 4.712 6.75 4.5V1.5H1.5V13.5H5.25C5.4625 13.5 5.64075 13.572 5.78475 13.716C5.92875 13.86 6.0005 14.038 6 14.25C5.9995 14.462 5.9275 14.6402 5.784 14.7847C5.6405 14.9292 5.4625 15.001 5.25 15H1.5ZM11.2688 11.2313L10.9125 10.8937L11.6063 11.5875L11.2688 11.2313Z" fill="white"/>
</svg>
