<svg width="15" height="8" viewBox="0 0 15 8" fill="none" xmlns="http://www.w3.org/2000/svg">
<path d="M1.33334 6.48333H13.3333C13.5222 6.48333 13.6807 6.54733 13.8087 6.67533C13.9367 6.80333 14.0004 6.96156 14 7.15C13.9996 7.33844 13.9356 7.49689 13.808 7.62533C13.6804 7.75378 13.5222 7.81756 13.3333 7.81667H1.33334C1.14445 7.81667 0.986225 7.75267 0.85867 7.62467C0.731114 7.49667 0.667114 7.33844 0.66667 7.15C0.666225 6.96156 0.730225 6.80333 0.85867 6.67533C0.987114 6.54733 1.14534 6.48333 1.33334 6.48333ZM2 2.78333L1.68334 3.35C1.61667 3.47222 1.51667 3.55 1.38334 3.58333C1.25 3.61667 1.12223 3.6 1 3.53333C0.877781 3.46667 0.800003 3.36667 0.76667 3.23333C0.733337 3.1 0.750003 2.97222 0.81667 2.85L1.13334 2.28333H0.500003C0.355559 2.28333 0.236225 2.23622 0.142003 2.142C0.0477809 2.04778 0.000447545 1.92822 3.10077e-06 1.78333C-0.000441344 1.63844 0.046892 1.51911 0.142003 1.42533C0.237114 1.33156 0.356448 1.28422 0.500003 1.28333H1.13334L0.81667 0.75C0.750003 0.627777 0.733337 0.5 0.76667 0.366666C0.800003 0.233333 0.877781 0.133333 1 0.0666666C1.12223 -9.4374e-08 1.25 -0.0166666 1.38334 0.0166667C1.51667 0.05 1.61667 0.127778 1.68334 0.25L2 0.783333L2.31667 0.25C2.38334 0.127778 2.48334 0.05 2.61667 0.0166667C2.75 -0.0166666 2.87778 -9.4374e-08 3 0.0666666C3.12223 0.133333 3.2 0.233333 3.23334 0.366666C3.26667 0.5 3.25 0.627777 3.18334 0.75L2.86667 1.28333H3.5C3.64445 1.28333 3.764 1.33067 3.85867 1.42533C3.95334 1.52 4.00045 1.63933 4 1.78333C3.99956 1.92733 3.95223 2.04689 3.858 2.142C3.76378 2.23711 3.64445 2.28422 3.5 2.28333H2.86667L3.18334 2.85C3.25 2.97222 3.26667 3.1 3.23334 3.23333C3.2 3.36667 3.12223 3.46667 3 3.53333C2.87778 3.6 2.75 3.61667 2.61667 3.58333C2.48334 3.55 2.38334 3.47222 2.31667 3.35L2 2.78333ZM7.33334 2.78333L7.01667 3.35C6.95 3.47222 6.85 3.55 6.71667 3.58333C6.58334 3.61667 6.45556 3.6 6.33334 3.53333C6.21111 3.46667 6.13334 3.36667 6.1 3.23333C6.06667 3.1 6.08334 2.97222 6.15 2.85L6.46667 2.28333H5.83334C5.68889 2.28333 5.56956 2.23622 5.47534 2.142C5.38111 2.04778 5.33378 1.92822 5.33334 1.78333C5.33289 1.63844 5.38023 1.51911 5.47534 1.42533C5.57045 1.33156 5.68978 1.28422 5.83334 1.28333H6.46667L6.15 0.75C6.08334 0.627777 6.06667 0.5 6.1 0.366666C6.13334 0.233333 6.21111 0.133333 6.33334 0.0666666C6.45556 -9.4374e-08 6.58334 -0.0166666 6.71667 0.0166667C6.85 0.05 6.95 0.127778 7.01667 0.25L7.33334 0.783333L7.65 0.25C7.71667 0.127778 7.81667 0.05 7.95 0.0166667C8.08334 -0.0166666 8.21111 -9.4374e-08 8.33334 0.0666666C8.45556 0.133333 8.53334 0.233333 8.56667 0.366666C8.6 0.5 8.58334 0.627777 8.51667 0.75L8.2 1.28333H8.83334C8.97778 1.28333 9.09711 1.33067 9.19134 1.42533C9.28556 1.52 9.33289 1.63933 9.33334 1.78333C9.33378 1.92733 9.28645 2.04689 9.19134 2.142C9.09623 2.23711 8.97689 2.28422 8.83334 2.28333H8.2L8.51667 2.85C8.58334 2.97222 8.6 3.1 8.56667 3.23333C8.53334 3.36667 8.45556 3.46667 8.33334 3.53333C8.21111 3.6 8.08334 3.61667 7.95 3.58333C7.81667 3.55 7.71667 3.47222 7.65 3.35L7.33334 2.78333ZM12.6667 2.78333L12.35 3.35C12.2833 3.47222 12.1833 3.55 12.05 3.58333C11.9167 3.61667 11.7889 3.6 11.6667 3.53333C11.5444 3.46667 11.4667 3.36667 11.4333 3.23333C11.4 3.1 11.4167 2.97222 11.4833 2.85L11.8 2.28333H11.1667C11.0222 2.28333 10.9029 2.23622 10.8087 2.142C10.7144 2.04778 10.6671 1.92822 10.6667 1.78333C10.6662 1.63844 10.7136 1.51911 10.8087 1.42533C10.9038 1.33156 11.0231 1.28422 11.1667 1.28333H11.8L11.4833 0.75C11.4167 0.627777 11.4 0.5 11.4333 0.366666C11.4667 0.233333 11.5444 0.133333 11.6667 0.0666666C11.7889 -9.4374e-08 11.9167 -0.0166666 12.05 0.0166667C12.1833 0.05 12.2833 0.127778 12.35 0.25L12.6667 0.783333L12.9833 0.25C13.05 0.127778 13.15 0.05 13.2833 0.0166667C13.4167 -0.0166666 13.5444 -9.4374e-08 13.6667 0.0666666C13.7889 0.133333 13.8667 0.233333 13.9 0.366666C13.9333 0.5 13.9167 0.627777 13.85 0.75L13.5333 1.28333H14.1667C14.3111 1.28333 14.4307 1.33067 14.5253 1.42533C14.62 1.52 14.6671 1.63933 14.6667 1.78333C14.6662 1.92733 14.6189 2.04689 14.5247 2.142C14.4304 2.23711 14.3111 2.28422 14.1667 2.28333H13.5333L13.85 2.85C13.9167 2.97222 13.9333 3.1 13.9 3.23333C13.8667 3.36667 13.7889 3.46667 13.6667 3.53333C13.5444 3.6 13.4167 3.61667 13.2833 3.58333C13.15 3.55 13.05 3.47222 12.9833 3.35L12.6667 2.78333Z" fill="white"/>
</svg>
