<svg width="8" height="10" viewBox="0 0 8 10" fill="none" xmlns="http://www.w3.org/2000/svg">
<path d="M6.66667 9.33333C6.3 9.33333 5.98622 9.20289 5.72533 8.942C5.46444 8.68111 5.33378 8.36711 5.33333 8V1.33333C5.33333 0.966668 5.464 0.65289 5.72533 0.392001C5.98667 0.131112 6.30044 0.000445574 6.66667 1.12994e-06C7.03289 -0.000443315 7.34689 0.130223 7.60867 0.392001C7.87044 0.653779 8.00089 0.967557 8 1.33333V8C8 8.36667 7.86956 8.68067 7.60867 8.942C7.34778 9.20333 7.03378 9.33378 6.66667 9.33333ZM1.33333 9.33333C0.966667 9.33333 0.652889 9.20289 0.392 8.942C0.131111 8.68111 0.000444444 8.36711 0 8V1.33333C0 0.966668 0.130667 0.65289 0.392 0.392001C0.653333 0.131112 0.967111 0.000445574 1.33333 1.12994e-06C1.69956 -0.000443315 2.01356 0.130223 2.27533 0.392001C2.53711 0.653779 2.66756 0.967557 2.66667 1.33333V8C2.66667 8.36667 2.53622 8.68067 2.27533 8.942C2.01444 9.20333 1.70044 9.33378 1.33333 9.33333Z" fill="#D97706"/>
</svg>
