<svg width="14" height="14" viewBox="0 0 14 14" fill="none" xmlns="http://www.w3.org/2000/svg">
<path d="M4.66667 7H5.33333V5.66667H6C6.18889 5.66667 6.34733 5.60267 6.47533 5.47467C6.60333 5.34667 6.66711 5.18844 6.66667 5V4.33333C6.66667 4.14444 6.60267 3.98622 6.47467 3.85867C6.34667 3.73111 6.18844 3.66711 6 3.66667H4.66667V7ZM5.33333 5V4.33333H6V5H5.33333ZM7.33333 7H8.66667C8.85556 7 9.014 6.936 9.142 6.808C9.27 6.68 9.33378 6.52178 9.33333 6.33333V4.33333C9.33333 4.14444 9.26933 3.98622 9.14133 3.85867C9.01333 3.73111 8.85511 3.66711 8.66667 3.66667H7.33333V7ZM8 6.33333V4.33333H8.66667V6.33333H8ZM10 7H10.6667V5.66667H11.3333V5H10.6667V4.33333H11.3333V3.66667H10V7ZM4 10.6667C3.63333 10.6667 3.31956 10.5362 3.05867 10.2753C2.79778 10.0144 2.66711 9.70044 2.66667 9.33333V1.33333C2.66667 0.966667 2.79733 0.652889 3.05867 0.392C3.32 0.131111 3.63378 0.000444444 4 0H12C12.3667 0 12.6807 0.130667 12.942 0.392C13.2033 0.653333 13.3338 0.967111 13.3333 1.33333V9.33333C13.3333 9.7 13.2029 10.014 12.942 10.2753C12.6811 10.5367 12.3671 10.6671 12 10.6667H4ZM4 9.33333H12V1.33333H4V9.33333ZM1.33333 13.3333C0.966667 13.3333 0.652889 13.2029 0.392 12.942C0.131111 12.6811 0.000444444 12.3671 0 12V2.66667H1.33333V12H10.6667V13.3333H1.33333Z" fill="#B9AB9D"/>
</svg>
