<svg width="20" height="20" viewBox="0 0 20 20" fill="none" xmlns="http://www.w3.org/2000/svg">
<path d="M10.69 8.74635H17.4441C17.2012 6.96468 16.4602 5.45432 15.2211 4.21525C13.982 2.97618 12.4717 2.23517 10.69 1.99222V8.74635ZM8.74636 17.4441V1.99222C6.78653 2.23517 5.16278 3.08956 3.87512 4.55538C2.58746 6.02121 1.94363 7.74214 1.94363 9.71817C1.94363 11.6942 2.58746 13.4151 3.87512 14.8809C5.16278 16.3468 6.78653 17.2012 8.74636 17.4441ZM10.69 17.4441C12.4717 17.2174 13.9861 16.4804 15.2332 15.2332C16.4804 13.9861 17.2174 12.4716 17.4441 10.69H10.69V17.4441ZM9.71817 19.4363C8.37383 19.4363 7.11047 19.1812 5.92809 18.671C4.74571 18.1608 3.7172 17.4684 2.84257 16.5938C1.96793 15.7191 1.27551 14.6906 0.765306 13.5083C0.255102 12.3259 0 11.0625 0 9.71817C0 8.37382 0.255102 7.11045 0.765306 5.92808C1.27551 4.7457 1.96793 3.71719 2.84257 2.84256C3.7172 1.96792 4.74571 1.2755 5.92809 0.765297C7.11047 0.255093 8.37383 -9.53674e-06 9.71817 -9.53674e-06C11.0625 -9.53674e-06 12.3218 0.255093 13.4961 0.765297C14.6704 1.2755 15.6989 1.97197 16.5816 2.8547C17.4644 3.73744 18.1608 4.76595 18.671 5.94022C19.1812 7.1145 19.4363 8.37382 19.4363 9.71817C19.4363 11.0463 19.1812 12.3016 18.671 13.484C18.1608 14.6663 17.4684 15.6989 16.5938 16.5816C15.7191 17.4644 14.6906 18.1608 13.5083 18.671C12.3259 19.1812 11.0625 19.4363 9.71817 19.4363Z" fill="#FF6600"/>
</svg>
