<svg width="15" height="15" viewBox="0 0 15 15" fill="none" xmlns="http://www.w3.org/2000/svg">
<path d="M9.65166 1.75625C10.6077 0.796255 12.0063 0.776254 12.7803 1.55359C13.5563 2.33225 13.5357 3.74025 12.5783 4.70025L10.963 6.32225C10.872 6.41668 10.8218 6.54306 10.8231 6.67416C10.8244 6.80526 10.8772 6.9306 10.9701 7.02318C11.0629 7.11575 11.1884 7.16816 11.3195 7.16911C11.4506 7.17006 11.5768 7.11948 11.671 7.02825L13.287 5.40625C14.561 4.12692 14.721 2.08492 13.489 0.847588C12.2557 -0.390412 10.2177 -0.229079 8.94232 1.05025L5.71166 4.29492C4.43766 5.57425 4.27765 7.61625 5.50965 8.85292C5.55567 8.90077 5.61075 8.93898 5.67169 8.96532C5.73263 8.99166 5.7982 9.0056 5.86458 9.00633C5.93096 9.00705 5.99682 8.99456 6.05832 8.96956C6.11982 8.94456 6.17573 8.90757 6.22278 8.86074C6.26983 8.81391 6.30709 8.75818 6.33237 8.6968C6.35766 8.63542 6.37047 8.56961 6.37005 8.50323C6.36964 8.43685 6.35601 8.37121 6.32996 8.31015C6.3039 8.24909 6.26596 8.19383 6.21832 8.14759C5.44232 7.36892 5.46365 5.96092 6.42032 5.00092L9.65166 1.75625Z" fill="#B9AB9D"/>
<path d="M8.82364 5.47909C8.72993 5.38512 8.60273 5.33222 8.47001 5.33203C8.3373 5.33184 8.20995 5.38438 8.11597 5.47809C8.022 5.5718 7.9691 5.69901 7.96891 5.83172C7.96872 5.96443 8.02126 6.09179 8.11497 6.18576C8.89097 6.96443 8.87031 8.37176 7.91297 9.33243L4.68164 12.5764C3.72497 13.5364 2.32631 13.5564 1.55231 12.7791C0.776306 12.0004 0.797639 10.5924 1.75431 9.63243L3.37031 8.01043C3.41666 7.9639 3.4534 7.90869 3.47842 7.84796C3.50344 7.78723 3.51626 7.72217 3.51613 7.65649C3.51601 7.5908 3.50295 7.52579 3.4777 7.46515C3.45245 7.40452 3.4155 7.34945 3.36897 7.30309C3.32244 7.25674 3.26723 7.22 3.2065 7.19498C3.14578 7.16996 3.08071 7.15714 3.01503 7.15727C2.94935 7.15739 2.88433 7.17045 2.8237 7.1957C2.76306 7.22095 2.708 7.2579 2.66164 7.30443L1.04564 8.92643C-0.228361 10.2064 -0.388361 12.2478 0.843639 13.4851C2.07697 14.7238 4.11497 14.5618 5.39031 13.2824L8.62164 10.0378C9.89564 8.7591 10.0556 6.71576 8.82364 5.47909Z" fill="#B9AB9D"/>
</svg>
