<svg width="16" height="8" viewBox="0 0 16 8" fill="none" xmlns="http://www.w3.org/2000/svg">
<path d="M4 5.33333C3.63333 5.33333 3.31956 5.20289 3.05867 4.942C2.79778 4.68111 2.66711 4.36711 2.66667 4C2.66622 3.63289 2.79689 3.31911 3.05867 3.05867C3.32044 2.79822 3.63422 2.66756 4 2.66667C4.36578 2.66578 4.67978 2.79644 4.942 3.05867C5.20422 3.32089 5.33467 3.63467 5.33333 4C5.332 4.36533 5.20156 4.67933 4.942 4.942C4.68244 5.20467 4.36844 5.33511 4 5.33333ZM4 8C2.88889 8 1.94444 7.61111 1.16667 6.83333C0.388889 6.05556 0 5.11111 0 4C0 2.88889 0.388889 1.94444 1.16667 1.16667C1.94444 0.388889 2.88889 0 4 0C4.74444 0 5.41956 0.183333 6.02533 0.55C6.63111 0.916667 7.11156 1.4 7.46667 2H13.3333L15.3333 4L12.3333 7L11 6L9.66667 7L8.25 6H7.46667C7.11111 6.6 6.63067 7.08333 6.02533 7.45C5.42 7.81667 4.74489 8 4 8ZM4 6.66667C4.62222 6.66667 5.16956 6.47778 5.642 6.1C6.11444 5.72222 6.42822 5.24444 6.58333 4.66667H8.66667L9.63333 5.35L11 4.33333L12.1833 5.25L13.4333 4L12.7667 3.33333H6.58333C6.42778 2.75556 6.114 2.27778 5.642 1.9C5.17 1.52222 4.62267 1.33333 4 1.33333C3.26667 1.33333 2.63889 1.59444 2.11667 2.11667C1.59444 2.63889 1.33333 3.26667 1.33333 4C1.33333 4.73333 1.59444 5.36111 2.11667 5.88333C2.63889 6.40556 3.26667 6.66667 4 6.66667Z" fill="#80776B"/>
</svg>
