<svg width="15" height="13" viewBox="0 0 15 13" fill="none" xmlns="http://www.w3.org/2000/svg">
<path d="M2 8.66667C1.44444 8.66667 0.972222 8.47222 0.583333 8.08333C0.194444 7.69444 0 7.22222 0 6.66667C0 6.11111 0.194444 5.63889 0.583333 5.25C0.972222 4.86111 1.44444 4.66667 2 4.66667V3.33333C2 2.96667 2.13067 2.65289 2.392 2.392C2.65333 2.13111 2.96711 2.00044 3.33333 2H5.33333C5.33333 1.44444 5.52778 0.972222 5.91667 0.583333C6.30556 0.194444 6.77778 0 7.33333 0C7.88889 0 8.36111 0.194444 8.75 0.583333C9.13889 0.972222 9.33333 1.44444 9.33333 2H11.3333C11.7 2 12.014 2.13067 12.2753 2.392C12.5367 2.65333 12.6671 2.96711 12.6667 3.33333V4.66667C13.2222 4.66667 13.6944 4.86111 14.0833 5.25C14.4722 5.63889 14.6667 6.11111 14.6667 6.66667C14.6667 7.22222 14.4722 7.69444 14.0833 8.08333C13.6944 8.47222 13.2222 8.66667 12.6667 8.66667V11.3333C12.6667 11.7 12.5362 12.014 12.2753 12.2753C12.0144 12.5367 11.7004 12.6671 11.3333 12.6667H3.33333C2.96667 12.6667 2.65289 12.5362 2.392 12.2753C2.13111 12.0144 2.00044 11.7004 2 11.3333V8.66667ZM5.33333 7.33333C5.61111 7.33333 5.84733 7.23622 6.042 7.042C6.23667 6.84778 6.33378 6.61156 6.33333 6.33333C6.33289 6.05511 6.23578 5.81911 6.042 5.62533C5.84822 5.43156 5.612 5.33422 5.33333 5.33333C5.05467 5.33244 4.81867 5.42978 4.62533 5.62533C4.432 5.82089 4.33467 6.05689 4.33333 6.33333C4.332 6.60978 4.42933 6.846 4.62533 7.042C4.82133 7.238 5.05733 7.33511 5.33333 7.33333ZM9.33333 7.33333C9.61111 7.33333 9.84733 7.23622 10.042 7.042C10.2367 6.84778 10.3338 6.61156 10.3333 6.33333C10.3329 6.05511 10.2358 5.81911 10.042 5.62533C9.84822 5.43156 9.612 5.33422 9.33333 5.33333C9.05467 5.33244 8.81867 5.42978 8.62533 5.62533C8.432 5.82089 8.33467 6.05689 8.33333 6.33333C8.332 6.60978 8.42933 6.846 8.62533 7.042C8.82133 7.238 9.05733 7.33511 9.33333 7.33333ZM4.66667 10H10V8.66667H4.66667V10ZM3.33333 11.3333H11.3333V3.33333H3.33333V11.3333Z" fill="#D46211"/>
</svg>
