<svg width="14" height="14" viewBox="0 0 14 14" fill="none" xmlns="http://www.w3.org/2000/svg">
<path d="M0.183333 5.46265L2.98333 2.66265C3.13889 2.5071 3.32222 2.39599 3.53333 2.32932C3.74444 2.26265 3.96111 2.25154 4.18333 2.29599L5.05 2.47932C4.45 3.19043 3.97778 3.83487 3.63333 4.41265C3.28889 4.99043 2.95556 5.69043 2.63333 6.51265L0.183333 5.46265ZM3.6 6.97932C3.85556 6.17932 4.20289 5.42376 4.642 4.71265C5.08111 4.00154 5.61156 3.33487 6.23333 2.71265C7.21111 1.73487 8.32778 1.00443 9.58333 0.521319C10.8389 0.0382077 12.0111 -0.109126 13.1 0.0793188C13.2889 1.16821 13.1444 2.34043 12.6667 3.59599C12.1889 4.85154 11.4611 5.96821 10.4833 6.94599C9.87222 7.5571 9.20556 8.08776 8.48333 8.53799C7.76111 8.98821 7 9.34087 6.2 9.59599L3.6 6.97932ZM8.2 4.97932C8.45556 5.23487 8.76956 5.36265 9.142 5.36265C9.51444 5.36265 9.82822 5.23487 10.0833 4.97932C10.3384 4.72376 10.4662 4.40999 10.4667 4.03799C10.4671 3.66599 10.3393 3.35199 10.0833 3.09599C9.82733 2.83999 9.51356 2.71221 9.142 2.71265C8.77044 2.7131 8.45644 2.84087 8.2 3.09599C7.94356 3.3511 7.81578 3.6651 7.81667 4.03799C7.81756 4.41087 7.94533 4.72465 8.2 4.97932ZM7.73333 12.996L6.66667 10.546C7.48889 10.2238 8.19178 9.89043 8.77533 9.54599C9.35889 9.20154 10.006 8.72932 10.7167 8.12932L10.8833 8.99599C10.9278 9.21821 10.9167 9.43776 10.85 9.65465C10.7833 9.87154 10.6722 10.0575 10.5167 10.2127L7.73333 12.996ZM1.25 9.11265C1.63889 8.72376 2.11111 8.52643 2.66667 8.52065C3.22222 8.51487 3.69444 8.70665 4.08333 9.09599C4.47222 9.48532 4.66667 9.95754 4.66667 10.5127C4.66667 11.0678 4.47222 11.54 4.08333 11.9293C3.80556 12.2071 3.34178 12.446 2.692 12.646C2.04222 12.846 1.14489 13.0238 0 13.1793C0.155556 12.0349 0.333333 11.1404 0.533333 10.496C0.733333 9.85154 0.972222 9.39043 1.25 9.11265Z" fill="white"/>
</svg>
