<svg width="14" height="14" viewBox="0 0 14 14" fill="none" xmlns="http://www.w3.org/2000/svg">
<path d="M8.80033 0.666687C9.15202 0.671696 9.48749 0.815468 9.73366 1.06669L12.267 3.60002C12.5182 3.84619 12.662 4.18166 12.667 4.53335V11.3334C12.667 11.687 12.5265 12.0261 12.2765 12.2762C12.0264 12.5262 11.6873 12.6667 11.3337 12.6667H2.00033C1.6467 12.6667 1.30756 12.5262 1.05752 12.2762C0.807468 12.0261 0.666992 11.687 0.666992 11.3334V2.00002C0.666992 1.6464 0.807468 1.30726 1.05752 1.05721C1.30756 0.807163 1.6467 0.666687 2.00033 0.666687H8.80033Z" stroke="white" stroke-width="1.33333" stroke-linecap="round" stroke-linejoin="round"/>
<path d="M10.0007 12.6667V8.00002C10.0007 7.82321 9.93041 7.65364 9.80539 7.52862C9.68037 7.40359 9.5108 7.33335 9.33398 7.33335H4.00065C3.82384 7.33335 3.65427 7.40359 3.52925 7.52862C3.40422 7.65364 3.33398 7.82321 3.33398 8.00002V12.6667M3.33398 0.666687V3.33335C3.33398 3.51016 3.40422 3.67973 3.52925 3.80476C3.65427 3.92978 3.82384 4.00002 4.00065 4.00002H8.66732" stroke="white" stroke-width="1.33333" stroke-linecap="round" stroke-linejoin="round"/>
</svg>
