<svg width="18" height="20" viewBox="0 0 18 20" fill="none" xmlns="http://www.w3.org/2000/svg">
<path d="M14.5833 19.4445C13.7731 19.4445 13.0845 19.1609 12.5174 18.5938C11.9502 18.0266 11.6667 17.338 11.6667 16.5278C11.6667 16.4306 11.691 16.2037 11.7396 15.8472L4.90972 11.8611C4.65046 12.1042 4.35069 12.2946 4.01042 12.4323C3.67014 12.57 3.30556 12.6389 2.91667 12.6389C2.10648 12.6389 1.41782 12.3553 0.850694 11.7882C0.283565 11.2211 0 10.5324 0 9.72224C0 8.91205 0.283565 8.22339 0.850694 7.65626C1.41782 7.08913 2.10648 6.80557 2.91667 6.80557C3.30556 6.80557 3.67014 6.87443 4.01042 7.01217C4.35069 7.1499 4.65046 7.34029 4.90972 7.58335L11.7396 3.59724C11.7072 3.48381 11.6869 3.37444 11.6788 3.26911C11.6707 3.16379 11.6667 3.04631 11.6667 2.91668C11.6667 2.10649 11.9502 1.41784 12.5174 0.850708C13.0845 0.283579 13.7731 1.33514e-05 14.5833 1.33514e-05C15.3935 1.33514e-05 16.0822 0.283579 16.6493 0.850708C17.2164 1.41784 17.5 2.10649 17.5 2.91668C17.5 3.72686 17.2164 4.41552 16.6493 4.98265C16.0822 5.54978 15.3935 5.83335 14.5833 5.83335C14.1944 5.83335 13.8299 5.76448 13.4896 5.62675C13.1493 5.48902 12.8495 5.29862 12.5903 5.05557L5.76042 9.04168C5.79282 9.15511 5.81308 9.26448 5.82118 9.36981C5.82928 9.47513 5.83333 9.59261 5.83333 9.72224C5.83333 9.85186 5.82928 9.96934 5.82118 10.0747C5.81308 10.18 5.79282 10.2894 5.76042 10.4028L12.5903 14.3889C12.8495 14.1458 13.1493 13.9555 13.4896 13.8177C13.8299 13.68 14.1944 13.6111 14.5833 13.6111C15.3935 13.6111 16.0822 13.8947 16.6493 14.4618C17.2164 15.0289 17.5 15.7176 17.5 16.5278C17.5 17.338 17.2164 18.0266 16.6493 18.5938C16.0822 19.1609 15.3935 19.4445 14.5833 19.4445ZM14.5833 17.5C14.8588 17.5 15.0897 17.4068 15.276 17.2205C15.4624 17.0342 15.5556 16.8033 15.5556 16.5278C15.5556 16.2523 15.4624 16.0214 15.276 15.8351C15.0897 15.6487 14.8588 15.5556 14.5833 15.5556C14.3079 15.5556 14.077 15.6487 13.8906 15.8351C13.7043 16.0214 13.6111 16.2523 13.6111 16.5278C13.6111 16.8033 13.7043 17.0342 13.8906 17.2205C14.077 17.4068 14.3079 17.5 14.5833 17.5ZM2.91667 10.6945C3.19213 10.6945 3.42303 10.6013 3.60938 10.4149C3.79572 10.2286 3.88889 9.9977 3.88889 9.72224C3.88889 9.44677 3.79572 9.21587 3.60938 9.02953C3.42303 8.84318 3.19213 8.75001 2.91667 8.75001C2.6412 8.75001 2.4103 8.84318 2.22396 9.02953C2.03762 9.21587 1.94444 9.44677 1.94444 9.72224C1.94444 9.9977 2.03762 10.2286 2.22396 10.4149C2.4103 10.6013 2.6412 10.6945 2.91667 10.6945ZM14.5833 3.8889C14.8588 3.8889 15.0897 3.79573 15.276 3.60939C15.4624 3.42305 15.5556 3.19214 15.5556 2.91668C15.5556 2.64122 15.4624 2.41031 15.276 2.22397C15.0897 2.03763 14.8588 1.94446 14.5833 1.94446C14.3079 1.94446 14.077 2.03763 13.8906 2.22397C13.7043 2.41031 13.6111 2.64122 13.6111 2.91668C13.6111 3.19214 13.7043 3.42305 13.8906 3.60939C14.077 3.79573 14.3079 3.8889 14.5833 3.8889Z" fill="#FF6600"/>
</svg>
