<svg width="12" height="14" viewBox="0 0 12 14" fill="none" xmlns="http://www.w3.org/2000/svg">
<path d="M10 13.3333C9.44444 13.3333 8.97222 13.1389 8.58333 12.75C8.19444 12.3611 8 11.8889 8 11.3333C8 11.2667 8.01667 11.1111 8.05 10.8667L3.36667 8.13333C3.18889 8.3 2.98333 8.43067 2.75 8.52533C2.51667 8.62 2.26667 8.66711 2 8.66667C1.44444 8.66667 0.972222 8.47222 0.583333 8.08333C0.194444 7.69444 0 7.22222 0 6.66667C0 6.11111 0.194444 5.63889 0.583333 5.25C0.972222 4.86111 1.44444 4.66667 2 4.66667C2.26667 4.66667 2.51667 4.714 2.75 4.80867C2.98333 4.90333 3.18889 5.03378 3.36667 5.2L8.05 2.46667C8.02778 2.38889 8.014 2.314 8.00867 2.242C8.00333 2.17 8.00044 2.08933 8 2C8 1.44444 8.19444 0.972222 8.58333 0.583333C8.97222 0.194444 9.44444 0 10 0C10.5556 0 11.0278 0.194444 11.4167 0.583333C11.8056 0.972222 12 1.44444 12 2C12 2.55556 11.8056 3.02778 11.4167 3.41667C11.0278 3.80556 10.5556 4 10 4C9.73333 4 9.48333 3.95267 9.25 3.858C9.01667 3.76333 8.81111 3.63289 8.63333 3.46667L3.95 6.2C3.97222 6.27778 3.98622 6.35289 3.992 6.42533C3.99778 6.49778 4.00044 6.57822 4 6.66667C3.99956 6.75511 3.99689 6.83578 3.992 6.90867C3.98711 6.98156 3.97311 7.05644 3.95 7.13333L8.63333 9.86667C8.81111 9.7 9.01667 9.56956 9.25 9.47533C9.48333 9.38111 9.73333 9.33378 10 9.33333C10.5556 9.33333 11.0278 9.52778 11.4167 9.91667C11.8056 10.3056 12 10.7778 12 11.3333C12 11.8889 11.8056 12.3611 11.4167 12.75C11.0278 13.1389 10.5556 13.3333 10 13.3333ZM10 12C10.1889 12 10.3473 11.9362 10.4753 11.8087C10.6033 11.6811 10.6671 11.5227 10.6667 11.3333C10.6662 11.144 10.6022 10.9858 10.4747 10.8587C10.3471 10.7316 10.1889 10.6676 10 10.6667C9.81111 10.6658 9.65289 10.7298 9.52533 10.8587C9.39778 10.9876 9.33378 11.1458 9.33333 11.3333C9.33289 11.5209 9.39689 11.6793 9.52533 11.8087C9.65378 11.938 9.812 12.0018 10 12ZM2 7.33333C2.18889 7.33333 2.34733 7.26933 2.47533 7.14133C2.60333 7.01333 2.66711 6.85511 2.66667 6.66667C2.66622 6.47822 2.60222 6.32 2.47467 6.192C2.34711 6.064 2.18889 6 2 6C1.81111 6 1.65289 6.064 1.52533 6.192C1.39778 6.32 1.33378 6.47822 1.33333 6.66667C1.33289 6.85511 1.39689 7.01356 1.52533 7.142C1.65378 7.27044 1.812 7.33422 2 7.33333ZM10 2.66667C10.1889 2.66667 10.3473 2.60267 10.4753 2.47467C10.6033 2.34667 10.6671 2.18844 10.6667 2C10.6662 1.81156 10.6022 1.65333 10.4747 1.52533C10.3471 1.39733 10.1889 1.33333 10 1.33333C9.81111 1.33333 9.65289 1.39733 9.52533 1.52533C9.39778 1.65333 9.33378 1.81156 9.33333 2C9.33289 2.18844 9.39689 2.34689 9.52533 2.47533C9.65378 2.60378 9.812 2.66756 10 2.66667Z" fill="white"/>
</svg>
