<svg width="14" height="17" viewBox="0 0 14 17" fill="none" xmlns="http://www.w3.org/2000/svg">
<path d="M5.41667 10.8333H7.91667L7.4375 8.14583C7.71528 8.00694 7.93417 7.80556 8.09417 7.54167C8.25417 7.27778 8.33389 6.98611 8.33333 6.66667C8.33333 6.20833 8.17028 5.81611 7.84417 5.49C7.51806 5.16389 7.12556 5.00056 6.66667 5C6.20778 4.99944 5.81556 5.16278 5.49 5.49C5.16444 5.81722 5.00111 6.20944 5 6.66667C5 6.98611 5.08 7.27778 5.24 7.54167C5.4 7.80556 5.61861 8.00694 5.89583 8.14583L5.41667 10.8333ZM6.66667 16.6667C4.73611 16.1806 3.14222 15.0728 1.885 13.3433C0.627778 11.6139 -0.000555187 9.69389 3.6808e-07 7.58333V2.5L6.66667 0L13.3333 2.5V7.58333C13.3333 9.69444 12.705 11.6147 11.4483 13.3442C10.1917 15.0736 8.59778 16.1811 6.66667 16.6667Z" fill="#FF6600"/>
</svg>
