<svg width="14" height="17" viewBox="0 0 14 17" fill="none" xmlns="http://www.w3.org/2000/svg">
<path d="M5.79167 11.2917L10.5 6.58334L9.3125 5.39584L5.79167 8.91667L4.04167 7.16667L2.85417 8.35417L5.79167 11.2917ZM6.66667 16.6667C4.73611 16.1806 3.14236 15.0729 1.88542 13.3438C0.628472 11.6146 0 9.69445 0 7.58334V2.5L6.66667 3.8147e-06L13.3333 2.5V7.58334C13.3333 9.69445 12.7049 11.6146 11.4479 13.3438C10.191 15.0729 8.59722 16.1806 6.66667 16.6667ZM6.66667 14.9167C8.11111 14.4583 9.30556 13.5417 10.25 12.1667C11.1944 10.7917 11.6667 9.26389 11.6667 7.58334V3.64584L6.66667 1.77084L1.66667 3.64584V7.58334C1.66667 9.26389 2.13889 10.7917 3.08333 12.1667C4.02778 13.5417 5.22222 14.4583 6.66667 14.9167Z" fill="#22C55E"/>
</svg>
