<svg width="22" height="27" viewBox="0 0 22 27" fill="none" xmlns="http://www.w3.org/2000/svg">
<path d="M10.6667 26.6667C7.57778 25.8889 5.02756 24.1164 3.016 21.3493C1.00445 18.5822 -0.0008883 15.5102 5.88928e-07 12.1333V4L10.6667 0L21.3333 4V12.1333C21.3333 15.5111 20.328 18.5836 18.3173 21.3507C16.3067 24.1178 13.7564 25.8898 10.6667 26.6667ZM8 18.6667H13.3333C13.7111 18.6667 14.028 18.5387 14.284 18.2827C14.54 18.0267 14.6676 17.7102 14.6667 17.3333V13.3333C14.6667 12.9556 14.5387 12.6391 14.2827 12.384C14.0267 12.1289 13.7102 12.0009 13.3333 12V10.6667C13.3333 9.93333 13.0724 9.30578 12.5507 8.784C12.0289 8.26222 11.4009 8.00089 10.6667 8C9.93244 7.99911 9.30489 8.26044 8.784 8.784C8.26311 9.30756 8.00178 9.93511 8 10.6667V12C7.62222 12 7.30578 12.128 7.05067 12.384C6.79556 12.64 6.66756 12.9564 6.66667 13.3333V17.3333C6.66667 17.7111 6.79467 18.028 7.05067 18.284C7.30667 18.54 7.62311 18.6676 8 18.6667ZM9.33333 12V10.6667C9.33333 10.2889 9.46133 9.97244 9.71733 9.71733C9.97333 9.46222 10.2898 9.33422 10.6667 9.33333C11.0436 9.33245 11.3604 9.46044 11.6173 9.71733C11.8742 9.97422 12.0018 10.2907 12 10.6667V12H9.33333Z" fill="#F87171"/>
</svg>
