<svg width="12" height="14" viewBox="0 0 12 14" fill="none" xmlns="http://www.w3.org/2000/svg">
<path d="M8.66667 13.3333C7.74444 13.3333 6.95845 13.0082 6.30867 12.358C5.65889 11.7078 5.33378 10.9218 5.33333 10C5.33289 9.07822 5.658 8.29222 6.30867 7.642C6.95933 6.99178 7.74533 6.66667 8.66667 6.66667C9.588 6.66667 10.3742 6.99178 11.0253 7.642C11.6764 8.29222 12.0013 9.07822 12 10C11.9987 10.9218 11.6736 11.708 11.0247 12.3587C10.3758 13.0093 9.58978 13.3342 8.66667 13.3333ZM5.33333 13.3333C3.78889 12.9444 2.51378 12.0582 1.508 10.6747C0.502223 9.29111 -0.00044415 7.75511 2.94464e-07 6.06667V2L5.33333 0L10.6667 2V5.78333C10.3778 5.63889 10.0527 5.52778 9.69133 5.45C9.33 5.37222 8.98844 5.33333 8.66667 5.33333C7.37778 5.33333 6.27778 5.78889 5.36667 6.7C4.45556 7.61111 4 8.71111 4 10C4 10.6889 4.13067 11.3111 4.392 11.8667C4.65333 12.4222 4.98378 12.9056 5.38333 13.3167C5.37222 13.3167 5.364 13.3196 5.35867 13.3253C5.35333 13.3311 5.34489 13.3338 5.33333 13.3333ZM8.66667 10C8.94444 10 9.18067 9.90289 9.37533 9.70867C9.57 9.51444 9.66711 9.27822 9.66667 9C9.66622 8.72178 9.56911 8.48578 9.37533 8.292C9.18156 8.09822 8.94533 8.00089 8.66667 8C8.388 7.99911 8.152 8.09644 7.95867 8.292C7.76533 8.48756 7.668 8.72356 7.66667 9C7.66533 9.27644 7.76267 9.51267 7.95867 9.70867C8.15467 9.90467 8.39067 10.0018 8.66667 10ZM8.66667 12C9.01111 12 9.32778 11.9193 9.61667 11.758C9.90556 11.5967 10.1389 11.3829 10.3167 11.1167C10.0722 10.9722 9.81111 10.8611 9.53333 10.7833C9.25556 10.7056 8.96667 10.6667 8.66667 10.6667C8.36667 10.6667 8.07778 10.7056 7.8 10.7833C7.52222 10.8611 7.26111 10.9722 7.01667 11.1167C7.19444 11.3833 7.42778 11.5973 7.71667 11.7587C8.00556 11.92 8.32222 12.0004 8.66667 12Z" fill="#FF6600"/>
</svg>
