<svg width="15" height="17" viewBox="0 0 15 17" fill="none" xmlns="http://www.w3.org/2000/svg">
<path d="M6.66667 0C6.77778 0 6.87861 0.00694432 6.96917 0.0208332C7.05972 0.0347221 7.15333 0.0625 7.25 0.104167L12.25 1.97917C12.5694 2.10417 12.83 2.30556 13.0317 2.58333C13.2333 2.86111 13.3339 3.17361 13.3333 3.52083V6.125C13.3333 6.36111 13.2536 6.55917 13.0942 6.71917C12.9347 6.87917 12.7367 6.95889 12.5 6.95833C12.2633 6.95778 12.0656 6.87778 11.9067 6.71833C11.7478 6.55889 11.6678 6.36111 11.6667 6.125V3.54167L6.66667 1.66667L1.66667 3.54167V7.45833C1.66667 8.15278 1.7675 8.84722 1.96917 9.54167C2.17083 10.2361 2.44861 10.8958 2.8025 11.5208C3.15639 12.1458 3.58694 12.7083 4.09417 13.2083C4.60139 13.7083 5.15333 14.1181 5.75 14.4375C5.95833 14.5486 6.10778 14.7083 6.19833 14.9167C6.28889 15.125 6.29222 15.3333 6.20833 15.5417C6.11111 15.7639 5.955 15.9167 5.74 16C5.525 16.0833 5.31306 16.0694 5.10417 15.9583C3.53472 15.1806 2.29167 14.0069 1.375 12.4375C0.458333 10.8681 0 9.20833 0 7.45833V3.52083C0 3.17361 0.100833 2.86111 0.3025 2.58333C0.504167 2.30556 0.764445 2.10417 1.08333 1.97917L6.08333 0.104167C6.18056 0.0625 6.27778 0.0347221 6.375 0.0208332C6.47222 0.00694432 6.56944 0 6.66667 0ZM10.8333 16.5417C9.68056 16.5417 8.69806 16.1353 7.88583 15.3225C7.07361 14.5097 6.66722 13.5272 6.66667 12.375C6.66611 11.2228 7.0725 10.2403 7.88583 9.4275C8.69917 8.61472 9.68167 8.20833 10.8333 8.20833C11.985 8.20833 12.9678 8.61472 13.7817 9.4275C14.5956 10.2403 15.0017 11.2228 15 12.375C14.9983 13.5272 14.5919 14.51 13.7808 15.3233C12.9697 16.1367 11.9872 16.5428 10.8333 16.5417ZM10.8333 12.375C11.1806 12.375 11.4758 12.2536 11.7192 12.0108C11.9625 11.7681 12.0839 11.4728 12.0833 11.125C12.0828 10.7772 11.9614 10.4822 11.7192 10.24C11.4769 9.99778 11.1817 9.87611 10.8333 9.875C10.485 9.87389 10.19 9.99556 9.94833 10.24C9.70667 10.4844 9.585 10.7794 9.58333 11.125C9.58167 11.4706 9.70333 11.7658 9.94833 12.0108C10.1933 12.2558 10.4883 12.3772 10.8333 12.375ZM10.8333 14.875C11.1806 14.875 11.5069 14.8089 11.8125 14.6767C12.1181 14.5444 12.3889 14.3536 12.625 14.1042C12.6944 14.0208 12.7222 13.9272 12.7083 13.8233C12.6944 13.7194 12.6319 13.6394 12.5208 13.5833C12.2569 13.4583 11.9828 13.3647 11.6983 13.3025C11.4139 13.2403 11.1256 13.2089 10.8333 13.2083C10.5411 13.2078 10.2531 13.2392 9.96917 13.3025C9.68528 13.3658 9.41083 13.4594 9.14583 13.5833C9.03472 13.6389 8.97222 13.7189 8.95833 13.8233C8.94444 13.9278 8.97222 14.0214 9.04167 14.1042C9.27778 14.3542 9.54861 14.5453 9.85417 14.6775C10.1597 14.8097 10.4861 14.8756 10.8333 14.875Z" fill="#FF6600"/>
</svg>
