<svg width="11" height="14" viewBox="0 0 11 14" fill="none" xmlns="http://www.w3.org/2000/svg">
<path d="M5.33333 13.3333C3.78889 12.9444 2.51378 12.0582 1.508 10.6747C0.502223 9.29111 -0.00044415 7.75511 2.94464e-07 6.06667V2L5.33333 0L10.6667 2V6.06667C10.6667 7.75556 10.164 9.29178 9.15867 10.6753C8.15333 12.0589 6.87822 12.9449 5.33333 13.3333ZM5.33333 11.9333C6.48889 11.5667 7.44444 10.8333 8.2 9.73333C8.95555 8.63333 9.33333 7.41111 9.33333 6.06667V2.91667L5.33333 1.41667L1.33333 2.91667V6.06667C1.33333 7.41111 1.71111 8.63333 2.46667 9.73333C3.22222 10.8333 4.17778 11.5667 5.33333 11.9333ZM4 9.33333H6.66667C6.85556 9.33333 7.014 9.26933 7.142 9.14133C7.27 9.01333 7.33378 8.85511 7.33333 8.66667V6.66667C7.33333 6.47778 7.26933 6.31956 7.14133 6.192C7.01333 6.06444 6.85511 6.00044 6.66667 6V5.33333C6.66667 4.96667 6.53622 4.65289 6.27533 4.392C6.01444 4.13111 5.70044 4.00044 5.33333 4C4.96622 3.99956 4.65245 4.13022 4.392 4.392C4.13156 4.65378 4.00089 4.96756 4 5.33333V6C3.81111 6 3.65289 6.064 3.52533 6.192C3.39778 6.32 3.33378 6.47822 3.33333 6.66667V8.66667C3.33333 8.85556 3.39733 9.014 3.52533 9.142C3.65333 9.27 3.81156 9.33378 4 9.33333ZM4.66667 6V5.33333C4.66667 5.14444 4.73067 4.98622 4.85867 4.85867C4.98667 4.73111 5.14489 4.66711 5.33333 4.66667C5.52178 4.66622 5.68022 4.73022 5.80867 4.85867C5.93711 4.98711 6.00089 5.14533 6 5.33333V6H4.66667Z" fill="#FF6600"/>
</svg>
