<svg width="15" height="11" viewBox="0 0 15 11" fill="none" xmlns="http://www.w3.org/2000/svg">
<path d="M5.33334 10.6667C5.12222 10.6667 4.93334 10.6056 4.76667 10.4833C4.6 10.3611 4.47778 10.2056 4.4 10.0167L2.86667 6H0.666669C0.47778 6 0.319558 5.936 0.192002 5.808C0.0644467 5.68 0.000446743 5.52178 2.29885e-06 5.33333C-0.000442146 5.14489 0.0635579 4.98667 0.192002 4.85867C0.320447 4.73067 0.478669 4.66667 0.666669 4.66667H3.33334C3.47778 4.66667 3.60289 4.70556 3.70867 4.78333C3.81445 4.86111 3.89489 4.96667 3.95 5.1L5.33334 8.73333L8.4 0.65C8.47778 0.461111 8.6 0.305556 8.76667 0.183333C8.93334 0.0611112 9.12222 0 9.33334 0C9.54445 0 9.73334 0.0611112 9.9 0.183333C10.0667 0.305556 10.1889 0.461111 10.2667 0.65L11.8 4.66667H14C14.1889 4.66667 14.3473 4.73067 14.4753 4.85867C14.6033 4.98667 14.6671 5.14489 14.6667 5.33333C14.6662 5.52178 14.6022 5.68022 14.4747 5.80867C14.3471 5.93711 14.1889 6.00089 14 6H11.3333C11.1889 6 11.064 5.96111 10.9587 5.88333C10.8533 5.80556 10.7727 5.7 10.7167 5.56667L9.33334 1.93333L6.26667 10.0167C6.18889 10.2056 6.06667 10.3611 5.9 10.4833C5.73334 10.6056 5.54445 10.6667 5.33334 10.6667Z" fill="#3B82F6"/>
</svg>
