<svg width="17" height="17" viewBox="0 0 17 17" fill="none" xmlns="http://www.w3.org/2000/svg">
<path d="M7.5 3V0H9V3H7.5ZM12.4875 5.0625L11.4563 4.03125L13.5563 1.875L14.6063 2.94375L12.4875 5.0625ZM13.5 9V7.5H16.5V9H13.5ZM7.5 16.5V13.5H9V16.5H7.5ZM4.0125 5.025L1.875 2.94375L2.94375 1.89375L5.0625 4.0125L4.0125 5.025ZM13.5375 14.625L11.4563 12.4688L12.4688 11.4562L14.6063 13.5187L13.5375 14.625ZM0 9V7.5H3V9H0ZM2.94375 14.625L1.89375 13.5562L3.99375 11.4562L4.5375 11.9625L5.08125 12.4875L2.94375 14.625ZM8.25 12.75C7 12.75 5.9375 12.3125 5.0625 11.4375C4.1875 10.5625 3.75 9.5 3.75 8.25C3.75 7 4.1875 5.9375 5.0625 5.0625C5.9375 4.1875 7 3.75 8.25 3.75C9.5 3.75 10.5625 4.1875 11.4375 5.0625C12.3125 5.9375 12.75 7 12.75 8.25C12.75 9.5 12.3125 10.5625 11.4375 11.4375C10.5625 12.3125 9.5 12.75 8.25 12.75ZM8.25 11.25C9.075 11.25 9.78125 10.9562 10.3688 10.3687C10.9563 9.78125 11.25 9.075 11.25 8.25C11.25 7.425 10.9563 6.71875 10.3688 6.13125C9.78125 5.54375 9.075 5.25 8.25 5.25C7.425 5.25 6.71875 5.54375 6.13125 6.13125C5.54375 6.71875 5.25 7.425 5.25 8.25C5.25 9.075 5.54375 9.78125 6.13125 10.3687C6.71875 10.9562 7.425 11.25 8.25 11.25Z" fill="#D1D5DB"/>
</svg>
