<svg width="18" height="18" viewBox="0 0 18 18" fill="none" xmlns="http://www.w3.org/2000/svg">
<path d="M7.425 11.675H9C9.28333 11.675 9.521 11.579 9.713 11.387C9.905 11.195 10.0007 10.9577 10 10.675V8.35H11.575C11.8583 8.35 12.096 8.25433 12.288 8.063C12.48 7.87167 12.5757 7.634 12.575 7.35V5H14C14.2833 5 14.521 4.90433 14.713 4.713C14.905 4.52167 15.0007 4.284 15 4C14.9993 3.716 14.9033 3.47867 14.712 3.288C14.5207 3.09733 14.2833 3.00133 14 3H11.575C11.2917 3 11.0543 3.096 10.863 3.288C10.6717 3.48 10.5753 3.71733 10.574 4V6.325H9C8.71667 6.325 8.47933 6.421 8.288 6.613C8.09667 6.805 8.00067 7.04233 8 7.325V9.65H6.425C6.14167 9.65 5.90433 9.746 5.713 9.938C5.52167 10.13 5.42567 10.3673 5.425 10.65V13H4C3.71667 13 3.47933 13.096 3.288 13.288C3.09667 13.48 3.00067 13.7173 3 14C2.99933 14.2827 3.09533 14.5203 3.288 14.713C3.48067 14.9057 3.718 15.0013 4 15H6.425C6.70833 15 6.946 14.904 7.138 14.712C7.33 14.52 7.42567 14.2827 7.425 14V11.675ZM2 18C1.45 18 0.979334 17.8043 0.588 17.413C0.196667 17.0217 0.000666667 16.5507 0 16V2C0 1.45 0.196 0.979334 0.588 0.588C0.98 0.196667 1.45067 0.000666667 2 0H16C16.55 0 17.021 0.196 17.413 0.588C17.805 0.98 18.0007 1.45067 18 2V16C18 16.55 17.8043 17.021 17.413 17.413C17.0217 17.805 16.5507 18.0007 16 18H2ZM2 16H16V2H2V16Z" fill="#34D399"/>
</svg>
