<svg width="11" height="3" viewBox="0 0 11 3" fill="none" xmlns="http://www.w3.org/2000/svg">
<path d="M1.33333 0C0.6 0 0 0.6 0 1.33333C0 2.06667 0.6 2.66667 1.33333 2.66667C2.06667 2.66667 2.66667 2.06667 2.66667 1.33333C2.66667 0.6 2.06667 0 1.33333 0ZM9.33333 0C8.6 0 8 0.6 8 1.33333C8 2.06667 8.6 2.66667 9.33333 2.66667C10.0667 2.66667 10.6667 2.06667 10.6667 1.33333C10.6667 0.6 10.0667 0 9.33333 0ZM5.33333 0C4.6 0 4 0.6 4 1.33333C4 2.06667 4.6 2.66667 5.33333 2.66667C6.06667 2.66667 6.66667 2.06667 6.66667 1.33333C6.66667 0.6 6.06667 0 5.33333 0Z" fill="#9CA3AF"/>
</svg>
