<svg width="13" height="14" viewBox="0 0 13 14" fill="none" xmlns="http://www.w3.org/2000/svg">
<path d="M10.6081 3.34766C11.2111 4.34844 11.4687 5.51955 11.3414 6.68099V7.34766C11.3407 8.04957 11.5246 8.73933 11.8748 9.34766M3.34143 6.01432C3.34143 5.30708 3.62238 4.6288 4.12248 4.1287C4.62258 3.62861 5.30085 3.34766 6.0081 3.34766C6.71534 3.34766 7.39362 3.62861 7.89372 4.1287C8.39381 4.6288 8.67476 5.30708 8.67476 6.01432V6.68099C8.67476 8.12346 9.14262 9.52702 10.0081 10.681" stroke="white" stroke-width="1.33333" stroke-linecap="round" stroke-linejoin="round"/>
<path d="M6.00805 6.01389V7.34723C6.00593 9.25349 6.58755 11.1147 7.67472 12.6806M3.34139 8.68056C3.50452 10.0738 3.91067 11.4276 4.54139 12.6806M1.27472 11.3472C0.824887 9.8341 0.62228 8.25827 0.674721 6.68056V6.01389C0.672165 5.07647 0.916737 4.15492 1.38379 3.34213C1.85085 2.52933 2.52388 1.854 3.33508 1.38418C4.14628 0.914361 5.06699 0.666653 6.00442 0.666017C6.94185 0.665381 7.86289 0.91184 8.67472 1.38056" stroke="white" stroke-width="1.33333" stroke-linecap="round" stroke-linejoin="round"/>
</svg>
