<svg width="12" height="12" viewBox="0 0 12 12" fill="none" xmlns="http://www.w3.org/2000/svg">
<path d="M6 12C5.16667 12 4.38622 11.8418 3.65867 11.5253C2.93111 11.2089 2.29778 10.7811 1.75867 10.242C1.21956 9.70289 0.791779 9.06956 0.475334 8.342C0.15889 7.61444 0.000445377 6.83378 9.32401e-07 6C-0.000443512 5.16622 0.158001 4.38578 0.475334 3.65867C0.792668 2.93156 1.22022 2.29822 1.758 1.75867C2.29578 1.21911 2.92911 0.791333 3.658 0.475333C4.38689 0.159333 5.16756 0.000888889 6 0C6.91111 0 7.77511 0.194444 8.592 0.583333C9.40889 0.972222 10.1004 1.52222 10.6667 2.23333V1.33333C10.6667 1.14444 10.7307 0.986222 10.8587 0.858667C10.9867 0.731111 11.1449 0.667111 11.3333 0.666667C11.5218 0.666222 11.6802 0.730222 11.8087 0.858667C11.9371 0.987111 12.0009 1.14533 12 1.33333V4C12 4.18889 11.936 4.34733 11.808 4.47533C11.68 4.60333 11.5218 4.66711 11.3333 4.66667H8.66667C8.47778 4.66667 8.31956 4.60267 8.192 4.47467C8.06445 4.34667 8.00045 4.18844 8 4C7.99956 3.81156 8.06356 3.65333 8.192 3.52533C8.32045 3.39733 8.47867 3.33333 8.66667 3.33333H9.83333C9.37778 2.71111 8.81667 2.22222 8.15 1.86667C7.48333 1.51111 6.76667 1.33333 6 1.33333C4.7 1.33333 3.59733 1.78622 2.692 2.692C1.78667 3.59778 1.33378 4.70044 1.33333 6C1.33289 7.29956 1.78578 8.40244 2.692 9.30867C3.59822 10.2149 4.70089 10.6676 6 10.6667C7.05556 10.6667 8 10.35 8.83333 9.71667C9.66667 9.08333 10.2167 8.26667 10.4833 7.26667C10.5389 7.08889 10.6389 6.95556 10.7833 6.86667C10.9278 6.77778 11.0889 6.74444 11.2667 6.76667C11.4556 6.78889 11.6056 6.86933 11.7167 7.008C11.8278 7.14667 11.8611 7.29956 11.8167 7.46667C11.4944 8.78889 10.7944 9.87511 9.71667 10.7253C8.63889 11.5756 7.4 12.0004 6 12ZM6.66667 5.73333L8.33333 7.4C8.45556 7.52222 8.51667 7.67778 8.51667 7.86667C8.51667 8.05556 8.45556 8.21111 8.33333 8.33333C8.21111 8.45556 8.05556 8.51667 7.86667 8.51667C7.67778 8.51667 7.52222 8.45556 7.4 8.33333L5.53333 6.46667C5.46667 6.4 5.41667 6.32511 5.38333 6.242C5.35 6.15889 5.33333 6.07267 5.33333 5.98333V3.33333C5.33333 3.14444 5.39733 2.98622 5.52533 2.85867C5.65333 2.73111 5.81156 2.66711 6 2.66667C6.18845 2.66622 6.34689 2.73022 6.47533 2.85867C6.60378 2.98711 6.66756 3.14533 6.66667 3.33333V5.73333Z" fill="#D97706"/>
</svg>
