<svg width="21" height="21" viewBox="0 0 21 21" fill="none" xmlns="http://www.w3.org/2000/svg">
<path d="M18.7 20.575L18.1 20H3.925C3.64167 20 3.40433 19.904 3.213 19.712C3.02167 19.52 2.92567 19.2827 2.925 19C2.92433 18.7173 3.02033 18.48 3.213 18.288C3.40567 18.096 3.643 18 3.925 18H4.925V15C4.925 13.9833 5.16267 13.029 5.638 12.137C6.11333 11.245 6.77567 10.5327 7.625 10C7.09167 9.66667 6.63767 9.26667 6.263 8.8C5.88833 8.33333 5.584 7.81667 5.35 7.25L0.3 2.2C0.0999999 2 0 1.76267 0 1.488C0 1.21333 0.0999999 0.975667 0.3 0.775C0.5 0.574333 0.737667 0.474333 1.013 0.475C1.28833 0.475667 1.52567 0.575667 1.725 0.775L20.125 19.175C20.325 19.375 20.425 19.6083 20.425 19.875C20.425 20.1417 20.325 20.375 20.125 20.575C19.925 20.775 19.6877 20.875 19.413 20.875C19.1383 20.875 18.9007 20.775 18.7 20.575ZM14.925 2H6.225C5.89167 2 5.64167 1.896 5.475 1.688C5.30833 1.48 5.225 1.25067 5.225 1C5.225 0.749333 5.30833 0.520333 5.475 0.313C5.64167 0.105667 5.89167 0.00133333 6.225 0H17.925C18.2083 0 18.446 0.0960001 18.638 0.288C18.83 0.48 18.9257 0.717333 18.925 1C18.9243 1.28267 18.8283 1.52033 18.637 1.713C18.4457 1.90567 18.2083 2.00133 17.925 2H16.925V5C16.925 5.91667 16.7333 6.78767 16.35 7.613C15.9667 8.43833 15.4167 9.12567 14.7 9.675C14.5167 9.825 14.3 9.85433 14.05 9.763C13.8 9.67167 13.6083 9.509 13.475 9.275C13.3417 9.041 13.296 8.79933 13.338 8.55C13.38 8.30067 13.4923 8.084 13.675 7.9C14.0583 7.51667 14.3627 7.075 14.588 6.575C14.8133 6.075 14.9257 5.55 14.925 5V2ZM6.925 18H14.925V16.825L9.4 11.3C8.65 11.6167 8.05 12.1083 7.6 12.775C7.15 13.4417 6.925 14.1833 6.925 15V18Z" fill="#FB923C"/>
</svg>
