<svg width="12" height="14" viewBox="0 0 12 14" fill="none" xmlns="http://www.w3.org/2000/svg">
<path d="M4 1.33333V0H8V1.33333H4ZM5.33333 8.66667H6.66667V4.66667H5.33333V8.66667ZM6 14C5.17778 14 4.40267 13.8418 3.67467 13.5253C2.94667 13.2089 2.31067 12.7782 1.76667 12.2333C1.22267 11.6884 0.792222 11.0522 0.475333 10.3247C0.158444 9.59711 0 8.82222 0 8C0 7.17778 0.158444 6.40267 0.475333 5.67467C0.792222 4.94667 1.22267 4.31067 1.76667 3.76667C2.31067 3.22267 2.94689 2.79222 3.67533 2.47533C4.40378 2.15844 5.17867 2 6 2C6.68889 2 7.35 2.11111 7.98333 2.33333C8.61667 2.55556 9.21111 2.87778 9.76667 3.3L10.7 2.36667L11.6333 3.3L10.7 4.23333C11.1222 4.78889 11.4444 5.38333 11.6667 6.01667C11.8889 6.65 12 7.31111 12 8C12 8.82222 11.8416 9.59733 11.5247 10.3253C11.2078 11.0533 10.7773 11.6893 10.2333 12.2333C9.68933 12.7773 9.05311 13.208 8.32467 13.5253C7.59622 13.8427 6.82133 14.0009 6 14ZM6 12.6667C7.28889 12.6667 8.38889 12.2111 9.3 11.3C10.2111 10.3889 10.6667 9.28889 10.6667 8C10.6667 6.71111 10.2111 5.61111 9.3 4.7C8.38889 3.78889 7.28889 3.33333 6 3.33333C4.71111 3.33333 3.61111 3.78889 2.7 4.7C1.78889 5.61111 1.33333 6.71111 1.33333 8C1.33333 9.28889 1.78889 10.3889 2.7 11.3C3.61111 12.2111 4.71111 12.6667 6 12.6667Z" fill="#22C55E"/>
</svg>
