<svg width="15" height="11" viewBox="0 0 15 11" fill="none" xmlns="http://www.w3.org/2000/svg">
<path d="M0 8.80002C0 8.42224 0.0973333 8.07513 0.292 7.75868C0.486667 7.44224 0.744889 7.20046 1.06667 7.03335C1.75556 6.68891 2.45556 6.43068 3.16667 6.25868C3.87778 6.08668 4.6 6.00046 5.33333 6.00002C6.06667 5.99957 6.78889 6.08579 7.5 6.25868C8.21111 6.43157 8.91111 6.6898 9.6 7.03335C9.92222 7.20002 10.1807 7.44179 10.3753 7.75868C10.57 8.07557 10.6671 8.42268 10.6667 8.80002V9.33335C10.6667 9.70002 10.5362 10.014 10.2753 10.2754C10.0144 10.5367 9.70045 10.6671 9.33333 10.6667H1.33333C0.966667 10.6667 0.652889 10.5362 0.392 10.2754C0.131111 10.0145 0.000444444 9.70046 0 9.33335V8.80002ZM13.3333 10.6667H11.6333C11.7556 10.4667 11.8473 10.2529 11.9087 10.0254C11.97 9.7978 12.0004 9.56713 12 9.33335V8.66668C12 8.1778 11.864 7.70824 11.592 7.25802C11.32 6.8078 10.9338 6.42179 10.4333 6.10002C11 6.16668 11.5333 6.28068 12.0333 6.44202C12.5333 6.60335 13 6.80046 13.4333 7.03335C13.8333 7.25557 14.1389 7.50268 14.35 7.77468C14.5611 8.04668 14.6667 8.34402 14.6667 8.66668V9.33335C14.6667 9.70002 14.5362 10.014 14.2753 10.2754C14.0144 10.5367 13.7004 10.6671 13.3333 10.6667ZM5.33333 5.33335C4.6 5.33335 3.97222 5.07224 3.45 4.55002C2.92778 4.02779 2.66667 3.40002 2.66667 2.66668C2.66667 1.93335 2.92778 1.30557 3.45 0.783351C3.97222 0.261128 4.6 1.70938e-05 5.33333 1.70938e-05C6.06667 1.70938e-05 6.69444 0.261128 7.21667 0.783351C7.73889 1.30557 8 1.93335 8 2.66668C8 3.40002 7.73889 4.02779 7.21667 4.55002C6.69444 5.07224 6.06667 5.33335 5.33333 5.33335ZM12 2.66668C12 3.40002 11.7389 4.02779 11.2167 4.55002C10.6944 5.07224 10.0667 5.33335 9.33333 5.33335C9.21111 5.33335 9.05556 5.31957 8.86667 5.29202C8.67778 5.26446 8.52222 5.2338 8.4 5.20002C8.7 4.84446 8.93067 4.45002 9.092 4.01668C9.25333 3.58335 9.33378 3.13335 9.33333 2.66668C9.33289 2.20002 9.25244 1.75002 9.092 1.31668C8.93156 0.88335 8.70089 0.488906 8.4 0.13335C8.55556 0.0777947 8.71111 0.0415728 8.86667 0.0246839C9.02222 0.00779499 9.17778 -0.000427351 9.33333 1.70938e-05C10.0667 1.70938e-05 10.6944 0.261128 11.2167 0.783351C11.7389 1.30557 12 1.93335 12 2.66668ZM1.33333 9.33335H9.33333V8.80002C9.33333 8.6778 9.30289 8.56668 9.242 8.46668C9.18111 8.36668 9.10044 8.28891 9 8.23335C8.4 7.93335 7.79444 7.70846 7.18333 7.55868C6.57222 7.40891 5.95556 7.3338 5.33333 7.33335C4.71111 7.33291 4.09444 7.40802 3.48333 7.55868C2.87222 7.70935 2.26667 7.93424 1.66667 8.23335C1.56667 8.28891 1.486 8.36668 1.42467 8.46668C1.36333 8.56668 1.33289 8.6778 1.33333 8.80002V9.33335ZM5.33333 4.00002C5.7 4.00002 6.014 3.86957 6.27533 3.60868C6.53667 3.3478 6.66711 3.0338 6.66667 2.66668C6.66622 2.29957 6.53578 1.98579 6.27533 1.72535C6.01489 1.46491 5.70089 1.33424 5.33333 1.33335C4.96578 1.33246 4.652 1.46313 4.392 1.72535C4.132 1.98757 4.00133 2.30135 4 2.66668C3.99867 3.03202 4.12933 3.34602 4.392 3.60868C4.65467 3.87135 4.96844 4.0018 5.33333 4.00002Z" fill="#887663"/>
</svg>
