<svg width="11" height="11" viewBox="0 0 11 11" fill="none" xmlns="http://www.w3.org/2000/svg">
<path d="M5.33333 5.33333C4.6 5.33333 3.97222 5.07222 3.45 4.55C2.92778 4.02778 2.66667 3.4 2.66667 2.66667C2.66667 1.93333 2.92778 1.30556 3.45 0.783333C3.97222 0.261111 4.6 0 5.33333 0C6.06667 0 6.69444 0.261111 7.21667 0.783333C7.73889 1.30556 8 1.93333 8 2.66667C8 3.4 7.73889 4.02778 7.21667 4.55C6.69444 5.07222 6.06667 5.33333 5.33333 5.33333ZM0 9.33333V8.8C0 8.42222 0.0973335 8.07511 0.292 7.75867C0.486667 7.44222 0.744889 7.20044 1.06667 7.03333C1.75556 6.68889 2.45556 6.43067 3.16667 6.25867C3.87778 6.08667 4.6 6.00044 5.33333 6C6.06667 5.99956 6.78889 6.08578 7.5 6.25867C8.21111 6.43156 8.91111 6.68978 9.6 7.03333C9.92222 7.2 10.1807 7.44178 10.3753 7.75867C10.57 8.07556 10.6671 8.42267 10.6667 8.8V9.33333C10.6667 9.7 10.5362 10.014 10.2753 10.2753C10.0144 10.5367 9.70044 10.6671 9.33333 10.6667H1.33333C0.966667 10.6667 0.652889 10.5362 0.392 10.2753C0.131111 10.0144 0.000444444 9.70044 0 9.33333ZM1.33333 9.33333H9.33333V8.8C9.33333 8.67778 9.30289 8.56667 9.242 8.46667C9.18111 8.36667 9.10044 8.28889 9 8.23333C8.4 7.93333 7.79444 7.70844 7.18333 7.55867C6.57222 7.40889 5.95556 7.33378 5.33333 7.33333C4.71111 7.33289 4.09444 7.408 3.48333 7.55867C2.87222 7.70933 2.26667 7.93422 1.66667 8.23333C1.56667 8.28889 1.486 8.36667 1.42467 8.46667C1.36333 8.56667 1.33289 8.67778 1.33333 8.8V9.33333ZM5.33333 4C5.7 4 6.014 3.86956 6.27533 3.60867C6.53667 3.34778 6.66711 3.03378 6.66667 2.66667C6.66622 2.29956 6.53578 1.98578 6.27533 1.72533C6.01489 1.46489 5.70089 1.33422 5.33333 1.33333C4.96578 1.33244 4.652 1.46311 4.392 1.72533C4.132 1.98756 4.00133 2.30133 4 2.66667C3.99867 3.032 4.12933 3.346 4.392 3.60867C4.65467 3.87133 4.96844 4.00178 5.33333 4Z" fill="#B9AB9D"/>
</svg>
