<svg width="22" height="20" viewBox="0 0 22 20" fill="none" xmlns="http://www.w3.org/2000/svg">
<path d="M0.75 16.75V15.75C0.75 13.8935 1.4875 12.113 2.80025 10.8003C4.11301 9.4875 5.89348 8.75 7.75 8.75" stroke="#FF6600" stroke-width="1.5" stroke-linecap="round" stroke-linejoin="round"/>
<path d="M14.554 9.064C14.7058 8.89786 14.8905 8.76516 15.0965 8.67437C15.3024 8.58359 15.5249 8.5367 15.75 8.5367C15.975 8.5367 16.1976 8.58359 16.4035 8.67437C16.6095 8.76516 16.7942 8.89786 16.946 9.064C17.271 9.42 17.736 9.613 18.218 9.59C18.4429 9.57976 18.6675 9.61652 18.8774 9.69793C19.0873 9.77934 19.278 9.90361 19.4372 10.0628C19.5964 10.222 19.7207 10.4127 19.8021 10.6226C19.8835 10.8325 19.9202 11.0571 19.91 11.282C19.887 11.763 20.08 12.229 20.436 12.554C21.141 13.196 21.141 14.304 20.436 14.946C20.08 15.271 19.887 15.736 19.91 16.218C19.9202 16.4429 19.8835 16.6675 19.8021 16.8774C19.7207 17.0873 19.5964 17.278 19.4372 17.4372C19.278 17.5964 19.0873 17.7207 18.8774 17.8021C18.6675 17.8835 18.4429 17.9202 18.218 17.91C17.9804 17.8989 17.7432 17.9403 17.5234 18.0312C17.3035 18.1221 17.1064 18.2603 16.946 18.436C16.7942 18.6021 16.6095 18.7348 16.4035 18.8256C16.1976 18.9164 15.975 18.9633 15.75 18.9633C15.5249 18.9633 15.3024 18.9164 15.0965 18.8256C14.8905 18.7348 14.7058 18.6021 14.554 18.436C14.3936 18.2603 14.1965 18.1221 13.9766 18.0312C13.7568 17.9403 13.5196 17.8989 13.282 17.91C13.0571 17.9202 12.8325 17.8835 12.6226 17.8021C12.4127 17.7207 12.222 17.5964 12.0628 17.4372C11.9036 17.278 11.7793 17.0873 11.6979 16.8774C11.6165 16.6675 11.5798 16.4429 11.59 16.218C11.601 15.9803 11.5594 15.7431 11.4684 15.5232C11.3773 15.3034 11.2389 15.1063 11.063 14.946C10.8968 14.7942 10.7642 14.6095 10.6734 14.4035C10.5826 14.1976 10.5357 13.975 10.5357 13.75C10.5357 13.525 10.5826 13.3024 10.6734 13.0965C10.7642 12.8905 10.8968 12.7058 11.063 12.554C11.42 12.229 11.613 11.764 11.59 11.282C11.5798 11.0571 11.6165 10.8325 11.6979 10.6226C11.7793 10.4127 11.9036 10.222 12.0628 10.0628C12.222 9.90361 12.4127 9.77934 12.6226 9.69793C12.8325 9.61652 13.0571 9.57976 13.282 9.59C13.763 9.613 14.229 9.42 14.554 9.063V9.064Z" stroke="#FF6600" stroke-width="1.5"/>
<path d="M14.114 13.75L15.204 14.84L17.386 12.66M7.75 8.75C8.81087 8.75 9.82828 8.32857 10.5784 7.57843C11.3286 6.82828 11.75 5.81087 11.75 4.75C11.75 3.68913 11.3286 2.67172 10.5784 1.92157C9.82828 1.17143 8.81087 0.75 7.75 0.75C6.68913 0.75 5.67172 1.17143 4.92157 1.92157C4.17143 2.67172 3.75 3.68913 3.75 4.75C3.75 5.81087 4.17143 6.82828 4.92157 7.57843C5.67172 8.32857 6.68913 8.75 7.75 8.75Z" stroke="#FF6600" stroke-width="1.5" stroke-linecap="round" stroke-linejoin="round"/>
</svg>
