<svg width="22" height="20" viewBox="0 0 22 20" fill="none" xmlns="http://www.w3.org/2000/svg">
<path d="M0.75 16.75V15.75C0.75 13.8935 1.4875 12.113 2.80025 10.8003C4.11301 9.4875 5.89348 8.75 7.75 8.75" stroke="#D5D5D5" stroke-width="1.5" stroke-linecap="round" stroke-linejoin="round"/>
<path d="M14.5539 9.064C14.7057 8.89786 14.8905 8.76516 15.0964 8.67437C15.3023 8.58359 15.5249 8.5367 15.7499 8.5367C15.975 8.5367 16.1976 8.58359 16.4035 8.67437C16.6094 8.76516 16.7942 8.89786 16.9459 9.064C17.2709 9.42 17.7359 9.613 18.2179 9.59C18.4429 9.57976 18.6675 9.61652 18.8774 9.69793C19.0873 9.77934 19.2779 9.90361 19.4371 10.0628C19.5963 10.222 19.7206 10.4127 19.802 10.6226C19.8834 10.8325 19.9202 11.0571 19.9099 11.282C19.8869 11.763 20.0799 12.229 20.4359 12.554C21.1409 13.196 21.1409 14.304 20.4359 14.946C20.0799 15.271 19.8869 15.736 19.9099 16.218C19.9202 16.4429 19.8834 16.6675 19.802 16.8774C19.7206 17.0873 19.5963 17.278 19.4371 17.4372C19.2779 17.5964 19.0873 17.7207 18.8774 17.8021C18.6675 17.8835 18.4429 17.9202 18.2179 17.91C17.9803 17.8989 17.7431 17.9403 17.5233 18.0312C17.3035 18.1221 17.1063 18.2603 16.9459 18.436C16.7942 18.6021 16.6094 18.7348 16.4035 18.8256C16.1976 18.9164 15.975 18.9633 15.7499 18.9633C15.5249 18.9633 15.3023 18.9164 15.0964 18.8256C14.8905 18.7348 14.7057 18.6021 14.5539 18.436C14.3936 18.2603 14.1964 18.1221 13.9766 18.0312C13.7568 17.9403 13.5196 17.8989 13.2819 17.91C13.057 17.9202 12.8324 17.8835 12.6225 17.8021C12.4126 17.7207 12.222 17.5964 12.0628 17.4372C11.9036 17.278 11.7793 17.0873 11.6979 16.8774C11.6165 16.6675 11.5797 16.4429 11.5899 16.218C11.6009 15.9803 11.5594 15.7431 11.4683 15.5232C11.3772 15.3034 11.2388 15.1063 11.0629 14.946C10.8968 14.7942 10.7641 14.6095 10.6733 14.4035C10.5825 14.1976 10.5356 13.975 10.5356 13.75C10.5356 13.525 10.5825 13.3024 10.6733 13.0965C10.7641 12.8905 10.8968 12.7058 11.0629 12.554C11.4199 12.229 11.6129 11.764 11.5899 11.282C11.5797 11.0571 11.6165 10.8325 11.6979 10.6226C11.7793 10.4127 11.9036 10.222 12.0628 10.0628C12.222 9.90361 12.4126 9.77934 12.6225 9.69793C12.8324 9.61652 13.057 9.57976 13.2819 9.59C13.7629 9.613 14.2289 9.42 14.5539 9.063V9.064Z" stroke="#D5D5D5" stroke-width="1.5"/>
<path d="M14.114 13.75L15.204 14.84L17.386 12.66M7.75 8.75C8.81087 8.75 9.82828 8.32857 10.5784 7.57843C11.3286 6.82828 11.75 5.81087 11.75 4.75C11.75 3.68913 11.3286 2.67172 10.5784 1.92157C9.82828 1.17143 8.81087 0.75 7.75 0.75C6.68913 0.75 5.67172 1.17143 4.92157 1.92157C4.17143 2.67172 3.75 3.68913 3.75 4.75C3.75 5.81087 4.17143 6.82828 4.92157 7.57843C5.67172 8.32857 6.68913 8.75 7.75 8.75Z" stroke="#D5D5D5" stroke-width="1.5" stroke-linecap="round" stroke-linejoin="round"/>
</svg>
