<svg width="12" height="13" viewBox="0 0 12 13" fill="none" xmlns="http://www.w3.org/2000/svg">
<path d="M1.33333 12.984C0.966667 12.984 0.652889 12.8536 0.392 12.5927C0.131111 12.3318 0.000444444 12.0178 0 11.6507V8.61736L1.83333 6.53403L2.78333 7.48403L1.45 8.98403H10.55L9.25 7.51736L10.2 6.56736L12 8.61736V11.6507C12 12.0174 11.8696 12.3314 11.6087 12.5927C11.3478 12.854 11.0338 12.9845 10.6667 12.984H1.33333ZM1.33333 11.6507H10.6667V10.3174H1.33333V11.6507ZM5.08333 7.90069L2.73333 5.55069C2.47778 5.29514 2.35289 4.98136 2.35867 4.60936C2.36444 4.23736 2.49489 3.92336 2.75 3.66736L6.01667 0.400694C6.27222 0.145139 6.58889 0.0118056 6.96667 0.000694445C7.34444 -0.0104167 7.66111 0.111806 7.91667 0.367361L10.2667 2.71736C10.5222 2.97292 10.6556 3.28403 10.6667 3.65069C10.6778 4.01736 10.5556 4.32847 10.3 4.58403L6.96667 7.91736C6.71111 8.17292 6.39733 8.29803 6.02533 8.2927C5.65333 8.28736 5.33933 8.15669 5.08333 7.90069ZM9.33333 3.66736L6.98333 1.31736L3.68333 4.61736L6.03333 6.96736L9.33333 3.66736Z" fill="#B9AB9D"/>
</svg>
