<svg width="12" height="12" viewBox="0 0 12 12" fill="none" xmlns="http://www.w3.org/2000/svg">
<path d="M6.002 12C5.17267 12 4.39267 11.8427 3.662 11.528C2.93178 11.2129 2.29644 10.7853 1.756 10.2453C1.21556 9.70533 0.787778 9.07067 0.472667 8.34133C0.157556 7.612 0 6.83222 0 6.002C0 5.17178 0.157556 4.39178 0.472667 3.662C0.787333 2.93178 1.21422 2.29644 1.75333 1.756C2.29244 1.21556 2.92733 0.787778 3.658 0.472667C4.38867 0.157556 5.16867 0 5.998 0C6.82733 0 7.60733 0.157556 8.338 0.472667C9.06822 0.787333 9.70356 1.21444 10.244 1.754C10.7844 2.29356 11.2122 2.92844 11.5273 3.65867C11.8424 4.38889 12 5.16867 12 5.998C12 6.82733 11.8427 7.60733 11.528 8.338C11.2133 9.06867 10.7858 9.704 10.2453 10.244C9.70489 10.784 9.07022 11.2118 8.34133 11.5273C7.61244 11.8429 6.83267 12.0004 6.002 12ZM5.33333 11.3V10C4.96667 10 4.65289 9.86956 4.392 9.60867C4.13111 9.34778 4.00044 9.03378 4 8.66667V8L0.8 4.8C0.766667 5 0.736222 5.2 0.708667 5.4C0.681111 5.6 0.667111 5.8 0.666667 6C0.666667 7.34444 1.10844 8.52222 1.992 9.53333C2.87556 10.5444 3.98933 11.1333 5.33333 11.3ZM9.93333 9.6C10.3889 9.1 10.7362 8.54178 10.9753 7.92533C11.2144 7.30889 11.3338 6.66556 11.3333 5.99533C11.3333 4.90111 11.0327 3.90178 10.4313 2.99733C9.83 2.09289 9.01956 1.44089 8 1.04133V1.33333C8 1.7 7.86956 2.014 7.60867 2.27533C7.34778 2.53667 7.03378 2.66711 6.66667 2.66667H5.33333V4C5.33333 4.18889 5.26933 4.34733 5.14133 4.47533C5.01333 4.60333 4.85511 4.66711 4.66667 4.66667H3.33333V6H7.33333C7.52222 6 7.68067 6.064 7.80867 6.192C7.93667 6.32 8.00044 6.47822 8 6.66667V8.66667H8.66667C8.95556 8.66667 9.21667 8.75289 9.45 8.92533C9.68333 9.09778 9.84444 9.32267 9.93333 9.6Z" fill="#FF6600"/>
</svg>
