<svg width="14" height="14" viewBox="0 0 14 14" fill="none" xmlns="http://www.w3.org/2000/svg">
<path d="M6.75225 13.5C5.81925 13.5 4.94175 13.323 4.11975 12.969C3.29825 12.6145 2.5835 12.1335 1.9755 11.526C1.3675 10.9185 0.88625 10.2045 0.53175 9.384C0.17725 8.5635 0 7.68625 0 6.75225C0 5.81825 0.17725 4.94075 0.53175 4.11975C0.88575 3.29825 1.366 2.5835 1.9725 1.9755C2.579 1.3675 3.29325 0.88625 4.11525 0.53175C4.93725 0.17725 5.81475 0 6.74775 0C7.68075 0 8.55825 0.17725 9.38025 0.53175C10.2017 0.88575 10.9165 1.36625 11.5245 1.97325C12.1325 2.58025 12.6138 3.2945 12.9683 4.116C13.3228 4.9375 13.5 5.81475 13.5 6.74775C13.5 7.68075 13.323 8.55825 12.969 9.38025C12.615 10.2023 12.134 10.917 11.526 11.5245C10.918 12.132 10.204 12.6133 9.384 12.9683C8.564 13.3233 7.68675 13.5005 6.75225 13.5ZM6 12.7125V11.25C5.5875 11.25 5.2345 11.1033 4.941 10.8098C4.6475 10.5163 4.5005 10.163 4.5 9.75V9L0.9 5.4C0.8625 5.625 0.82825 5.85 0.79725 6.075C0.76625 6.3 0.7505 6.525 0.75 6.75C0.75 8.2625 1.247 9.5875 2.241 10.725C3.235 11.8625 4.488 12.525 6 12.7125ZM11.175 10.8C11.6875 10.2375 12.0782 9.6095 12.3472 8.916C12.6162 8.2225 12.7505 7.49875 12.75 6.74475C12.75 5.51375 12.4117 4.3895 11.7352 3.372C11.0587 2.3545 10.147 1.621 9 1.1715V1.5C9 1.9125 8.85325 2.26575 8.55975 2.55975C8.26625 2.85375 7.913 3.0005 7.5 3H6V4.5C6 4.7125 5.928 4.89075 5.784 5.03475C5.64 5.17875 5.462 5.2505 5.25 5.25H3.75V6.75H8.25C8.4625 6.75 8.64075 6.822 8.78475 6.966C8.92875 7.11 9.0005 7.288 9 7.5V9.75H9.75C10.075 9.75 10.3687 9.847 10.6312 10.041C10.8937 10.235 11.075 10.488 11.175 10.8Z" fill="#FAB560"/>
</svg>
