<svg width="119" height="69" viewBox="0 0 119 69" fill="none" xmlns="http://www.w3.org/2000/svg">
<path d="M21.8508 54.4676C14.3515 52.8736 8.54784 48.9137 4.43983 42.5879C0.33183 36.2621 -0.925161 29.3496 0.668862 21.8503C2.26288 14.351 6.22278 8.5474 12.5486 4.4394C18.8743 0.331395 25.7869 -0.925598 33.2861 0.668425C36.3022 1.3095 39.0833 2.45443 41.6295 4.1032C44.1757 5.75198 46.3414 7.78844 48.1264 10.2126L54.8295 19.5607L46.0898 24.6039L39.9644 16.1454C38.9028 14.727 37.6261 13.5185 36.1344 12.5198C34.6428 11.5212 33.0003 10.8313 31.207 10.4501C26.4792 9.44517 22.089 10.2585 18.0366 12.8902C13.9841 15.5219 11.4555 19.2017 10.4505 23.9295C9.4456 28.6573 10.259 33.0474 12.8907 37.0999C15.5224 41.1523 19.2021 43.681 23.9299 44.6859C25.7232 45.0671 27.5043 45.1049 29.2732 44.7993C31.0421 44.4937 32.6999 43.909 34.2467 43.045L79.4278 16.8659C82.0445 15.3774 84.8512 14.3978 87.8479 13.9272C90.8446 13.4566 93.851 13.5419 96.867 14.183C104.366 15.777 110.17 19.7369 114.278 26.0627C118.386 32.3884 119.643 39.301 118.049 46.8002C116.455 54.2995 112.495 60.1032 106.169 64.2112C99.8434 68.3192 92.9309 69.5762 85.4316 67.9821C82.4156 67.3411 79.6345 66.1961 77.0882 64.5474C74.542 62.8986 72.3764 60.8621 70.5913 58.438L63.8883 49.0899L72.6279 44.0466L78.7533 52.5052C79.815 53.9236 81.0916 55.1321 82.5833 56.1307C84.075 57.1294 85.7175 57.8193 87.5108 58.2005C92.2386 59.2054 96.6287 58.392 100.681 55.7603C104.734 53.1286 107.262 49.4489 108.267 44.7211C109.272 39.9933 108.459 35.6032 105.827 31.5507C103.195 27.4982 99.5156 24.9696 94.7878 23.9646C92.9945 23.5835 91.2134 23.5457 89.4445 23.8512C87.6756 24.1568 86.0178 24.7416 84.471 25.6056L39.29 51.7847C36.6733 53.2732 33.8666 54.2527 30.8699 54.7233C27.8731 55.1939 24.8668 55.1087 21.8508 54.4676Z" fill="#FF6600"/>
</svg>
